<ttFont>
    <TTGlyph name="A" xMin="26" yMin="-6" xMax="570" yMax="686">
      <contour>
        <pt x="431" y="178" on="1"/>
        <pt x="361" y="177" on="1"/>
        <pt x="227" y="177" on="1"/>
        <pt x="157" y="178" on="1"/>
        <pt x="99" y="-1" on="1"/>
        <pt x="86" y="-4" on="0"/>
        <pt x="48" y="-4" on="0"/>
        <pt x="28" y="1" on="1"/>
        <pt x="26" y="4" on="1"/>
        <pt x="255" y="683" on="1"/>
        <pt x="272" y="686" on="0"/>
        <pt x="328" y="686" on="0"/>
        <pt x="341" y="683" on="1"/>
        <pt x="570" y="4" on="1"/>
        <pt x="554" y="-6" on="0"/>
        <pt x="506" y="-6" on="0"/>
        <pt x="486" y="10" on="0"/>
        <pt x="479" y="34" on="1"/>
      </contour>
      <contour>
        <pt x="179" y="243" on="1"/>
        <pt x="237" y="244" on="1"/>
        <pt x="352" y="244" on="1"/>
        <pt x="353" y="244" on="0"/>
        <pt x="400" y="243" on="0"/>
        <pt x="410" y="243" on="1"/>
        <pt x="347" y="433" on="1"/>
        <pt x="309" y="550" on="0"/>
        <pt x="296" y="600" on="1"/>
        <pt x="291" y="600" on="1"/>
        <pt x="272" y="526" on="0"/>
        <pt x="257" y="481" on="1"/>
      </contour>
    </TTGlyph>
    <TTGlyph name="AE" xMin="21" yMin="-4" xMax="816" yMax="683">
      <contour>
        <pt x="407" y="178" on="1"/>
        <pt x="342" y="177" on="1"/>
        <pt x="252" y="177" on="1"/>
        <pt x="191" y="178" on="1"/>
        <pt x="100" y="-1" on="1"/>
        <pt x="84" y="-4" on="0"/>
        <pt x="43" y="-4" on="0"/>
        <pt x="28" y="1" on="1"/>
        <pt x="21" y="4" on="1"/>
        <pt x="367" y="675" on="1"/>
        <pt x="384" y="683" on="0"/>
        <pt x="413" y="683" on="1"/>
        <pt x="800" y="683" on="1"/>
        <pt x="802" y="671" on="0"/>
        <pt x="802" y="631" on="0"/>
        <pt x="796" y="617" on="1"/>
        <pt x="481" y="617" on="1"/>
        <pt x="482" y="555" on="1"/>
        <pt x="482" y="378" on="1"/>
        <pt x="541" y="379" on="1"/>
        <pt x="748" y="379" on="1"/>
        <pt x="751" y="361" on="0"/>
        <pt x="751" y="330" on="0"/>
        <pt x="748" y="313" on="1"/>
        <pt x="541" y="313" on="1"/>
        <pt x="503" y="313" on="0"/>
        <pt x="482" y="314" on="1"/>
        <pt x="482" y="103" on="1"/>
        <pt x="481" y="65" on="1"/>
        <pt x="517" y="67" on="0"/>
        <pt x="542" y="67" on="1"/>
        <pt x="816" y="67" on="1"/>
        <pt x="816" y="46" on="0"/>
        <pt x="814" y="35" on="1"/>
        <pt x="808" y="0" on="0"/>
        <pt x="765" y="0" on="1"/>
        <pt x="451" y="0" on="1"/>
        <pt x="431" y="0" on="0"/>
        <pt x="407" y="27" on="0"/>
        <pt x="407" y="50" on="1"/>
      </contour>
      <contour>
        <pt x="343" y="244" on="1"/>
        <pt x="407" y="243" on="1"/>
        <pt x="407" y="600" on="1"/>
        <pt x="401" y="600" on="1"/>
        <pt x="394" y="583" on="0"/>
        <pt x="346" y="481" on="1"/>
        <pt x="224" y="243" on="1"/>
        <pt x="271" y="244" on="1"/>
      </contour>
    </TTGlyph>
    <TTGlyph name="Aacute" xMin="26" yMin="-6" xMax="570" yMax="882">
      <component glyphName="A" x="0" y="0" flags="0x204"/>
      <component glyphName="acute.cap" x="99" y="0" flags="0x4"/>
    </TTGlyph>
    <TTGlyph name="Acircumflex" xMin="26" yMin="-6" xMax="570" yMax="882">
      <component glyphName="A" x="0" y="0" flags="0x204"/>
      <component glyphName="circumflex.cap" x="99" y="0" flags="0x4"/>
    </TTGlyph>
    <TTGlyph name="Adieresis" xMin="26" yMin="-6" xMax="570" yMax="826">
      <component glyphName="A" x="0" y="0" flags="0x204"/>
      <component glyphName="dieresis.cap" x="99" y="0" flags="0x4"/>
    </TTGlyph>
    <TTGlyph name="Agrave" xMin="26" yMin="-6" xMax="570" yMax="882">
      <component glyphName="A" x="0" y="0" flags="0x204"/>
      <component glyphName="grave.cap" x="99" y="0" flags="0x4"/>
    </TTGlyph>
    <TTGlyph name="Aogonek" xMin="26" yMin="-217" xMax="615" yMax="686">
      <contour>
        <pt x="227" y="177" on="1"/>
        <pt x="157" y="178" on="1"/>
        <pt x="99" y="-1" on="1"/>
        <pt x="86" y="-4" on="0"/>
        <pt x="48" y="-4" on="0"/>
        <pt x="30" y="0" on="1"/>
        <pt x="26" y="4" on="1"/>
        <pt x="255" y="683" on="1"/>
        <pt x="272" y="686" on="0"/>
        <pt x="328" y="686" on="0"/>
        <pt x="341" y="683" on="1"/>
        <pt x="570" y="4" on="1"/>
        <pt x="545" y="-11" on="0"/>
        <pt x="516" y="-39" on="1"/>
        <pt x="482" y="-73" on="0"/>
        <pt x="481" y="-112" on="1"/>
        <pt x="481" y="-136" on="0"/>
        <pt x="509" y="-163" on="0"/>
        <pt x="564" y="-163" on="0"/>
        <pt x="596" y="-145" on="1"/>
        <pt x="615" y="-159" on="0"/>
        <pt x="615" y="-185" on="1"/>
        <pt x="576" y="-217" on="0"/>
        <pt x="471" y="-217" on="0"/>
        <pt x="415" y="-169" on="0"/>
        <pt x="415" y="-127" on="1"/>
        <pt x="415" y="-55" on="0"/>
        <pt x="492" y="6" on="1"/>
        <pt x="485" y="14" on="0"/>
        <pt x="479" y="34" on="1"/>
        <pt x="431" y="178" on="1"/>
        <pt x="361" y="177" on="1"/>
      </contour>
      <contour>
        <pt x="179" y="243" on="1"/>
        <pt x="237" y="244" on="1"/>
        <pt x="352" y="244" on="1"/>
        <pt x="353" y="244" on="0"/>
        <pt x="400" y="243" on="0"/>
        <pt x="410" y="243" on="1"/>
        <pt x="347" y="433" on="1"/>
        <pt x="309" y="550" on="0"/>
        <pt x="296" y="600" on="1"/>
        <pt x="291" y="600" on="1"/>
        <pt x="272" y="526" on="0"/>
        <pt x="257" y="481" on="1"/>
      </contour>
    </TTGlyph>
    <TTGlyph name="Aring" xMin="26" yMin="-6" xMax="570" yMax="882">
      <contour>
        <pt x="431" y="178" on="1"/>
        <pt x="227" y="177" on="1"/>
        <pt x="157" y="178" on="1"/>
        <pt x="99" y="-1" on="1"/>
        <pt x="87" y="-4" on="0"/>
        <pt x="69" y="-4" on="1"/>
        <pt x="59" y="-4" on="0"/>
        <pt x="39" y="-2" on="0"/>
        <pt x="26" y="4" on="1"/>
        <pt x="254" y="679" on="1"/>
        <pt x="224" y="692" on="0"/>
        <pt x="189" y="744" on="0"/>
        <pt x="189" y="782" on="1"/>
        <pt x="189" y="801" on="0"/>
        <pt x="206" y="837" on="0"/>
        <pt x="235" y="865" on="0"/>
        <pt x="275" y="882" on="0"/>
        <pt x="298" y="882" on="1"/>
        <pt x="321" y="882" on="0"/>
        <pt x="361" y="865" on="0"/>
        <pt x="391" y="836" on="0"/>
        <pt x="408" y="800" on="0"/>
        <pt x="408" y="782" on="1"/>
        <pt x="408" y="744" on="0"/>
        <pt x="372" y="691" on="0"/>
        <pt x="342" y="679" on="1"/>
        <pt x="570" y="4" on="1"/>
        <pt x="554" y="-6" on="0"/>
        <pt x="530" y="-6" on="1"/>
        <pt x="506" y="-6" on="0"/>
        <pt x="486" y="10" on="0"/>
        <pt x="479" y="34" on="1"/>
      </contour>
      <contour>
        <pt x="179" y="243" on="1"/>
        <pt x="352" y="244" on="1"/>
        <pt x="410" y="243" on="1"/>
        <pt x="347" y="433" on="1"/>
        <pt x="327" y="492" on="0"/>
        <pt x="303" y="575" on="0"/>
        <pt x="296" y="600" on="1"/>
        <pt x="291" y="600" on="1"/>
        <pt x="281" y="563" on="0"/>
        <pt x="265" y="504" on="0"/>
        <pt x="257" y="481" on="1"/>
      </contour>
      <contour>
        <pt x="298" y="833" on="1"/>
        <pt x="276" y="833" on="0"/>
        <pt x="247" y="801" on="0"/>
        <pt x="247" y="776" on="1"/>
        <pt x="247" y="752" on="0"/>
        <pt x="276" y="720" on="0"/>
        <pt x="298" y="720" on="1"/>
        <pt x="320" y="720" on="0"/>
        <pt x="349" y="752" on="0"/>
        <pt x="349" y="776" on="1"/>
        <pt x="349" y="801" on="0"/>
        <pt x="320" y="833" on="0"/>
      </contour>
    </TTGlyph>
    <TTGlyph name="Atilde" xMin="26" yMin="-6" xMax="570" yMax="860">
      <component glyphName="A" x="0" y="0" flags="0x204"/>
      <component glyphName="tilde.cap" x="99" y="0" flags="0x4"/>
    </TTGlyph>
    <TTGlyph name="B" xMin="99" yMin="-3" xMax="543" yMax="686">
      <contour>
        <pt x="105" y="0" on="1"/>
        <pt x="99" y="6" on="1"/>
        <pt x="99" y="677" on="1"/>
        <pt x="105" y="683" on="1"/>
        <pt x="300" y="686" on="1"/>
        <pt x="409" y="686" on="0"/>
        <pt x="510" y="591" on="0"/>
        <pt x="510" y="506" on="1"/>
        <pt x="510" y="457" on="0"/>
        <pt x="458" y="380" on="0"/>
        <pt x="412" y="364" on="1"/>
        <pt x="439" y="356" on="0"/>
        <pt x="487" y="324" on="0"/>
        <pt x="523" y="277" on="0"/>
        <pt x="543" y="216" on="0"/>
        <pt x="543" y="180" on="1"/>
        <pt x="543" y="145" on="0"/>
        <pt x="516" y="79" on="0"/>
        <pt x="460" y="28" on="0"/>
        <pt x="372" y="-3" on="0"/>
        <pt x="311" y="-3" on="1"/>
      </contour>
      <contour>
        <pt x="175" y="60" on="1"/>
        <pt x="317" y="61" on="1"/>
        <pt x="359" y="61" on="0"/>
        <pt x="415" y="84" on="0"/>
        <pt x="448" y="120" on="0"/>
        <pt x="462" y="168" on="0"/>
        <pt x="462" y="194" on="1"/>
        <pt x="462" y="216" on="0"/>
        <pt x="446" y="263" on="0"/>
        <pt x="410" y="302" on="0"/>
        <pt x="351" y="327" on="0"/>
        <pt x="308" y="327" on="1"/>
        <pt x="175" y="327" on="1"/>
      </contour>
      <contour>
        <pt x="175" y="623" on="1"/>
        <pt x="175" y="391" on="1"/>
        <pt x="298" y="391" on="1"/>
        <pt x="335" y="391" on="0"/>
        <pt x="386" y="409" on="0"/>
        <pt x="417" y="441" on="0"/>
        <pt x="430" y="483" on="0"/>
        <pt x="430" y="507" on="1"/>
        <pt x="430" y="622" on="0"/>
        <pt x="301" y="622" on="1"/>
        <pt x="256" y="622" on="0"/>
        <pt x="194" y="622" on="0"/>
      </contour>
    </TTGlyph>
    <TTGlyph name="C" xMin="57" yMin="-12" xMax="553" yMax="695">
      <contour>
        <pt x="476" y="467" on="1"/>
        <pt x="476" y="497" on="0"/>
        <pt x="459" y="556" on="0"/>
        <pt x="420" y="603" on="0"/>
        <pt x="359" y="631" on="0"/>
        <pt x="316" y="631" on="1"/>
        <pt x="231" y="631" on="0"/>
        <pt x="138" y="481" on="0"/>
        <pt x="138" y="343" on="1"/>
        <pt x="138" y="204" on="0"/>
        <pt x="234" y="55" on="0"/>
        <pt x="322" y="55" on="1"/>
        <pt x="411" y="55" on="0"/>
        <pt x="502" y="134" on="1"/>
        <pt x="533" y="116" on="0"/>
        <pt x="544" y="84" on="1"/>
        <pt x="502" y="41" on="0"/>
        <pt x="379" y="-12" on="0"/>
        <pt x="310" y="-12" on="1"/>
        <pt x="243" y="-12" on="0"/>
        <pt x="147" y="43" on="0"/>
        <pt x="86" y="139" on="0"/>
        <pt x="57" y="266" on="0"/>
        <pt x="57" y="338" on="1"/>
        <pt x="57" y="427" on="0"/>
        <pt x="97" y="561" on="0"/>
        <pt x="167" y="650" on="0"/>
        <pt x="261" y="695" on="0"/>
        <pt x="315" y="695" on="1"/>
        <pt x="369" y="695" on="0"/>
        <pt x="457" y="663" on="0"/>
        <pt x="519" y="611" on="0"/>
        <pt x="553" y="543" on="0"/>
        <pt x="553" y="507" on="1"/>
        <pt x="553" y="462" on="0"/>
        <pt x="510" y="462" on="1"/>
        <pt x="496" y="462" on="0"/>
      </contour>
    </TTGlyph>
    <TTGlyph name="Cacute" xMin="57" yMin="-12" xMax="553" yMax="882">
      <component glyphName="C" x="0" y="0" flags="0x204"/>
      <component glyphName="acute.cap" x="119" y="0" flags="0x4"/>
    </TTGlyph>
    <TTGlyph name="Ccaron" xMin="57" yMin="-12" xMax="553" yMax="883">
      <component glyphName="C" x="0" y="0" flags="0x204"/>
      <component glyphName="caron.cap" x="119" y="0" flags="0x4"/>
    </TTGlyph>
    <TTGlyph name="Ccedilla" xMin="57" yMin="-219" xMax="553" yMax="695">
      <contour>
        <pt x="266" y="-72" on="1"/>
        <pt x="276" y="-36" on="0"/>
        <pt x="287" y="-11" on="1"/>
        <pt x="227" y="-7" on="0"/>
        <pt x="138" y="52" on="0"/>
        <pt x="85" y="147" on="0"/>
        <pt x="57" y="270" on="0"/>
        <pt x="57" y="338" on="1"/>
        <pt x="57" y="427" on="0"/>
        <pt x="97" y="561" on="0"/>
        <pt x="167" y="650" on="0"/>
        <pt x="261" y="695" on="0"/>
        <pt x="315" y="695" on="1"/>
        <pt x="369" y="695" on="0"/>
        <pt x="457" y="663" on="0"/>
        <pt x="519" y="611" on="0"/>
        <pt x="553" y="543" on="0"/>
        <pt x="553" y="507" on="1"/>
        <pt x="553" y="462" on="0"/>
        <pt x="510" y="462" on="1"/>
        <pt x="507" y="462" on="0"/>
        <pt x="496" y="463" on="0"/>
        <pt x="484" y="465" on="0"/>
        <pt x="476" y="469" on="0"/>
        <pt x="476" y="472" on="1"/>
        <pt x="476" y="502" on="0"/>
        <pt x="458" y="559" on="0"/>
        <pt x="419" y="604" on="0"/>
        <pt x="358" y="631" on="0"/>
        <pt x="316" y="631" on="1"/>
        <pt x="231" y="631" on="0"/>
        <pt x="138" y="481" on="0"/>
        <pt x="138" y="343" on="1"/>
        <pt x="138" y="204" on="0"/>
        <pt x="234" y="55" on="0"/>
        <pt x="322" y="55" on="1"/>
        <pt x="411" y="55" on="0"/>
        <pt x="502" y="134" on="1"/>
        <pt x="533" y="116" on="0"/>
        <pt x="544" y="84" on="1"/>
        <pt x="465" y="3" on="0"/>
        <pt x="344" y="-10" on="1"/>
        <pt x="339" y="-19" on="0"/>
        <pt x="333" y="-34" on="0"/>
        <pt x="331" y="-40" on="1"/>
        <pt x="370" y="-43" on="0"/>
        <pt x="420" y="-89" on="0"/>
        <pt x="420" y="-128" on="1"/>
        <pt x="420" y="-148" on="0"/>
        <pt x="403" y="-181" on="0"/>
        <pt x="373" y="-205" on="0"/>
        <pt x="333" y="-219" on="0"/>
        <pt x="310" y="-219" on="1"/>
        <pt x="263" y="-219" on="0"/>
        <pt x="235" y="-200" on="1"/>
        <pt x="237" y="-176" on="0"/>
        <pt x="254" y="-156" on="1"/>
        <pt x="276" y="-170" on="0"/>
        <pt x="302" y="-170" on="1"/>
        <pt x="330" y="-170" on="0"/>
        <pt x="355" y="-145" on="0"/>
        <pt x="355" y="-126" on="1"/>
        <pt x="355" y="-103" on="0"/>
        <pt x="324" y="-83" on="0"/>
        <pt x="307" y="-83" on="1"/>
        <pt x="294" y="-83" on="0"/>
        <pt x="282" y="-88" on="1"/>
        <pt x="271" y="-84" on="0"/>
      </contour>
    </TTGlyph>
    <TTGlyph name="D" xMin="99" yMin="-4" xMax="579" yMax="686">
      <contour>
        <pt x="476" y="47" on="1"/>
        <pt x="462" y="35" on="0"/>
        <pt x="422" y="16" on="0"/>
        <pt x="377" y="3" on="0"/>
        <pt x="332" y="-4" on="0"/>
        <pt x="315" y="-4" on="1"/>
        <pt x="297" y="-4" on="0"/>
        <pt x="193" y="-2" on="0"/>
        <pt x="105" y="0" on="1"/>
        <pt x="99" y="6" on="1"/>
        <pt x="99" y="677" on="1"/>
        <pt x="105" y="683" on="1"/>
        <pt x="192" y="686" on="0"/>
        <pt x="308" y="686" on="1"/>
        <pt x="386" y="686" on="0"/>
        <pt x="490" y="632" on="0"/>
        <pt x="553" y="539" on="0"/>
        <pt x="579" y="412" on="0"/>
        <pt x="579" y="340" on="1"/>
        <pt x="579" y="290" on="0"/>
        <pt x="570" y="205" on="0"/>
        <pt x="546" y="133" on="0"/>
        <pt x="506" y="72" on="0"/>
      </contour>
      <contour>
        <pt x="175" y="61" on="1"/>
        <pt x="307" y="60" on="1"/>
        <pt x="364" y="60" on="0"/>
        <pt x="438" y="105" on="0"/>
        <pt x="481" y="179" on="0"/>
        <pt x="498" y="271" on="0"/>
        <pt x="498" y="317" on="1"/>
        <pt x="498" y="384" on="0"/>
        <pt x="484" y="496" on="0"/>
        <pt x="440" y="577" on="0"/>
        <pt x="362" y="622" on="0"/>
        <pt x="307" y="622" on="1"/>
        <pt x="175" y="623" on="1"/>
      </contour>
    </TTGlyph>
    <TTGlyph name="Dcaron" xMin="99" yMin="-4" xMax="579" yMax="883">
      <component glyphName="D" x="0" y="0" flags="0x204"/>
      <component glyphName="caron.cap" x="103" y="0" flags="0x4"/>
    </TTGlyph>
    <TTGlyph name="E" xMin="99" yMin="0" xMax="508" yMax="683">
      <contour>
        <pt x="173" y="103" on="1"/>
        <pt x="172" y="65" on="1"/>
        <pt x="206" y="67" on="0"/>
        <pt x="234" y="67" on="1"/>
        <pt x="508" y="67" on="1"/>
        <pt x="508" y="46" on="0"/>
        <pt x="506" y="35" on="1"/>
        <pt x="499" y="0" on="0"/>
        <pt x="457" y="0" on="1"/>
        <pt x="142" y="0" on="1"/>
        <pt x="122" y="0" on="0"/>
        <pt x="99" y="27" on="0"/>
        <pt x="99" y="50" on="1"/>
        <pt x="99" y="677" on="1"/>
        <pt x="105" y="683" on="1"/>
        <pt x="491" y="683" on="1"/>
        <pt x="493" y="671" on="0"/>
        <pt x="493" y="632" on="0"/>
        <pt x="488" y="617" on="1"/>
        <pt x="172" y="617" on="1"/>
        <pt x="173" y="555" on="1"/>
        <pt x="173" y="378" on="1"/>
        <pt x="233" y="379" on="1"/>
        <pt x="440" y="379" on="1"/>
        <pt x="443" y="361" on="0"/>
        <pt x="443" y="330" on="0"/>
        <pt x="440" y="313" on="1"/>
        <pt x="233" y="313" on="1"/>
        <pt x="195" y="313" on="0"/>
        <pt x="173" y="314" on="1"/>
      </contour>
    </TTGlyph>
    <TTGlyph name="Eacute" xMin="99" yMin="0" xMax="508" yMax="882">
      <component glyphName="E" x="0" y="0" flags="0x204"/>
      <component glyphName="acute.cap" x="100" y="0" flags="0x4"/>
    </TTGlyph>
    <TTGlyph name="Ecaron" xMin="99" yMin="0" xMax="508" yMax="883">
      <component glyphName="E" x="0" y="0" flags="0x204"/>
      <component glyphName="caron.cap" x="100" y="0" flags="0x4"/>
    </TTGlyph>
    <TTGlyph name="Ecircumflex" xMin="99" yMin="0" xMax="508" yMax="882">
      <component glyphName="E" x="0" y="0" flags="0x204"/>
      <component glyphName="circumflex.cap" x="100" y="0" flags="0x4"/>
    </TTGlyph>
    <TTGlyph name="Edieresis" xMin="99" yMin="0" xMax="508" yMax="826">
      <component glyphName="E" x="0" y="0" flags="0x204"/>
      <component glyphName="dieresis.cap" x="100" y="0" flags="0x4"/>
    </TTGlyph>
    <TTGlyph name="Egrave" xMin="99" yMin="0" xMax="508" yMax="882">
      <component glyphName="E" x="0" y="0" flags="0x204"/>
      <component glyphName="grave.cap" x="100" y="0" flags="0x4"/>
    </TTGlyph>
    <TTGlyph name="Eogonek" xMin="99" yMin="-217" xMax="513" yMax="683">
      <contour>
        <pt x="173" y="103" on="1"/>
        <pt x="172" y="65" on="1"/>
        <pt x="206" y="67" on="0"/>
        <pt x="234" y="67" on="1"/>
        <pt x="508" y="67" on="1"/>
        <pt x="508" y="46" on="0"/>
        <pt x="506" y="35" on="1"/>
        <pt x="501" y="11" on="0"/>
        <pt x="478" y="2" on="1"/>
        <pt x="434" y="-17" on="0"/>
        <pt x="378" y="-81" on="0"/>
        <pt x="378" y="-109" on="1"/>
        <pt x="378" y="-136" on="0"/>
        <pt x="407" y="-163" on="0"/>
        <pt x="460" y="-163" on="0"/>
        <pt x="494" y="-145" on="1"/>
        <pt x="513" y="-160" on="0"/>
        <pt x="513" y="-185" on="1"/>
        <pt x="474" y="-217" on="0"/>
        <pt x="369" y="-217" on="0"/>
        <pt x="313" y="-169" on="0"/>
        <pt x="313" y="-130" on="1"/>
        <pt x="313" y="-53" on="0"/>
        <pt x="390" y="0" on="1"/>
        <pt x="142" y="0" on="1"/>
        <pt x="122" y="0" on="0"/>
        <pt x="99" y="27" on="0"/>
        <pt x="99" y="50" on="1"/>
        <pt x="99" y="677" on="1"/>
        <pt x="105" y="683" on="1"/>
        <pt x="491" y="683" on="1"/>
        <pt x="493" y="671" on="0"/>
        <pt x="493" y="632" on="0"/>
        <pt x="488" y="617" on="1"/>
        <pt x="172" y="617" on="1"/>
        <pt x="173" y="555" on="1"/>
        <pt x="173" y="378" on="1"/>
        <pt x="233" y="379" on="1"/>
        <pt x="440" y="379" on="1"/>
        <pt x="443" y="361" on="0"/>
        <pt x="443" y="330" on="0"/>
        <pt x="440" y="313" on="1"/>
        <pt x="233" y="313" on="1"/>
        <pt x="195" y="313" on="0"/>
        <pt x="173" y="314" on="1"/>
      </contour>
    </TTGlyph>
    <TTGlyph name="Eth" xMin="29" yMin="-4" xMax="595" yMax="686">
      <contour>
        <pt x="492" y="47" on="1"/>
        <pt x="478" y="35" on="0"/>
        <pt x="438" y="16" on="0"/>
        <pt x="393" y="3" on="0"/>
        <pt x="348" y="-4" on="0"/>
        <pt x="331" y="-4" on="1"/>
        <pt x="313" y="-4" on="0"/>
        <pt x="209" y="-2" on="0"/>
        <pt x="121" y="0" on="1"/>
        <pt x="115" y="6" on="1"/>
        <pt x="115" y="313" on="1"/>
        <pt x="32" y="313" on="1"/>
        <pt x="29" y="328" on="0"/>
        <pt x="29" y="345" on="1"/>
        <pt x="29" y="361" on="0"/>
        <pt x="32" y="379" on="1"/>
        <pt x="115" y="379" on="1"/>
        <pt x="115" y="677" on="1"/>
        <pt x="121" y="683" on="1"/>
        <pt x="208" y="686" on="0"/>
        <pt x="324" y="686" on="1"/>
        <pt x="402" y="686" on="0"/>
        <pt x="506" y="632" on="0"/>
        <pt x="570" y="538" on="0"/>
        <pt x="595" y="412" on="0"/>
        <pt x="595" y="341" on="1"/>
        <pt x="595" y="241" on="0"/>
        <pt x="553" y="98" on="0"/>
      </contour>
      <contour>
        <pt x="323" y="622" on="1"/>
        <pt x="191" y="622" on="1"/>
        <pt x="191" y="379" on="1"/>
        <pt x="361" y="379" on="1"/>
        <pt x="364" y="361" on="0"/>
        <pt x="364" y="345" on="1"/>
        <pt x="364" y="328" on="0"/>
        <pt x="361" y="313" on="1"/>
        <pt x="191" y="313" on="1"/>
        <pt x="191" y="61" on="1"/>
        <pt x="323" y="60" on="1"/>
        <pt x="381" y="60" on="0"/>
        <pt x="457" y="105" on="0"/>
        <pt x="497" y="183" on="0"/>
        <pt x="514" y="285" on="0"/>
        <pt x="514" y="342" on="1"/>
        <pt x="514" y="484" on="0"/>
        <pt x="420" y="622" on="0"/>
      </contour>
    </TTGlyph>
    <TTGlyph name="Euro" xMin="30" yMin="-12" xMax="538" yMax="660">
      <contour>
        <pt x="499" y="533" on="1"/>
        <pt x="418" y="593" on="0"/>
        <pt x="343" y="593" on="1"/>
        <pt x="213" y="593" on="0"/>
        <pt x="187" y="422" on="1"/>
        <pt x="416" y="422" on="1"/>
        <pt x="419" y="406" on="0"/>
        <pt x="419" y="380" on="0"/>
        <pt x="416" y="365" on="1"/>
        <pt x="182" y="365" on="1"/>
        <pt x="181" y="352" on="0"/>
        <pt x="181" y="293" on="0"/>
        <pt x="182" y="279" on="1"/>
        <pt x="416" y="279" on="1"/>
        <pt x="419" y="263" on="0"/>
        <pt x="419" y="237" on="0"/>
        <pt x="416" y="222" on="1"/>
        <pt x="188" y="222" on="1"/>
        <pt x="215" y="55" on="0"/>
        <pt x="343" y="55" on="1"/>
        <pt x="418" y="55" on="0"/>
        <pt x="499" y="115" on="1"/>
        <pt x="527" y="96" on="0"/>
        <pt x="538" y="64" on="1"/>
        <pt x="446" y="-12" on="0"/>
        <pt x="334" y="-12" on="1"/>
        <pt x="143" y="-12" on="0"/>
        <pt x="110" y="222" on="1"/>
        <pt x="33" y="222" on="1"/>
        <pt x="30" y="237" on="0"/>
        <pt x="30" y="262" on="0"/>
        <pt x="33" y="279" on="1"/>
        <pt x="104" y="279" on="1"/>
        <pt x="103" y="294" on="0"/>
        <pt x="103" y="351" on="0"/>
        <pt x="104" y="365" on="1"/>
        <pt x="33" y="365" on="1"/>
        <pt x="30" y="380" on="0"/>
        <pt x="30" y="406" on="0"/>
        <pt x="33" y="422" on="1"/>
        <pt x="109" y="422" on="1"/>
        <pt x="142" y="660" on="0"/>
        <pt x="334" y="660" on="1"/>
        <pt x="444" y="660" on="0"/>
        <pt x="538" y="583" on="1"/>
        <pt x="526" y="550" on="0"/>
      </contour>
    </TTGlyph>
    <TTGlyph name="Euro.smcp" xMin="28" yMin="-12" xMax="475" yMax="555">
      <contour>
        <pt x="439" y="448" on="1"/>
        <pt x="372" y="490" on="0"/>
        <pt x="306" y="490" on="1"/>
        <pt x="199" y="490" on="0"/>
        <pt x="175" y="360" on="1"/>
        <pt x="367" y="360" on="1"/>
        <pt x="370" y="346" on="0"/>
        <pt x="370" y="320" on="0"/>
        <pt x="367" y="306" on="1"/>
        <pt x="169" y="306" on="1"/>
        <pt x="168" y="295" on="0"/>
        <pt x="168" y="271" on="1"/>
        <pt x="168" y="239" on="1"/>
        <pt x="367" y="239" on="1"/>
        <pt x="370" y="224" on="0"/>
        <pt x="370" y="198" on="0"/>
        <pt x="367" y="184" on="1"/>
        <pt x="175" y="184" on="1"/>
        <pt x="198" y="52" on="0"/>
        <pt x="306" y="52" on="1"/>
        <pt x="372" y="52" on="0"/>
        <pt x="439" y="95" on="1"/>
        <pt x="468" y="76" on="0"/>
        <pt x="475" y="47" on="1"/>
        <pt x="398" y="-12" on="0"/>
        <pt x="298" y="-12" on="1"/>
        <pt x="128" y="-12" on="0"/>
        <pt x="98" y="184" on="1"/>
        <pt x="31" y="184" on="1"/>
        <pt x="28" y="193" on="0"/>
        <pt x="28" y="229" on="0"/>
        <pt x="31" y="239" on="1"/>
        <pt x="93" y="239" on="1"/>
        <pt x="92" y="249" on="0"/>
        <pt x="92" y="294" on="0"/>
        <pt x="93" y="306" on="1"/>
        <pt x="31" y="306" on="1"/>
        <pt x="28" y="315" on="0"/>
        <pt x="28" y="351" on="0"/>
        <pt x="31" y="360" on="1"/>
        <pt x="98" y="360" on="1"/>
        <pt x="130" y="555" on="0"/>
        <pt x="298" y="555" on="1"/>
        <pt x="395" y="555" on="0"/>
        <pt x="475" y="496" on="1"/>
        <pt x="468" y="465" on="0"/>
      </contour>
    </TTGlyph>
    <TTGlyph name="F" xMin="99" yMin="-3" xMax="489" yMax="683">
      <contour>
        <pt x="175" y="378" on="1"/>
        <pt x="230" y="379" on="1"/>
        <pt x="435" y="379" on="1"/>
        <pt x="438" y="361" on="0"/>
        <pt x="438" y="330" on="0"/>
        <pt x="435" y="313" on="1"/>
        <pt x="230" y="313" on="1"/>
        <pt x="195" y="313" on="0"/>
        <pt x="175" y="314" on="1"/>
        <pt x="175" y="0" on="1"/>
        <pt x="160" y="-3" on="0"/>
        <pt x="114" y="-3" on="0"/>
        <pt x="99" y="0" on="1"/>
        <pt x="99" y="677" on="1"/>
        <pt x="105" y="683" on="1"/>
        <pt x="484" y="683" on="1"/>
        <pt x="489" y="668" on="0"/>
        <pt x="489" y="651" on="1"/>
        <pt x="489" y="616" on="0"/>
        <pt x="442" y="616" on="1"/>
        <pt x="283" y="616" on="1"/>
        <pt x="204" y="616" on="0"/>
        <pt x="174" y="618" on="1"/>
        <pt x="175" y="478" on="1"/>
      </contour>
    </TTGlyph>
    <TTGlyph name="G" xMin="57" yMin="-12" xMax="567" yMax="695">
      <contour>
        <pt x="355" y="344" on="1"/>
        <pt x="507" y="344" on="1"/>
        <pt x="539" y="344" on="0"/>
        <pt x="567" y="319" on="0"/>
        <pt x="567" y="291" on="1"/>
        <pt x="567" y="32" on="1"/>
        <pt x="460" y="-12" on="0"/>
        <pt x="329" y="-12" on="1"/>
        <pt x="255" y="-12" on="0"/>
        <pt x="145" y="47" on="0"/>
        <pt x="115" y="98" on="1"/>
        <pt x="57" y="198" on="0"/>
        <pt x="57" y="337" on="1"/>
        <pt x="57" y="431" on="0"/>
        <pt x="106" y="573" on="0"/>
        <pt x="147" y="614" on="1"/>
        <pt x="228" y="695" on="0"/>
        <pt x="341" y="695" on="1"/>
        <pt x="402" y="695" on="0"/>
        <pt x="524" y="655" on="0"/>
        <pt x="566" y="620" on="1"/>
        <pt x="558" y="583" on="0"/>
        <pt x="525" y="561" on="1"/>
        <pt x="444" y="626" on="0"/>
        <pt x="336" y="626" on="1"/>
        <pt x="250" y="626" on="0"/>
        <pt x="138" y="488" on="0"/>
        <pt x="138" y="336" on="1"/>
        <pt x="138" y="55" on="0"/>
        <pt x="343" y="55" on="1"/>
        <pt x="423" y="55" on="0"/>
        <pt x="492" y="78" on="1"/>
        <pt x="492" y="214" on="1"/>
        <pt x="492" y="258" on="0"/>
        <pt x="493" y="275" on="1"/>
        <pt x="384" y="275" on="1"/>
        <pt x="349" y="275" on="0"/>
        <pt x="349" y="311" on="1"/>
        <pt x="349" y="324" on="0"/>
      </contour>
    </TTGlyph>
    <TTGlyph name="H" xMin="99" yMin="-3" xMax="569" yMax="686">
      <contour>
        <pt x="494" y="386" on="1"/>
        <pt x="493" y="460" on="1"/>
        <pt x="493" y="683" on="1"/>
        <pt x="506" y="686" on="0"/>
        <pt x="552" y="686" on="0"/>
        <pt x="569" y="683" on="1"/>
        <pt x="569" y="0" on="1"/>
        <pt x="552" y="-3" on="0"/>
        <pt x="508" y="-3" on="0"/>
        <pt x="493" y="0" on="1"/>
        <pt x="493" y="246" on="1"/>
        <pt x="494" y="320" on="1"/>
        <pt x="433" y="319" on="1"/>
        <pt x="235" y="319" on="1"/>
        <pt x="174" y="320" on="1"/>
        <pt x="175" y="246" on="1"/>
        <pt x="175" y="0" on="1"/>
        <pt x="160" y="-3" on="0"/>
        <pt x="114" y="-3" on="0"/>
        <pt x="99" y="0" on="1"/>
        <pt x="99" y="683" on="1"/>
        <pt x="114" y="686" on="0"/>
        <pt x="160" y="686" on="0"/>
        <pt x="175" y="683" on="1"/>
        <pt x="175" y="460" on="1"/>
        <pt x="174" y="386" on="1"/>
        <pt x="235" y="387" on="1"/>
        <pt x="433" y="387" on="1"/>
      </contour>
    </TTGlyph>
    <TTGlyph name="Hbar" xMin="26" yMin="-3" xMax="652" yMax="686">
      <contour>
        <pt x="179" y="320" on="1"/>
        <pt x="180" y="246" on="1"/>
        <pt x="180" y="0" on="1"/>
        <pt x="165" y="-3" on="0"/>
        <pt x="119" y="-3" on="0"/>
        <pt x="104" y="0" on="1"/>
        <pt x="104" y="497" on="1"/>
        <pt x="29" y="497" on="1"/>
        <pt x="26" y="512" on="0"/>
        <pt x="26" y="547" on="0"/>
        <pt x="29" y="562" on="1"/>
        <pt x="104" y="562" on="1"/>
        <pt x="104" y="683" on="1"/>
        <pt x="119" y="686" on="0"/>
        <pt x="165" y="686" on="0"/>
        <pt x="180" y="683" on="1"/>
        <pt x="180" y="562" on="1"/>
        <pt x="497" y="562" on="1"/>
        <pt x="497" y="683" on="1"/>
        <pt x="512" y="686" on="0"/>
        <pt x="558" y="686" on="0"/>
        <pt x="574" y="683" on="1"/>
        <pt x="574" y="562" on="1"/>
        <pt x="649" y="562" on="1"/>
        <pt x="652" y="547" on="0"/>
        <pt x="652" y="512" on="0"/>
        <pt x="649" y="497" on="1"/>
        <pt x="574" y="497" on="1"/>
        <pt x="574" y="0" on="1"/>
        <pt x="558" y="-3" on="0"/>
        <pt x="512" y="-3" on="0"/>
        <pt x="497" y="0" on="1"/>
        <pt x="497" y="246" on="1"/>
        <pt x="498" y="320" on="1"/>
        <pt x="438" y="319" on="1"/>
        <pt x="240" y="319" on="1"/>
      </contour>
      <contour>
        <pt x="179" y="386" on="1"/>
        <pt x="240" y="387" on="1"/>
        <pt x="438" y="387" on="1"/>
        <pt x="498" y="386" on="1"/>
        <pt x="497" y="460" on="1"/>
        <pt x="497" y="497" on="1"/>
        <pt x="180" y="497" on="1"/>
        <pt x="180" y="460" on="1"/>
      </contour>
    </TTGlyph>
    <TTGlyph name="I" xMin="103" yMin="-3" xMax="179" yMax="686">
      <contour>
        <pt x="103" y="0" on="1"/>
        <pt x="103" y="683" on="1"/>
        <pt x="117" y="686" on="0"/>
        <pt x="162" y="686" on="0"/>
        <pt x="179" y="683" on="1"/>
        <pt x="179" y="0" on="1"/>
        <pt x="162" y="-3" on="0"/>
        <pt x="117" y="-3" on="0"/>
      </contour>
    </TTGlyph>
    <TTGlyph name="IJ" xMin="103" yMin="-10" xMax="633" yMax="686">
      <component glyphName="I" x="0" y="0" flags="0x4"/>
      <component glyphName="J" x="282" y="0" flags="0x4"/>
    </TTGlyph>
    <TTGlyph name="Iacute" xMin="54" yMin="-3" xMax="283" yMax="882">
      <component glyphName="I" x="0" y="0" flags="0x204"/>
      <component glyphName="acute.cap" x="-57" y="0" flags="0x4"/>
    </TTGlyph>
    <TTGlyph name="Icircumflex" xMin="-5" yMin="-3" xMax="288" yMax="882">
      <component glyphName="I" x="0" y="0" flags="0x204"/>
      <component glyphName="circumflex.cap" x="-57" y="0" flags="0x4"/>
    </TTGlyph>
    <TTGlyph name="Idieresis" xMin="-5" yMin="-3" xMax="289" yMax="826">
      <component glyphName="I" x="0" y="0" flags="0x204"/>
      <component glyphName="dieresis.cap" x="-57" y="0" flags="0x4"/>
    </TTGlyph>
    <TTGlyph name="Igrave" xMin="16" yMin="-3" xMax="245" yMax="882">
      <component glyphName="I" x="0" y="0" flags="0x204"/>
      <component glyphName="grave.cap" x="-57" y="0" flags="0x4"/>
    </TTGlyph>
    <TTGlyph name="Itilde" xMin="-28" yMin="-3" xMax="312" yMax="860">
      <component glyphName="I" x="0" y="0" flags="0x204"/>
      <component glyphName="tilde.cap" x="-57" y="0" flags="0x4"/>
    </TTGlyph>
    <TTGlyph name="J" xMin="10" yMin="-10" xMax="351" yMax="686">
      <contour>
        <pt x="41" y="90" on="1"/>
        <pt x="96" y="56" on="0"/>
        <pt x="159" y="56" on="1"/>
        <pt x="223" y="56" on="0"/>
        <pt x="274" y="133" on="0"/>
        <pt x="274" y="226" on="1"/>
        <pt x="274" y="683" on="1"/>
        <pt x="290" y="686" on="0"/>
        <pt x="313" y="686" on="1"/>
        <pt x="336" y="686" on="0"/>
        <pt x="351" y="683" on="1"/>
        <pt x="351" y="241" on="1"/>
        <pt x="351" y="193" on="0"/>
        <pt x="343" y="126" on="0"/>
        <pt x="328" y="79" on="0"/>
        <pt x="310" y="49" on="0"/>
        <pt x="300" y="38" on="1"/>
        <pt x="256" y="-10" on="0"/>
        <pt x="166" y="-10" on="1"/>
        <pt x="78" y="-10" on="0"/>
        <pt x="10" y="31" on="1"/>
        <pt x="17" y="65" on="0"/>
      </contour>
    </TTGlyph>
    <TTGlyph name="Jcircumflex" xMin="10" yMin="-10" xMax="460" yMax="882">
      <component glyphName="J" x="0" y="0" flags="0x204"/>
      <component glyphName="circumflex.cap" x="115" y="0" flags="0x4"/>
    </TTGlyph>
    <TTGlyph name="K" xMin="99" yMin="-5" xMax="561" yMax="686">
      <contour>
        <pt x="561" y="21" on="1"/>
        <pt x="544" y="-5" on="0"/>
        <pt x="485" y="-5" on="0"/>
        <pt x="463" y="18" on="0"/>
        <pt x="453" y="45" on="1"/>
        <pt x="389" y="208" on="1"/>
        <pt x="365" y="269" on="0"/>
        <pt x="306" y="318" on="0"/>
        <pt x="217" y="318" on="0"/>
        <pt x="175" y="316" on="1"/>
        <pt x="175" y="0" on="1"/>
        <pt x="160" y="-3" on="0"/>
        <pt x="114" y="-3" on="0"/>
        <pt x="99" y="0" on="1"/>
        <pt x="99" y="683" on="1"/>
        <pt x="114" y="686" on="0"/>
        <pt x="160" y="686" on="0"/>
        <pt x="175" y="683" on="1"/>
        <pt x="175" y="384" on="1"/>
        <pt x="248" y="386" on="1"/>
        <pt x="267" y="386" on="0"/>
        <pt x="282" y="410" on="1"/>
        <pt x="429" y="648" on="1"/>
        <pt x="442" y="669" on="0"/>
        <pt x="462" y="685" on="0"/>
        <pt x="494" y="685" on="0"/>
        <pt x="524" y="683" on="1"/>
        <pt x="530" y="675" on="1"/>
        <pt x="362" y="403" on="1"/>
        <pt x="347" y="379" on="0"/>
        <pt x="331" y="366" on="1"/>
        <pt x="379" y="359" on="0"/>
        <pt x="433" y="300" on="0"/>
        <pt x="459" y="238" on="1"/>
        <pt x="520" y="82" on="1"/>
        <pt x="537" y="40" on="0"/>
      </contour>
    </TTGlyph>
    <TTGlyph name="Kcommaaccent" xMin="99" yMin="-248" xMax="561" yMax="686">
      <component glyphName="K" x="0" y="0" flags="0x204"/>
      <component glyphName="commaaccent.cap" x="105" y="0" flags="0x4"/>
    </TTGlyph>
    <TTGlyph name="L" xMin="99" yMin="0" xMax="475" yMax="686">
      <contour>
        <pt x="262" y="68" on="1"/>
        <pt x="475" y="68" on="1"/>
        <pt x="475" y="46" on="0"/>
        <pt x="472" y="35" on="1"/>
        <pt x="466" y="0" on="0"/>
        <pt x="423" y="0" on="1"/>
        <pt x="143" y="0" on="1"/>
        <pt x="124" y="0" on="0"/>
        <pt x="99" y="27" on="0"/>
        <pt x="99" y="51" on="1"/>
        <pt x="99" y="680" on="1"/>
        <pt x="105" y="686" on="1"/>
        <pt x="135" y="686" on="1"/>
        <pt x="159" y="686" on="0"/>
        <pt x="175" y="663" on="0"/>
        <pt x="175" y="636" on="1"/>
        <pt x="175" y="65" on="1"/>
        <pt x="220" y="68" on="0"/>
      </contour>
    </TTGlyph>
    <TTGlyph name="Ldot" xMin="99" yMin="0" xMax="475" yMax="686">
      <component glyphName="L" x="0" y="0" flags="0x204"/>
      <component glyphName="dotaccent.alt" x="188" y="0" flags="0x4"/>
    </TTGlyph>
    <TTGlyph name="Lslash" xMin="21" yMin="0" xMax="479" yMax="686">
      <contour>
        <pt x="180" y="636" on="1"/>
        <pt x="180" y="385" on="1"/>
        <pt x="368" y="447" on="1"/>
        <pt x="373" y="444" on="1"/>
        <pt x="381" y="414" on="0"/>
        <pt x="374" y="382" on="1"/>
        <pt x="180" y="319" on="1"/>
        <pt x="180" y="65" on="1"/>
        <pt x="225" y="68" on="0"/>
        <pt x="266" y="68" on="1"/>
        <pt x="479" y="68" on="1"/>
        <pt x="479" y="46" on="0"/>
        <pt x="477" y="35" on="1"/>
        <pt x="471" y="0" on="0"/>
        <pt x="428" y="0" on="1"/>
        <pt x="148" y="0" on="1"/>
        <pt x="128" y="0" on="0"/>
        <pt x="103" y="26" on="0"/>
        <pt x="103" y="51" on="1"/>
        <pt x="103" y="297" on="1"/>
        <pt x="35" y="274" on="1"/>
        <pt x="30" y="277" on="1"/>
        <pt x="21" y="306" on="0"/>
        <pt x="28" y="338" on="1"/>
        <pt x="103" y="363" on="1"/>
        <pt x="103" y="680" on="1"/>
        <pt x="109" y="686" on="1"/>
        <pt x="140" y="686" on="1"/>
        <pt x="164" y="686" on="0"/>
        <pt x="180" y="663" on="0"/>
      </contour>
    </TTGlyph>
    <TTGlyph name="M" xMin="84" yMin="-4" xMax="709" yMax="686">
      <contour>
        <pt x="84" y="1" on="1"/>
        <pt x="137" y="683" on="1"/>
        <pt x="156" y="686" on="0"/>
        <pt x="221" y="686" on="0"/>
        <pt x="238" y="683" on="1"/>
        <pt x="353" y="332" on="1"/>
        <pt x="362" y="307" on="0"/>
        <pt x="392" y="197" on="0"/>
        <pt x="394" y="186" on="1"/>
        <pt x="399" y="186" on="1"/>
        <pt x="413" y="255" on="0"/>
        <pt x="440" y="332" on="1"/>
        <pt x="555" y="683" on="1"/>
        <pt x="576" y="686" on="0"/>
        <pt x="635" y="686" on="0"/>
        <pt x="656" y="683" on="1"/>
        <pt x="709" y="1" on="1"/>
        <pt x="691" y="-4" on="0"/>
        <pt x="652" y="-4" on="0"/>
        <pt x="635" y="-1" on="1"/>
        <pt x="606" y="413" on="1"/>
        <pt x="603" y="458" on="0"/>
        <pt x="598" y="602" on="1"/>
        <pt x="593" y="602" on="1"/>
        <pt x="435" y="107" on="1"/>
        <pt x="411" y="103" on="0"/>
        <pt x="379" y="103" on="0"/>
        <pt x="359" y="107" on="1"/>
        <pt x="200" y="602" on="1"/>
        <pt x="195" y="602" on="1"/>
        <pt x="194" y="577" on="0"/>
        <pt x="189" y="438" on="0"/>
        <pt x="187" y="413" on="1"/>
        <pt x="159" y="-1" on="1"/>
        <pt x="141" y="-4" on="0"/>
        <pt x="101" y="-4" on="0"/>
      </contour>
    </TTGlyph>
    <TTGlyph name="N" xMin="99" yMin="-3" xMax="573" yMax="686">
      <contour>
        <pt x="567" y="686" on="1"/>
        <pt x="573" y="681" on="1"/>
        <pt x="573" y="0" on="1"/>
        <pt x="554" y="-3" on="0"/>
        <pt x="498" y="-3" on="0"/>
        <pt x="478" y="0" on="1"/>
        <pt x="235" y="453" on="1"/>
        <pt x="205" y="509" on="0"/>
        <pt x="167" y="591" on="1"/>
        <pt x="164" y="591" on="1"/>
        <pt x="170" y="405" on="0"/>
        <pt x="170" y="375" on="1"/>
        <pt x="170" y="0" on="1"/>
        <pt x="149" y="-3" on="0"/>
        <pt x="117" y="-3" on="0"/>
        <pt x="99" y="0" on="1"/>
        <pt x="99" y="683" on="1"/>
        <pt x="117" y="686" on="0"/>
        <pt x="172" y="686" on="0"/>
        <pt x="192" y="683" on="1"/>
        <pt x="435" y="230" on="1"/>
        <pt x="459" y="187" on="0"/>
        <pt x="505" y="89" on="1"/>
        <pt x="508" y="89" on="1"/>
        <pt x="501" y="217" on="0"/>
        <pt x="501" y="317" on="1"/>
        <pt x="501" y="636" on="1"/>
        <pt x="501" y="663" on="0"/>
        <pt x="517" y="686" on="0"/>
        <pt x="541" y="686" on="1"/>
      </contour>
    </TTGlyph>
    <TTGlyph name="Nacute" xMin="99" yMin="-3" xMax="573" yMax="882">
      <component glyphName="N" x="0" y="0" flags="0x204"/>
      <component glyphName="acute.cap" x="139" y="0" flags="0x4"/>
    </TTGlyph>
    <TTGlyph name="Ncaron" xMin="99" yMin="-3" xMax="573" yMax="883">
      <component glyphName="N" x="0" y="0" flags="0x204"/>
      <component glyphName="caron.cap" x="140" y="0" flags="0x4"/>
    </TTGlyph>
    <TTGlyph name="Ntilde" xMin="99" yMin="-3" xMax="573" yMax="860">
      <component glyphName="N" x="0" y="0" flags="0x204"/>
      <component glyphName="tilde.cap" x="139" y="0" flags="0x4"/>
    </TTGlyph>
    <TTGlyph name="O" xMin="57" yMin="-12" xMax="596" yMax="695">
      <contour>
        <pt x="146" y="443" on="1"/>
        <pt x="141" y="419" on="0"/>
        <pt x="138" y="368" on="0"/>
        <pt x="138" y="342" on="1"/>
        <pt x="138" y="297" on="0"/>
        <pt x="152" y="196" on="0"/>
        <pt x="192" y="109" on="0"/>
        <pt x="266" y="52" on="0"/>
        <pt x="326" y="52" on="1"/>
        <pt x="366" y="52" on="0"/>
        <pt x="426" y="80" on="0"/>
        <pt x="468" y="125" on="0"/>
        <pt x="493" y="185" on="0"/>
        <pt x="508" y="250" on="0"/>
        <pt x="514" y="314" on="0"/>
        <pt x="514" y="342" on="1"/>
        <pt x="514" y="386" on="0"/>
        <pt x="500" y="488" on="0"/>
        <pt x="459" y="574" on="0"/>
        <pt x="386" y="631" on="0"/>
        <pt x="326" y="631" on="1"/>
        <pt x="281" y="631" on="0"/>
        <pt x="217" y="598" on="0"/>
        <pt x="176" y="545" on="0"/>
        <pt x="153" y="478" on="0"/>
      </contour>
      <contour>
        <pt x="163" y="46" on="1"/>
        <pt x="57" y="140" on="0"/>
        <pt x="57" y="341" on="1"/>
        <pt x="57" y="420" on="0"/>
        <pt x="92" y="551" on="0"/>
        <pt x="160" y="644" on="0"/>
        <pt x="261" y="695" on="0"/>
        <pt x="326" y="695" on="1"/>
        <pt x="395" y="695" on="0"/>
        <pt x="497" y="638" on="0"/>
        <pt x="564" y="541" on="0"/>
        <pt x="596" y="413" on="0"/>
        <pt x="596" y="342" on="1"/>
        <pt x="596" y="263" on="0"/>
        <pt x="561" y="132" on="0"/>
        <pt x="493" y="39" on="0"/>
        <pt x="392" y="-12" on="0"/>
        <pt x="326" y="-12" on="1"/>
        <pt x="227" y="-12" on="0"/>
      </contour>
    </TTGlyph>
    <TTGlyph name="OE" xMin="57" yMin="-12" xMax="831" yMax="695">
      <contour>
        <pt x="496" y="103" on="1"/>
        <pt x="495" y="65" on="1"/>
        <pt x="529" y="67" on="0"/>
        <pt x="557" y="67" on="1"/>
        <pt x="831" y="67" on="1"/>
        <pt x="831" y="46" on="0"/>
        <pt x="828" y="35" on="1"/>
        <pt x="822" y="0" on="0"/>
        <pt x="779" y="0" on="1"/>
        <pt x="449" y="0" on="1"/>
        <pt x="344" y="-12" on="0"/>
        <pt x="327" y="-12" on="1"/>
        <pt x="228" y="-12" on="0"/>
        <pt x="163" y="46" on="1"/>
        <pt x="57" y="141" on="0"/>
        <pt x="57" y="342" on="1"/>
        <pt x="57" y="431" on="0"/>
        <pt x="109" y="589" on="0"/>
        <pt x="163" y="637" on="1"/>
        <pt x="228" y="695" on="0"/>
        <pt x="327" y="695" on="1"/>
        <pt x="341" y="695" on="0"/>
        <pt x="449" y="683" on="1"/>
        <pt x="814" y="683" on="1"/>
        <pt x="816" y="671" on="0"/>
        <pt x="816" y="632" on="0"/>
        <pt x="811" y="617" on="1"/>
        <pt x="495" y="617" on="1"/>
        <pt x="496" y="555" on="1"/>
        <pt x="496" y="378" on="1"/>
        <pt x="556" y="379" on="1"/>
        <pt x="763" y="379" on="1"/>
        <pt x="766" y="361" on="0"/>
        <pt x="766" y="330" on="0"/>
        <pt x="763" y="313" on="1"/>
        <pt x="556" y="313" on="1"/>
        <pt x="518" y="313" on="0"/>
        <pt x="496" y="314" on="1"/>
      </contour>
      <contour>
        <pt x="422" y="62" on="1"/>
        <pt x="422" y="620" on="1"/>
        <pt x="367" y="629" on="0"/>
        <pt x="326" y="632" on="0"/>
        <pt x="280" y="628" on="0"/>
        <pt x="215" y="595" on="0"/>
        <pt x="174" y="539" on="0"/>
        <pt x="161" y="500" on="1"/>
        <pt x="138" y="430" on="0"/>
        <pt x="138" y="359" on="1"/>
        <pt x="138" y="288" on="0"/>
        <pt x="155" y="194" on="0"/>
        <pt x="194" y="104" on="0"/>
        <pt x="272" y="52" on="0"/>
        <pt x="323" y="52" on="1"/>
        <pt x="374" y="52" on="0"/>
      </contour>
    </TTGlyph>
    <TTGlyph name="Oacute" xMin="57" yMin="-12" xMax="596" yMax="882">
      <component glyphName="O" x="0" y="0" flags="0x204"/>
      <component glyphName="acute.cap" x="127" y="0" flags="0x4"/>
    </TTGlyph>
    <TTGlyph name="Ocircumflex" xMin="57" yMin="-12" xMax="596" yMax="882">
      <component glyphName="O" x="0" y="0" flags="0x204"/>
      <component glyphName="circumflex.cap" x="127" y="0" flags="0x4"/>
    </TTGlyph>
    <TTGlyph name="Odieresis" xMin="57" yMin="-12" xMax="596" yMax="826">
      <component glyphName="O" x="0" y="0" flags="0x204"/>
      <component glyphName="dieresis.cap" x="127" y="0" flags="0x4"/>
    </TTGlyph>
    <TTGlyph name="Ograve" xMin="57" yMin="-12" xMax="596" yMax="882">
      <component glyphName="O" x="0" y="0" flags="0x204"/>
      <component glyphName="grave.cap" x="127" y="0" flags="0x4"/>
    </TTGlyph>
    <TTGlyph name="Oslash" xMin="57" yMin="-42" xMax="596" yMax="725">
      <contour>
        <pt x="57" y="342" on="1"/>
        <pt x="57" y="413" on="0"/>
        <pt x="90" y="541" on="0"/>
        <pt x="155" y="638" on="0"/>
        <pt x="252" y="695" on="0"/>
        <pt x="316" y="695" on="1"/>
        <pt x="404" y="695" on="0"/>
        <pt x="459" y="660" on="1"/>
        <pt x="496" y="725" on="1"/>
        <pt x="531" y="720" on="0"/>
        <pt x="550" y="696" on="1"/>
        <pt x="508" y="619" on="1"/>
        <pt x="596" y="524" on="0"/>
        <pt x="596" y="332" on="1"/>
        <pt x="596" y="258" on="0"/>
        <pt x="561" y="132" on="0"/>
        <pt x="493" y="40" on="0"/>
        <pt x="392" y="-12" on="0"/>
        <pt x="326" y="-12" on="1"/>
        <pt x="248" y="-12" on="0"/>
        <pt x="193" y="23" on="1"/>
        <pt x="157" y="-42" on="1"/>
        <pt x="122" y="-38" on="0"/>
        <pt x="103" y="-12" on="1"/>
        <pt x="145" y="63" on="1"/>
        <pt x="57" y="160" on="0"/>
      </contour>
      <contour>
        <pt x="183" y="133" on="1"/>
        <pt x="426" y="600" on="1"/>
        <pt x="385" y="631" on="0"/>
        <pt x="328" y="631" on="1"/>
        <pt x="274" y="631" on="0"/>
        <pt x="200" y="584" on="0"/>
        <pt x="156" y="502" on="0"/>
        <pt x="137" y="392" on="0"/>
        <pt x="137" y="330" on="1"/>
        <pt x="137" y="209" on="0"/>
      </contour>
      <contour>
        <pt x="515" y="342" on="1"/>
        <pt x="515" y="474" on="0"/>
        <pt x="470" y="549" on="1"/>
        <pt x="226" y="83" on="1"/>
        <pt x="267" y="52" on="0"/>
        <pt x="319" y="52" on="1"/>
        <pt x="377" y="52" on="0"/>
        <pt x="453" y="101" on="0"/>
        <pt x="497" y="182" on="0"/>
        <pt x="515" y="287" on="0"/>
      </contour>
    </TTGlyph>
    <TTGlyph name="Otilde" xMin="57" yMin="-12" xMax="596" yMax="860">
      <component glyphName="O" x="0" y="0" flags="0x204"/>
      <component glyphName="tilde.cap" x="128" y="0" flags="0x4"/>
    </TTGlyph>
    <TTGlyph name="P" xMin="99" yMin="-3" xMax="516" yMax="686">
      <contour>
        <pt x="105" y="683" on="1"/>
        <pt x="296" y="686" on="1"/>
        <pt x="345" y="686" on="0"/>
        <pt x="427" y="658" on="0"/>
        <pt x="484" y="603" on="0"/>
        <pt x="516" y="523" on="0"/>
        <pt x="516" y="472" on="1"/>
        <pt x="516" y="369" on="0"/>
        <pt x="396" y="257" on="0"/>
        <pt x="296" y="257" on="1"/>
        <pt x="175" y="257" on="1"/>
        <pt x="175" y="0" on="1"/>
        <pt x="160" y="-3" on="0"/>
        <pt x="137" y="-3" on="1"/>
        <pt x="114" y="-3" on="0"/>
        <pt x="99" y="0" on="1"/>
        <pt x="99" y="677" on="1"/>
      </contour>
      <contour>
        <pt x="175" y="623" on="1"/>
        <pt x="175" y="320" on="1"/>
        <pt x="195" y="321" on="0"/>
        <pt x="256" y="321" on="0"/>
        <pt x="298" y="321" on="1"/>
        <pt x="336" y="321" on="0"/>
        <pt x="389" y="346" on="0"/>
        <pt x="421" y="388" on="0"/>
        <pt x="435" y="444" on="0"/>
        <pt x="435" y="475" on="1"/>
        <pt x="435" y="503" on="0"/>
        <pt x="421" y="557" on="0"/>
        <pt x="388" y="597" on="0"/>
        <pt x="333" y="622" on="0"/>
        <pt x="292" y="622" on="1"/>
        <pt x="252" y="622" on="0"/>
        <pt x="194" y="622" on="0"/>
      </contour>
    </TTGlyph>
    <TTGlyph name="Q" xMin="57" yMin="-118" xMax="585" yMax="695">
      <contour>
        <pt x="462" y="-98" on="1"/>
        <pt x="340" y="-11" on="1"/>
        <pt x="326" y="-12" on="1"/>
        <pt x="191" y="-12" on="0"/>
        <pt x="57" y="174" on="0"/>
        <pt x="57" y="341" on="1"/>
        <pt x="57" y="424" on="0"/>
        <pt x="90" y="555" on="0"/>
        <pt x="156" y="647" on="0"/>
        <pt x="255" y="695" on="0"/>
        <pt x="320" y="695" on="1"/>
        <pt x="386" y="695" on="0"/>
        <pt x="485" y="646" on="0"/>
        <pt x="551" y="555" on="0"/>
        <pt x="585" y="425" on="0"/>
        <pt x="585" y="344" on="1"/>
        <pt x="585" y="281" on="0"/>
        <pt x="564" y="172" on="0"/>
        <pt x="524" y="86" on="0"/>
        <pt x="465" y="27" on="0"/>
        <pt x="430" y="14" on="1"/>
        <pt x="452" y="-1" on="1"/>
        <pt x="477" y="-19" on="0"/>
        <pt x="513" y="-41" on="0"/>
        <pt x="541" y="-55" on="0"/>
        <pt x="565" y="-60" on="0"/>
        <pt x="579" y="-61" on="1"/>
        <pt x="577" y="-87" on="0"/>
        <pt x="545" y="-118" on="0"/>
        <pt x="520" y="-118" on="1"/>
        <pt x="491" y="-118" on="0"/>
      </contour>
      <contour>
        <pt x="320" y="631" on="1"/>
        <pt x="138" y="631" on="0"/>
        <pt x="138" y="343" on="1"/>
        <pt x="138" y="55" on="0"/>
        <pt x="320" y="55" on="1"/>
        <pt x="503" y="55" on="0"/>
        <pt x="503" y="343" on="1"/>
        <pt x="503" y="631" on="0"/>
      </contour>
    </TTGlyph>
    <TTGlyph name="R" xMin="99" yMin="-6" xMax="555" yMax="686">
      <contour>
        <pt x="105" y="683" on="1"/>
        <pt x="307" y="686" on="1"/>
        <pt x="410" y="686" on="0"/>
        <pt x="524" y="582" on="0"/>
        <pt x="524" y="488" on="1"/>
        <pt x="524" y="421" on="0"/>
        <pt x="454" y="324" on="0"/>
        <pt x="393" y="306" on="1"/>
        <pt x="434" y="293" on="0"/>
        <pt x="460" y="225" on="1"/>
        <pt x="512" y="90" on="1"/>
        <pt x="523" y="62" on="0"/>
        <pt x="545" y="27" on="0"/>
        <pt x="555" y="19" on="1"/>
        <pt x="539" y="-6" on="0"/>
        <pt x="502" y="-6" on="1"/>
        <pt x="481" y="-6" on="0"/>
        <pt x="458" y="16" on="0"/>
        <pt x="447" y="44" on="1"/>
        <pt x="389" y="196" on="1"/>
        <pt x="372" y="241" on="0"/>
        <pt x="325" y="288" on="0"/>
        <pt x="279" y="288" on="1"/>
        <pt x="175" y="288" on="1"/>
        <pt x="175" y="0" on="1"/>
        <pt x="157" y="-3" on="0"/>
        <pt x="136" y="-3" on="1"/>
        <pt x="114" y="-3" on="0"/>
        <pt x="99" y="0" on="1"/>
        <pt x="99" y="677" on="1"/>
      </contour>
      <contour>
        <pt x="175" y="623" on="1"/>
        <pt x="175" y="352" on="1"/>
        <pt x="196" y="353" on="0"/>
        <pt x="257" y="354" on="0"/>
        <pt x="299" y="354" on="1"/>
        <pt x="341" y="354" on="0"/>
        <pt x="396" y="376" on="0"/>
        <pt x="430" y="412" on="0"/>
        <pt x="444" y="461" on="0"/>
        <pt x="444" y="488" on="1"/>
        <pt x="444" y="516" on="0"/>
        <pt x="430" y="565" on="0"/>
        <pt x="396" y="601" on="0"/>
        <pt x="339" y="622" on="0"/>
        <pt x="296" y="622" on="1"/>
        <pt x="254" y="622" on="0"/>
        <pt x="194" y="622" on="0"/>
      </contour>
    </TTGlyph>
    <TTGlyph name="Racute" xMin="99" yMin="-6" xMax="555" yMax="882">
      <component glyphName="R" x="0" y="0" flags="0x204"/>
      <component glyphName="acute.cap" x="96" y="0" flags="0x4"/>
    </TTGlyph>
    <TTGlyph name="Rcaron" xMin="99" yMin="-6" xMax="555" yMax="883">
      <component glyphName="R" x="0" y="0" flags="0x204"/>
      <component glyphName="caron.cap" x="96" y="0" flags="0x4"/>
    </TTGlyph>
    <TTGlyph name="Rcommaaccent" xMin="99" yMin="-248" xMax="555" yMax="686">
      <component glyphName="R" x="0" y="0" flags="0x204"/>
      <component glyphName="commaaccent.cap" x="106" y="0" flags="0x4"/>
    </TTGlyph>
    <TTGlyph name="S" xMin="39" yMin="-12" xMax="506" yMax="695">
      <contour>
        <pt x="39" y="63" on="1"/>
        <pt x="42" y="100" on="0"/>
        <pt x="74" y="124" on="1"/>
        <pt x="176" y="55" on="0"/>
        <pt x="274" y="55" on="1"/>
        <pt x="345" y="55" on="0"/>
        <pt x="427" y="115" on="0"/>
        <pt x="427" y="167" on="1"/>
        <pt x="427" y="244" on="0"/>
        <pt x="321" y="291" on="1"/>
        <pt x="204" y="342" on="1"/>
        <pt x="69" y="400" on="0"/>
        <pt x="69" y="510" on="1"/>
        <pt x="69" y="548" on="0"/>
        <pt x="101" y="616" on="0"/>
        <pt x="158" y="666" on="0"/>
        <pt x="238" y="695" on="0"/>
        <pt x="287" y="695" on="1"/>
        <pt x="384" y="695" on="0"/>
        <pt x="485" y="647" on="1"/>
        <pt x="485" y="608" on="0"/>
        <pt x="454" y="583" on="1"/>
        <pt x="405" y="608" on="0"/>
        <pt x="322" y="630" on="0"/>
        <pt x="287" y="630" on="1"/>
        <pt x="255" y="630" on="0"/>
        <pt x="204" y="612" on="0"/>
        <pt x="167" y="583" on="0"/>
        <pt x="147" y="544" on="0"/>
        <pt x="147" y="523" on="1"/>
        <pt x="147" y="479" on="0"/>
        <pt x="198" y="430" on="0"/>
        <pt x="244" y="411" on="1"/>
        <pt x="357" y="362" on="1"/>
        <pt x="506" y="297" on="0"/>
        <pt x="506" y="181" on="1"/>
        <pt x="506" y="94" on="0"/>
        <pt x="388" y="-12" on="0"/>
        <pt x="264" y="-12" on="1"/>
        <pt x="142" y="-12" on="0"/>
      </contour>
    </TTGlyph>
    <TTGlyph name="Sacute" xMin="39" yMin="-12" xMax="506" yMax="882">
      <component glyphName="S" x="0" y="0" flags="0x204"/>
      <component glyphName="acute.cap" x="89" y="0" flags="0x4"/>
    </TTGlyph>
    <TTGlyph name="Scaron" xMin="39" yMin="-12" xMax="506" yMax="883">
      <component glyphName="S" x="0" y="0" flags="0x204"/>
      <component glyphName="caron.cap" x="89" y="0" flags="0x4"/>
    </TTGlyph>
    <TTGlyph name="T" xMin="18" yMin="-3" xMax="467" yMax="683">
      <contour>
        <pt x="335" y="617" on="1"/>
        <pt x="280" y="618" on="1"/>
        <pt x="280" y="0" on="1"/>
        <pt x="264" y="-3" on="0"/>
        <pt x="220" y="-3" on="0"/>
        <pt x="203" y="0" on="1"/>
        <pt x="203" y="618" on="1"/>
        <pt x="149" y="617" on="1"/>
        <pt x="21" y="617" on="1"/>
        <pt x="18" y="634" on="0"/>
        <pt x="18" y="665" on="0"/>
        <pt x="21" y="683" on="1"/>
        <pt x="461" y="683" on="1"/>
        <pt x="467" y="670" on="0"/>
        <pt x="467" y="651" on="1"/>
        <pt x="467" y="617" on="0"/>
        <pt x="420" y="617" on="1"/>
      </contour>
    </TTGlyph>
    <TTGlyph name="Tcaron" xMin="18" yMin="-3" xMax="467" yMax="883">
      <component glyphName="T" x="0" y="0" flags="0x204"/>
      <component glyphName="caron.cap" x="42" y="0" flags="0x4"/>
    </TTGlyph>
    <TTGlyph name="Thorn" xMin="99" yMin="-3" xMax="515" yMax="686">
      <contour>
        <pt x="99" y="0" on="1"/>
        <pt x="99" y="683" on="1"/>
        <pt x="114" y="686" on="0"/>
        <pt x="137" y="686" on="1"/>
        <pt x="160" y="686" on="0"/>
        <pt x="175" y="683" on="1"/>
        <pt x="175" y="577" on="1"/>
        <pt x="213" y="578" on="0"/>
        <pt x="272" y="579" on="0"/>
        <pt x="294" y="579" on="1"/>
        <pt x="343" y="579" on="0"/>
        <pt x="425" y="551" on="0"/>
        <pt x="483" y="496" on="0"/>
        <pt x="515" y="416" on="0"/>
        <pt x="515" y="365" on="1"/>
        <pt x="515" y="314" on="0"/>
        <pt x="483" y="234" on="0"/>
        <pt x="425" y="179" on="0"/>
        <pt x="344" y="150" on="0"/>
        <pt x="294" y="150" on="1"/>
        <pt x="175" y="150" on="1"/>
        <pt x="175" y="0" on="1"/>
        <pt x="160" y="-3" on="0"/>
        <pt x="137" y="-3" on="1"/>
        <pt x="114" y="-3" on="0"/>
      </contour>
      <contour>
        <pt x="175" y="214" on="1"/>
        <pt x="296" y="215" on="1"/>
        <pt x="334" y="215" on="0"/>
        <pt x="387" y="240" on="0"/>
        <pt x="419" y="281" on="0"/>
        <pt x="433" y="336" on="0"/>
        <pt x="433" y="368" on="1"/>
        <pt x="433" y="396" on="0"/>
        <pt x="419" y="449" on="0"/>
        <pt x="386" y="490" on="0"/>
        <pt x="333" y="514" on="0"/>
        <pt x="294" y="514" on="1"/>
        <pt x="256" y="514" on="0"/>
        <pt x="196" y="514" on="0"/>
        <pt x="175" y="515" on="1"/>
      </contour>
    </TTGlyph>
    <TTGlyph name="U" xMin="91" yMin="-12" xMax="576" yMax="686">
      <contour>
        <pt x="576" y="683" on="1"/>
        <pt x="576" y="233" on="1"/>
        <pt x="576" y="173" on="0"/>
        <pt x="541" y="82" on="0"/>
        <pt x="478" y="20" on="0"/>
        <pt x="388" y="-12" on="0"/>
        <pt x="333" y="-12" on="1"/>
        <pt x="278" y="-12" on="0"/>
        <pt x="188" y="20" on="0"/>
        <pt x="125" y="82" on="0"/>
        <pt x="91" y="173" on="0"/>
        <pt x="91" y="233" on="1"/>
        <pt x="91" y="680" on="1"/>
        <pt x="97" y="686" on="1"/>
        <pt x="127" y="686" on="1"/>
        <pt x="151" y="686" on="0"/>
        <pt x="167" y="663" on="0"/>
        <pt x="167" y="636" on="1"/>
        <pt x="167" y="234" on="1"/>
        <pt x="167" y="146" on="0"/>
        <pt x="254" y="51" on="0"/>
        <pt x="333" y="51" on="1"/>
        <pt x="412" y="51" on="0"/>
        <pt x="499" y="144" on="0"/>
        <pt x="499" y="234" on="1"/>
        <pt x="499" y="683" on="1"/>
        <pt x="514" y="686" on="0"/>
        <pt x="537" y="686" on="1"/>
        <pt x="559" y="686" on="0"/>
      </contour>
    </TTGlyph>
    <TTGlyph name="Uacute" xMin="91" yMin="-12" xMax="576" yMax="882">
      <component glyphName="U" x="0" y="0" flags="0x204"/>
      <component glyphName="acute.cap" x="134" y="0" flags="0x4"/>
    </TTGlyph>
    <TTGlyph name="Ucircumflex" xMin="91" yMin="-12" xMax="576" yMax="882">
      <component glyphName="U" x="0" y="0" flags="0x204"/>
      <component glyphName="circumflex.cap" x="134" y="0" flags="0x4"/>
    </TTGlyph>
    <TTGlyph name="Udieresis" xMin="91" yMin="-12" xMax="576" yMax="826">
      <component glyphName="U" x="0" y="0" flags="0x204"/>
      <component glyphName="dieresis.cap" x="134" y="0" flags="0x4"/>
    </TTGlyph>
    <TTGlyph name="Ugrave" xMin="91" yMin="-12" xMax="576" yMax="882">
      <component glyphName="U" x="0" y="0" flags="0x204"/>
      <component glyphName="grave.cap" x="134" y="0" flags="0x4"/>
    </TTGlyph>
    <TTGlyph name="Uring" xMin="91" yMin="-12" xMax="576" yMax="882">
      <component glyphName="U" x="0" y="0" flags="0x204"/>
      <component glyphName="ring.cap" x="134" y="0" flags="0x4"/>
    </TTGlyph>
    <TTGlyph name="V" xMin="27" yMin="-4" xMax="536" yMax="689">
      <contour>
        <pt x="290" y="74" on="1"/>
        <pt x="464" y="683" on="1"/>
        <pt x="478" y="686" on="0"/>
        <pt x="516" y="686" on="0"/>
        <pt x="532" y="682" on="1"/>
        <pt x="536" y="676" on="1"/>
        <pt x="332" y="-1" on="1"/>
        <pt x="302" y="-4" on="0"/>
        <pt x="253" y="-4" on="0"/>
        <pt x="228" y="11" on="0"/>
        <pt x="220" y="36" on="1"/>
        <pt x="27" y="677" on="1"/>
        <pt x="53" y="689" on="0"/>
        <pt x="75" y="689" on="1"/>
        <pt x="107" y="689" on="0"/>
        <pt x="117" y="652" on="1"/>
        <pt x="236" y="249" on="1"/>
        <pt x="252" y="196" on="0"/>
        <pt x="282" y="83" on="1"/>
        <pt x="284" y="74" on="0"/>
      </contour>
    </TTGlyph>
    <TTGlyph name="W" xMin="39" yMin="-4" xMax="788" yMax="689">
      <contour>
        <pt x="168" y="38" on="1"/>
        <pt x="39" y="680" on="1"/>
        <pt x="58" y="689" on="0"/>
        <pt x="101" y="689" on="0"/>
        <pt x="118" y="671" on="0"/>
        <pt x="123" y="648" on="1"/>
        <pt x="197" y="265" on="1"/>
        <pt x="231" y="73" on="1"/>
        <pt x="232" y="66" on="0"/>
        <pt x="235" y="63" on="0"/>
        <pt x="240" y="63" on="1"/>
        <pt x="363" y="668" on="1"/>
        <pt x="385" y="671" on="0"/>
        <pt x="447" y="671" on="0"/>
        <pt x="464" y="668" on="1"/>
        <pt x="577" y="73" on="1"/>
        <pt x="579" y="63" on="0"/>
        <pt x="585" y="63" on="1"/>
        <pt x="594" y="113" on="0"/>
        <pt x="624" y="265" on="1"/>
        <pt x="712" y="683" on="1"/>
        <pt x="727" y="686" on="0"/>
        <pt x="769" y="686" on="0"/>
        <pt x="784" y="682" on="1"/>
        <pt x="788" y="677" on="1"/>
        <pt x="639" y="1" on="1"/>
        <pt x="614" y="-4" on="0"/>
        <pt x="547" y="-4" on="0"/>
        <pt x="523" y="13" on="0"/>
        <pt x="519" y="37" on="1"/>
        <pt x="463" y="333" on="1"/>
        <pt x="431" y="504" on="0"/>
        <pt x="416" y="588" on="1"/>
        <pt x="410" y="588" on="1"/>
        <pt x="381" y="429" on="0"/>
        <pt x="360" y="333" on="1"/>
        <pt x="290" y="0" on="1"/>
        <pt x="263" y="-4" on="0"/>
        <pt x="176" y="-4" on="0"/>
      </contour>
    </TTGlyph>
    <TTGlyph name="X" xMin="23" yMin="-6" xMax="548" yMax="689">
      <contour>
        <pt x="452" y="683" on="1"/>
        <pt x="457" y="685" on="0"/>
        <pt x="475" y="687" on="0"/>
        <pt x="484" y="687" on="1"/>
        <pt x="495" y="687" on="0"/>
        <pt x="516" y="684" on="0"/>
        <pt x="523" y="680" on="1"/>
        <pt x="526" y="674" on="1"/>
        <pt x="333" y="362" on="1"/>
        <pt x="548" y="12" on="1"/>
        <pt x="525" y="-6" on="0"/>
        <pt x="501" y="-6" on="1"/>
        <pt x="487" y="-6" on="0"/>
        <pt x="459" y="9" on="0"/>
        <pt x="448" y="26" on="1"/>
        <pt x="281" y="297" on="1"/>
        <pt x="100" y="0" on="1"/>
        <pt x="94" y="-2" on="0"/>
        <pt x="77" y="-4" on="0"/>
        <pt x="67" y="-4" on="1"/>
        <pt x="56" y="-4" on="0"/>
        <pt x="34" y="-1" on="0"/>
        <pt x="26" y="3" on="1"/>
        <pt x="23" y="9" on="1"/>
        <pt x="242" y="360" on="1"/>
        <pt x="51" y="671" on="1"/>
        <pt x="62" y="679" on="0"/>
        <pt x="87" y="689" on="0"/>
        <pt x="100" y="689" on="1"/>
        <pt x="131" y="689" on="0"/>
        <pt x="151" y="657" on="1"/>
        <pt x="294" y="425" on="1"/>
      </contour>
    </TTGlyph>
    <TTGlyph name="Y" xMin="15" yMin="-3" xMax="468" yMax="690">
      <contour>
        <pt x="290" y="421" on="1"/>
        <pt x="394" y="683" on="1"/>
        <pt x="402" y="685" on="0"/>
        <pt x="419" y="687" on="0"/>
        <pt x="428" y="687" on="1"/>
        <pt x="445" y="687" on="0"/>
        <pt x="465" y="682" on="1"/>
        <pt x="468" y="676" on="1"/>
        <pt x="280" y="222" on="1"/>
        <pt x="280" y="0" on="1"/>
        <pt x="263" y="-3" on="0"/>
        <pt x="241" y="-3" on="1"/>
        <pt x="218" y="-3" on="0"/>
        <pt x="203" y="0" on="1"/>
        <pt x="203" y="225" on="1"/>
        <pt x="15" y="674" on="1"/>
        <pt x="27" y="681" on="0"/>
        <pt x="51" y="690" on="0"/>
        <pt x="62" y="690" on="1"/>
        <pt x="76" y="690" on="0"/>
        <pt x="99" y="673" on="0"/>
        <pt x="107" y="653" on="1"/>
        <pt x="203" y="421" on="1"/>
        <pt x="210" y="404" on="0"/>
        <pt x="231" y="348" on="0"/>
        <pt x="244" y="306" on="1"/>
        <pt x="249" y="306" on="1"/>
        <pt x="251" y="315" on="0"/>
        <pt x="272" y="372" on="0"/>
      </contour>
    </TTGlyph>
    <TTGlyph name="Yacute" xMin="15" yMin="-3" xMax="468" yMax="882">
      <component glyphName="Y" x="0" y="0" flags="0x204"/>
      <component glyphName="acute.cap" x="45" y="0" flags="0x4"/>
    </TTGlyph>
    <TTGlyph name="Ydieresis" xMin="15" yMin="-3" xMax="468" yMax="826">
      <component glyphName="Y" x="0" y="0" flags="0x204"/>
      <component glyphName="dieresis.cap" x="45" y="0" flags="0x4"/>
    </TTGlyph>
    <TTGlyph name="Z" xMin="53" yMin="0" xMax="499" yMax="683">
      <contour>
        <pt x="65" y="90" on="1"/>
        <pt x="334" y="509" on="1"/>
        <pt x="349" y="532" on="0"/>
        <pt x="411" y="619" on="1"/>
        <pt x="408" y="622" on="1"/>
        <pt x="374" y="615" on="0"/>
        <pt x="251" y="615" on="1"/>
        <pt x="81" y="615" on="1"/>
        <pt x="78" y="628" on="0"/>
        <pt x="78" y="662" on="0"/>
        <pt x="84" y="683" on="1"/>
        <pt x="480" y="683" on="1"/>
        <pt x="491" y="644" on="0"/>
        <pt x="491" y="616" on="0"/>
        <pt x="479" y="595" on="1"/>
        <pt x="212" y="181" on="1"/>
        <pt x="203" y="166" on="0"/>
        <pt x="133" y="67" on="1"/>
        <pt x="136" y="64" on="1"/>
        <pt x="188" y="69" on="0"/>
        <pt x="241" y="69" on="1"/>
        <pt x="372" y="69" on="1"/>
        <pt x="457" y="69" on="0"/>
        <pt x="492" y="85" on="1"/>
        <pt x="499" y="64" on="0"/>
        <pt x="499" y="45" on="1"/>
        <pt x="499" y="0" on="0"/>
        <pt x="443" y="0" on="1"/>
        <pt x="64" y="0" on="1"/>
        <pt x="53" y="36" on="0"/>
        <pt x="53" y="71" on="0"/>
      </contour>
    </TTGlyph>
    <TTGlyph name="Zacute" xMin="53" yMin="0" xMax="499" yMax="882">
      <component glyphName="Z" x="0" y="0" flags="0x204"/>
      <component glyphName="acute.cap" x="82" y="0" flags="0x4"/>
    </TTGlyph>
    <TTGlyph name="Zcaron" xMin="53" yMin="0" xMax="499" yMax="883">
      <component glyphName="Z" x="0" y="0" flags="0x204"/>
      <component glyphName="caron.cap" x="82" y="0" flags="0x4"/>
    </TTGlyph>
    <TTGlyph name="Zdotaccent" xMin="53" yMin="0" xMax="499" yMax="839">
      <component glyphName="Z" x="0" y="0" flags="0x204"/>
      <component glyphName="dotaccent.cap" x="82" y="0" flags="0x4"/>
    </TTGlyph>
    <TTGlyph name="a" xMin="51" yMin="-12" xMax="448" yMax="501">
      <contour>
        <pt x="448" y="31" on="1"/>
        <pt x="437" y="3" on="0"/>
        <pt x="414" y="-7" on="1"/>
        <pt x="365" y="11" on="0"/>
        <pt x="352" y="63" on="1"/>
        <pt x="275" y="-12" on="0"/>
        <pt x="201" y="-12" on="1"/>
        <pt x="163" y="-12" on="0"/>
        <pt x="107" y="12" on="0"/>
        <pt x="70" y="52" on="0"/>
        <pt x="51" y="104" on="0"/>
        <pt x="51" y="133" on="1"/>
        <pt x="51" y="173" on="0"/>
        <pt x="78" y="234" on="0"/>
        <pt x="125" y="274" on="0"/>
        <pt x="189" y="294" on="0"/>
        <pt x="226" y="294" on="1"/>
        <pt x="301" y="294" on="0"/>
        <pt x="348" y="285" on="1"/>
        <pt x="348" y="335" on="1"/>
        <pt x="348" y="437" on="0"/>
        <pt x="258" y="437" on="1"/>
        <pt x="189" y="437" on="0"/>
        <pt x="95" y="396" on="1"/>
        <pt x="69" y="419" on="0"/>
        <pt x="69" y="454" on="1"/>
        <pt x="177" y="501" on="0"/>
        <pt x="265" y="501" on="1"/>
        <pt x="420" y="501" on="0"/>
        <pt x="420" y="334" on="1"/>
        <pt x="420" y="128" on="1"/>
        <pt x="419" y="92" on="0"/>
        <pt x="434" y="45" on="0"/>
      </contour>
      <contour>
        <pt x="348" y="131" on="1"/>
        <pt x="348" y="231" on="1"/>
        <pt x="324" y="235" on="0"/>
        <pt x="272" y="238" on="0"/>
        <pt x="243" y="238" on="1"/>
        <pt x="186" y="238" on="0"/>
        <pt x="126" y="185" on="0"/>
        <pt x="126" y="142" on="1"/>
        <pt x="126" y="100" on="0"/>
        <pt x="168" y="51" on="0"/>
        <pt x="204" y="51" on="1"/>
        <pt x="241" y="51" on="0"/>
        <pt x="318" y="92" on="0"/>
      </contour>
    </TTGlyph>
    <TTGlyph name="a.smcp" xMin="18" yMin="-6" xMax="509" yMax="547">
      <contour>
        <pt x="381" y="136" on="1"/>
        <pt x="321" y="135" on="1"/>
        <pt x="203" y="135" on="1"/>
        <pt x="139" y="136" on="1"/>
        <pt x="89" y="-1" on="1"/>
        <pt x="74" y="-4" on="0"/>
        <pt x="35" y="-4" on="0"/>
        <pt x="24" y="-1" on="1"/>
        <pt x="18" y="4" on="1"/>
        <pt x="220" y="542" on="1"/>
        <pt x="233" y="547" on="0"/>
        <pt x="294" y="547" on="0"/>
        <pt x="306" y="542" on="1"/>
        <pt x="509" y="3" on="1"/>
        <pt x="491" y="-6" on="0"/>
        <pt x="468" y="-6" on="1"/>
        <pt x="446" y="-6" on="0"/>
        <pt x="428" y="9" on="0"/>
        <pt x="419" y="32" on="1"/>
      </contour>
      <contour>
        <pt x="161" y="198" on="1"/>
        <pt x="215" y="199" on="1"/>
        <pt x="311" y="199" on="1"/>
        <pt x="351" y="198" on="0"/>
        <pt x="358" y="198" on="1"/>
        <pt x="311" y="328" on="1"/>
        <pt x="279" y="416" on="0"/>
        <pt x="261" y="474" on="1"/>
        <pt x="257" y="474" on="1"/>
        <pt x="242" y="419" on="0"/>
        <pt x="220" y="357" on="1"/>
      </contour>
    </TTGlyph>
    <TTGlyph name="aacute" xMin="51" yMin="-12" xMax="448" yMax="722">
      <component glyphName="a" x="0" y="0" flags="0x204"/>
      <component glyphName="acute" x="44" y="0" flags="0x4"/>
    </TTGlyph>
    <TTGlyph name="aacute.smcp" xMin="18" yMin="-6" xMax="509" yMax="774">
      <component glyphName="a.smcp" x="0" y="0" flags="0x204"/>
      <component glyphName="acute" x="65" y="52" flags="0x4"/>
    </TTGlyph>
    <TTGlyph name="acircumflex" xMin="51" yMin="-12" xMax="448" yMax="712">
      <component glyphName="a" x="0" y="0" flags="0x204"/>
      <component glyphName="circumflex" x="42" y="0" flags="0x4"/>
    </TTGlyph>
    <TTGlyph name="acircumflex.smcp" xMin="18" yMin="-6" xMax="509" yMax="764">
      <component glyphName="a.smcp" x="0" y="0" flags="0x204"/>
      <component glyphName="circumflex" x="65" y="52" flags="0x4"/>
    </TTGlyph>
    <TTGlyph name="acute" xMin="134" yMin="536" xMax="332" yMax="722">
      <contour>
        <pt x="134" y="568" on="1"/>
        <pt x="271" y="722" on="1"/>
        <pt x="314" y="709" on="0"/>
        <pt x="332" y="666" on="1"/>
        <pt x="169" y="536" on="1"/>
        <pt x="145" y="542" on="0"/>
      </contour>
    </TTGlyph>
    <TTGlyph name="acute.cap" xMin="111" yMin="729" xMax="340" yMax="882">
      <contour>
        <pt x="111" y="771" on="1"/>
        <pt x="302" y="882" on="1"/>
        <pt x="331" y="864" on="0"/>
        <pt x="340" y="815" on="1"/>
        <pt x="135" y="729" on="1"/>
        <pt x="115" y="743" on="0"/>
      </contour>
    </TTGlyph>
    <TTGlyph name="adieresis" xMin="51" yMin="-12" xMax="448" yMax="649">
      <component glyphName="a" x="0" y="0" flags="0x204"/>
      <component glyphName="dieresis" x="42" y="0" flags="0x4"/>
    </TTGlyph>
    <TTGlyph name="adieresis.smcp" xMin="18" yMin="-6" xMax="509" yMax="701">
      <component glyphName="a.smcp" x="0" y="0" flags="0x204"/>
      <component glyphName="dieresis" x="65" y="52" flags="0x4"/>
    </TTGlyph>
    <TTGlyph name="ae" xMin="51" yMin="-12" xMax="738" yMax="503">
      <contour>
        <pt x="734" y="223" on="1"/>
        <pt x="424" y="223" on="1"/>
        <pt x="429" y="53" on="0"/>
        <pt x="552" y="53" on="1"/>
        <pt x="621" y="53" on="0"/>
        <pt x="697" y="96" on="1"/>
        <pt x="719" y="77" on="0"/>
        <pt x="724" y="44" on="1"/>
        <pt x="644" y="-12" on="0"/>
        <pt x="543" y="-12" on="1"/>
        <pt x="428" y="-12" on="0"/>
        <pt x="380" y="80" on="1"/>
        <pt x="347" y="41" on="0"/>
        <pt x="251" y="-12" on="0"/>
        <pt x="188" y="-12" on="1"/>
        <pt x="157" y="-12" on="0"/>
        <pt x="106" y="11" on="0"/>
        <pt x="70" y="51" on="0"/>
        <pt x="51" y="104" on="0"/>
        <pt x="51" y="134" on="1"/>
        <pt x="51" y="215" on="0"/>
        <pt x="150" y="294" on="0"/>
        <pt x="238" y="294" on="1"/>
        <pt x="292" y="294" on="0"/>
        <pt x="348" y="284" on="1"/>
        <pt x="348" y="336" on="1"/>
        <pt x="348" y="437" on="0"/>
        <pt x="258" y="437" on="1"/>
        <pt x="189" y="437" on="0"/>
        <pt x="95" y="396" on="1"/>
        <pt x="69" y="419" on="0"/>
        <pt x="69" y="454" on="1"/>
        <pt x="177" y="501" on="0"/>
        <pt x="269" y="501" on="1"/>
        <pt x="363" y="501" on="0"/>
        <pt x="399" y="428" on="1"/>
        <pt x="454" y="503" on="0"/>
        <pt x="546" y="503" on="1"/>
        <pt x="592" y="503" on="0"/>
        <pt x="663" y="471" on="0"/>
        <pt x="712" y="414" on="0"/>
        <pt x="738" y="335" on="0"/>
        <pt x="738" y="289" on="1"/>
        <pt x="738" y="272" on="0"/>
        <pt x="736" y="239" on="0"/>
      </contour>
      <contour>
        <pt x="359" y="139" on="1"/>
        <pt x="350" y="178" on="0"/>
        <pt x="347" y="229" on="1"/>
        <pt x="296" y="238" on="0"/>
        <pt x="241" y="238" on="1"/>
        <pt x="187" y="238" on="0"/>
        <pt x="126" y="186" on="0"/>
        <pt x="126" y="143" on="1"/>
        <pt x="126" y="101" on="0"/>
        <pt x="168" y="51" on="0"/>
        <pt x="206" y="51" on="1"/>
        <pt x="245" y="51" on="0"/>
        <pt x="329" y="94" on="0"/>
      </contour>
      <contour>
        <pt x="424" y="280" on="1"/>
        <pt x="662" y="280" on="1"/>
        <pt x="662" y="291" on="1"/>
        <pt x="662" y="360" on="0"/>
        <pt x="605" y="446" on="0"/>
        <pt x="547" y="446" on="1"/>
        <pt x="490" y="446" on="0"/>
        <pt x="428" y="358" on="0"/>
      </contour>
    </TTGlyph>
    <TTGlyph name="ae.smcp" xMin="14" yMin="-4" xMax="724" yMax="542">
      <contour>
        <pt x="361" y="136" on="1"/>
        <pt x="305" y="135" on="1"/>
        <pt x="224" y="135" on="1"/>
        <pt x="166" y="136" on="1"/>
        <pt x="88" y="-1" on="1"/>
        <pt x="73" y="-4" on="0"/>
        <pt x="30" y="-4" on="0"/>
        <pt x="16" y="1" on="1"/>
        <pt x="14" y="5" on="1"/>
        <pt x="322" y="535" on="1"/>
        <pt x="339" y="542" on="0"/>
        <pt x="367" y="542" on="1"/>
        <pt x="709" y="542" on="1"/>
        <pt x="711" y="532" on="0"/>
        <pt x="711" y="494" on="0"/>
        <pt x="706" y="479" on="1"/>
        <pt x="570" y="479" on="0"/>
        <pt x="434" y="479" on="1"/>
        <pt x="435" y="429" on="1"/>
        <pt x="435" y="307" on="1"/>
        <pt x="488" y="308" on="1"/>
        <pt x="662" y="308" on="1"/>
        <pt x="665" y="297" on="0"/>
        <pt x="665" y="255" on="0"/>
        <pt x="662" y="244" on="1"/>
        <pt x="548" y="244" on="0"/>
        <pt x="435" y="244" on="1"/>
        <pt x="435" y="99" on="1"/>
        <pt x="434" y="63" on="1"/>
        <pt x="449" y="64" on="0"/>
        <pt x="489" y="64" on="1"/>
        <pt x="724" y="64" on="1"/>
        <pt x="724" y="45" on="0"/>
        <pt x="722" y="35" on="1"/>
        <pt x="716" y="0" on="0"/>
        <pt x="675" y="0" on="1"/>
        <pt x="404" y="0" on="1"/>
        <pt x="384" y="0" on="0"/>
        <pt x="361" y="25" on="0"/>
        <pt x="361" y="47" on="1"/>
      </contour>
      <contour>
        <pt x="305" y="198" on="1"/>
        <pt x="361" y="197" on="1"/>
        <pt x="361" y="479" on="1"/>
        <pt x="356" y="479" on="1"/>
        <pt x="333" y="434" on="0"/>
        <pt x="275" y="326" on="1"/>
        <pt x="201" y="197" on="1"/>
        <pt x="243" y="198" on="1"/>
      </contour>
    </TTGlyph>
    <TTGlyph name="agrave" xMin="51" yMin="-12" xMax="448" yMax="722">
      <component glyphName="a" x="0" y="0" flags="0x204"/>
      <component glyphName="grave" x="46" y="0" flags="0x4"/>
    </TTGlyph>
    <TTGlyph name="agrave.smcp" xMin="18" yMin="-6" xMax="509" yMax="774">
      <component glyphName="a.smcp" x="0" y="0" flags="0x204"/>
      <component glyphName="grave" x="68" y="52" flags="0x4"/>
    </TTGlyph>
    <TTGlyph name="ampersand" xMin="56" yMin="-12" xMax="580" yMax="695">
      <contour>
        <pt x="480" y="147" on="1"/>
        <pt x="486" y="0" on="1"/>
        <pt x="471" y="-3" on="0"/>
        <pt x="450" y="-3" on="1"/>
        <pt x="429" y="-3" on="0"/>
        <pt x="414" y="0" on="1"/>
        <pt x="408" y="39" on="1"/>
        <pt x="331" y="-12" on="0"/>
        <pt x="242" y="-12" on="1"/>
        <pt x="154" y="-12" on="0"/>
        <pt x="56" y="93" on="0"/>
        <pt x="56" y="180" on="1"/>
        <pt x="56" y="213" on="0"/>
        <pt x="77" y="273" on="0"/>
        <pt x="114" y="322" on="0"/>
        <pt x="162" y="358" on="0"/>
        <pt x="189" y="366" on="1"/>
        <pt x="144" y="382" on="0"/>
        <pt x="84" y="467" on="0"/>
        <pt x="84" y="519" on="1"/>
        <pt x="84" y="556" on="0"/>
        <pt x="113" y="621" on="0"/>
        <pt x="167" y="668" on="0"/>
        <pt x="242" y="695" on="0"/>
        <pt x="289" y="695" on="1"/>
        <pt x="303" y="695" on="0"/>
        <pt x="359" y="691" on="0"/>
        <pt x="414" y="684" on="0"/>
        <pt x="456" y="667" on="1"/>
        <pt x="456" y="627" on="0"/>
        <pt x="435" y="606" on="1"/>
        <pt x="393" y="618" on="0"/>
        <pt x="323" y="631" on="0"/>
        <pt x="294" y="631" on="1"/>
        <pt x="232" y="631" on="0"/>
        <pt x="165" y="568" on="0"/>
        <pt x="165" y="514" on="1"/>
        <pt x="165" y="460" on="0"/>
        <pt x="233" y="397" on="0"/>
        <pt x="302" y="397" on="1"/>
        <pt x="481" y="397" on="1"/>
        <pt x="543" y="397" on="0"/>
        <pt x="570" y="410" on="1"/>
        <pt x="580" y="397" on="0"/>
        <pt x="580" y="373" on="1"/>
        <pt x="580" y="331" on="0"/>
        <pt x="515" y="331" on="1"/>
        <pt x="479" y="331" on="1"/>
        <pt x="479" y="268" on="1"/>
      </contour>
      <contour>
        <pt x="406" y="267" on="1"/>
        <pt x="406" y="287" on="0"/>
        <pt x="406" y="320" on="0"/>
        <pt x="407" y="331" on="1"/>
        <pt x="293" y="331" on="1"/>
        <pt x="254" y="331" on="0"/>
        <pt x="195" y="306" on="0"/>
        <pt x="156" y="265" on="0"/>
        <pt x="137" y="210" on="0"/>
        <pt x="137" y="180" on="1"/>
        <pt x="137" y="120" on="0"/>
        <pt x="201" y="52" on="0"/>
        <pt x="258" y="52" on="1"/>
        <pt x="344" y="52" on="0"/>
        <pt x="406" y="103" on="1"/>
      </contour>
    </TTGlyph>
    <TTGlyph name="ampersand.smcp" xMin="50" yMin="-12" xMax="519" yMax="555">
      <contour>
        <pt x="434" y="110" on="1"/>
        <pt x="440" y="-4" on="1"/>
        <pt x="433" y="-6" on="0"/>
        <pt x="414" y="-8" on="0"/>
        <pt x="403" y="-8" on="1"/>
        <pt x="381" y="-8" on="0"/>
        <pt x="368" y="-5" on="1"/>
        <pt x="363" y="28" on="1"/>
        <pt x="299" y="-12" on="0"/>
        <pt x="218" y="-12" on="1"/>
        <pt x="177" y="-12" on="0"/>
        <pt x="115" y="11" on="0"/>
        <pt x="72" y="51" on="0"/>
        <pt x="50" y="104" on="0"/>
        <pt x="50" y="134" on="1"/>
        <pt x="50" y="195" on="0"/>
        <pt x="118" y="277" on="0"/>
        <pt x="169" y="290" on="1"/>
        <pt x="127" y="302" on="0"/>
        <pt x="75" y="369" on="0"/>
        <pt x="75" y="412" on="1"/>
        <pt x="75" y="443" on="0"/>
        <pt x="101" y="495" on="0"/>
        <pt x="148" y="533" on="0"/>
        <pt x="215" y="555" on="0"/>
        <pt x="257" y="555" on="1"/>
        <pt x="269" y="555" on="0"/>
        <pt x="320" y="552" on="0"/>
        <pt x="373" y="545" on="0"/>
        <pt x="412" y="529" on="1"/>
        <pt x="412" y="494" on="0"/>
        <pt x="392" y="471" on="1"/>
        <pt x="355" y="482" on="0"/>
        <pt x="293" y="491" on="0"/>
        <pt x="267" y="491" on="1"/>
        <pt x="213" y="491" on="0"/>
        <pt x="156" y="450" on="0"/>
        <pt x="156" y="408" on="1"/>
        <pt x="156" y="321" on="0"/>
        <pt x="274" y="321" on="1"/>
        <pt x="436" y="321" on="1"/>
        <pt x="482" y="321" on="0"/>
        <pt x="509" y="332" on="1"/>
        <pt x="519" y="316" on="0"/>
        <pt x="519" y="296" on="1"/>
        <pt x="519" y="256" on="0"/>
        <pt x="460" y="256" on="1"/>
        <pt x="433" y="256" on="1"/>
        <pt x="434" y="246" on="0"/>
        <pt x="434" y="219" on="0"/>
        <pt x="434" y="201" on="1"/>
      </contour>
      <contour>
        <pt x="360" y="88" on="1"/>
        <pt x="360" y="256" on="1"/>
        <pt x="266" y="256" on="1"/>
        <pt x="196" y="256" on="0"/>
        <pt x="131" y="191" on="0"/>
        <pt x="131" y="145" on="1"/>
        <pt x="131" y="100" on="0"/>
        <pt x="185" y="49" on="0"/>
        <pt x="234" y="49" on="1"/>
        <pt x="304" y="49" on="0"/>
      </contour>
    </TTGlyph>
    <TTGlyph name="aogonek" xMin="51" yMin="-217" xMax="478" yMax="501">
      <contour>
        <pt x="459" y="-145" on="1"/>
        <pt x="478" y="-160" on="0"/>
        <pt x="478" y="-185" on="1"/>
        <pt x="438" y="-217" on="0"/>
        <pt x="386" y="-217" on="1"/>
        <pt x="334" y="-217" on="0"/>
        <pt x="278" y="-169" on="0"/>
        <pt x="278" y="-127" on="1"/>
        <pt x="278" y="-47" on="0"/>
        <pt x="376" y="21" on="1"/>
        <pt x="361" y="38" on="0"/>
        <pt x="353" y="64" on="1"/>
        <pt x="277" y="-12" on="0"/>
        <pt x="195" y="-12" on="1"/>
        <pt x="161" y="-12" on="0"/>
        <pt x="107" y="12" on="0"/>
        <pt x="70" y="52" on="0"/>
        <pt x="51" y="104" on="0"/>
        <pt x="51" y="133" on="1"/>
        <pt x="51" y="173" on="0"/>
        <pt x="78" y="234" on="0"/>
        <pt x="125" y="274" on="0"/>
        <pt x="189" y="294" on="0"/>
        <pt x="226" y="294" on="1"/>
        <pt x="301" y="294" on="0"/>
        <pt x="348" y="285" on="1"/>
        <pt x="348" y="335" on="1"/>
        <pt x="348" y="437" on="0"/>
        <pt x="258" y="437" on="1"/>
        <pt x="189" y="437" on="0"/>
        <pt x="95" y="396" on="1"/>
        <pt x="69" y="419" on="0"/>
        <pt x="69" y="454" on="1"/>
        <pt x="177" y="501" on="0"/>
        <pt x="265" y="501" on="1"/>
        <pt x="420" y="501" on="0"/>
        <pt x="420" y="334" on="1"/>
        <pt x="420" y="128" on="1"/>
        <pt x="420" y="64" on="0"/>
        <pt x="453" y="34" on="1"/>
        <pt x="446" y="16" on="0"/>
        <pt x="415" y="-9" on="1"/>
        <pt x="344" y="-66" on="0"/>
        <pt x="344" y="-112" on="1"/>
        <pt x="344" y="-135" on="0"/>
        <pt x="372" y="-163" on="0"/>
        <pt x="397" y="-163" on="1"/>
        <pt x="410" y="-163" on="0"/>
        <pt x="441" y="-155" on="0"/>
      </contour>
      <contour>
        <pt x="348" y="131" on="1"/>
        <pt x="348" y="231" on="1"/>
        <pt x="324" y="235" on="0"/>
        <pt x="272" y="238" on="0"/>
        <pt x="243" y="238" on="1"/>
        <pt x="186" y="238" on="0"/>
        <pt x="126" y="185" on="0"/>
        <pt x="126" y="142" on="1"/>
        <pt x="126" y="100" on="0"/>
        <pt x="168" y="51" on="0"/>
        <pt x="204" y="51" on="1"/>
        <pt x="241" y="51" on="0"/>
        <pt x="318" y="92" on="0"/>
      </contour>
    </TTGlyph>
    <TTGlyph name="aogonek.smcp" xMin="18" yMin="-217" xMax="553" yMax="547">
      <contour>
        <pt x="203" y="135" on="1"/>
        <pt x="139" y="136" on="1"/>
        <pt x="89" y="-1" on="1"/>
        <pt x="74" y="-4" on="0"/>
        <pt x="35" y="-4" on="0"/>
        <pt x="24" y="-1" on="1"/>
        <pt x="18" y="4" on="1"/>
        <pt x="220" y="542" on="1"/>
        <pt x="233" y="547" on="0"/>
        <pt x="294" y="547" on="0"/>
        <pt x="306" y="542" on="1"/>
        <pt x="509" y="3" on="1"/>
        <pt x="419" y="-55" on="0"/>
        <pt x="419" y="-113" on="1"/>
        <pt x="419" y="-136" on="0"/>
        <pt x="448" y="-163" on="0"/>
        <pt x="476" y="-163" on="1"/>
        <pt x="504" y="-163" on="0"/>
        <pt x="534" y="-145" on="1"/>
        <pt x="553" y="-159" on="0"/>
        <pt x="553" y="-185" on="1"/>
        <pt x="514" y="-217" on="0"/>
        <pt x="461" y="-217" on="1"/>
        <pt x="409" y="-217" on="0"/>
        <pt x="353" y="-169" on="0"/>
        <pt x="353" y="-127" on="1"/>
        <pt x="353" y="-54" on="0"/>
        <pt x="432" y="6" on="1"/>
        <pt x="423" y="19" on="0"/>
        <pt x="419" y="32" on="1"/>
        <pt x="381" y="136" on="1"/>
        <pt x="321" y="135" on="1"/>
      </contour>
      <contour>
        <pt x="161" y="198" on="1"/>
        <pt x="215" y="199" on="1"/>
        <pt x="311" y="199" on="1"/>
        <pt x="351" y="198" on="0"/>
        <pt x="358" y="198" on="1"/>
        <pt x="311" y="328" on="1"/>
        <pt x="279" y="416" on="0"/>
        <pt x="261" y="474" on="1"/>
        <pt x="257" y="474" on="1"/>
        <pt x="242" y="419" on="0"/>
        <pt x="220" y="357" on="1"/>
      </contour>
    </TTGlyph>
    <TTGlyph name="aring" xMin="51" yMin="-12" xMax="448" yMax="747">
      <component glyphName="a" x="0" y="0" flags="0x204"/>
      <component glyphName="ring" x="42" y="0" flags="0x4"/>
    </TTGlyph>
    <TTGlyph name="aring.smcp" xMin="18" yMin="-6" xMax="509" yMax="799">
      <component glyphName="a.smcp" x="0" y="0" flags="0x204"/>
      <component glyphName="ring" x="65" y="52" flags="0x4"/>
    </TTGlyph>
    <TTGlyph name="asciicircum" xMin="53" yMin="302" xMax="477" yMax="658">
      <contour>
        <pt x="305" y="648" on="1"/>
        <pt x="477" y="306" on="1"/>
        <pt x="466" y="302" on="0"/>
        <pt x="416" y="302" on="0"/>
        <pt x="401" y="306" on="1"/>
        <pt x="300" y="513" on="1"/>
        <pt x="293" y="528" on="0"/>
        <pt x="268" y="585" on="1"/>
        <pt x="262" y="585" on="1"/>
        <pt x="230" y="513" on="1"/>
        <pt x="129" y="306" on="1"/>
        <pt x="114" y="302" on="0"/>
        <pt x="64" y="302" on="0"/>
        <pt x="53" y="306" on="1"/>
        <pt x="225" y="648" on="1"/>
        <pt x="265" y="658" on="0"/>
      </contour>
    </TTGlyph>
    <TTGlyph name="asciitilde" xMin="44" yMin="221" xMax="516" yMax="360">
      <contour>
        <pt x="261" y="340" on="1"/>
        <pt x="338" y="305" on="1"/>
        <pt x="369" y="292" on="0"/>
        <pt x="393" y="292" on="1"/>
        <pt x="429" y="292" on="0"/>
        <pt x="457" y="328" on="1"/>
        <pt x="472" y="347" on="1"/>
        <pt x="485" y="346" on="0"/>
        <pt x="511" y="331" on="0"/>
        <pt x="516" y="319" on="1"/>
        <pt x="506" y="301" on="1"/>
        <pt x="465" y="221" on="0"/>
        <pt x="381" y="221" on="1"/>
        <pt x="342" y="221" on="0"/>
        <pt x="299" y="241" on="1"/>
        <pt x="222" y="276" on="1"/>
        <pt x="195" y="288" on="0"/>
        <pt x="131" y="288" on="0"/>
        <pt x="104" y="253" on="1"/>
        <pt x="88" y="234" on="1"/>
        <pt x="75" y="235" on="0"/>
        <pt x="49" y="250" on="0"/>
        <pt x="44" y="262" on="1"/>
        <pt x="54" y="280" on="1"/>
        <pt x="95" y="360" on="0"/>
        <pt x="179" y="360" on="1"/>
        <pt x="218" y="360" on="0"/>
      </contour>
    </TTGlyph>
    <TTGlyph name="asterisk" xMin="47" yMin="354" xMax="447" yMax="737">
      <contour>
        <pt x="49" y="562" on="1"/>
        <pt x="47" y="576" on="0"/>
        <pt x="62" y="617" on="0"/>
        <pt x="72" y="629" on="1"/>
        <pt x="120" y="614" on="1"/>
        <pt x="146" y="606" on="0"/>
        <pt x="226" y="563" on="1"/>
        <pt x="211" y="629" on="0"/>
        <pt x="211" y="680" on="1"/>
        <pt x="212" y="731" on="1"/>
        <pt x="225" y="737" on="0"/>
        <pt x="270" y="737" on="0"/>
        <pt x="283" y="731" on="1"/>
        <pt x="284" y="680" on="1"/>
        <pt x="285" y="648" on="0"/>
        <pt x="268" y="562" on="1"/>
        <pt x="336" y="602" on="0"/>
        <pt x="376" y="614" on="1"/>
        <pt x="424" y="628" on="1"/>
        <pt x="434" y="618" on="0"/>
        <pt x="447" y="577" on="0"/>
        <pt x="446" y="561" on="1"/>
        <pt x="398" y="545" on="1"/>
        <pt x="360" y="532" on="0"/>
        <pt x="281" y="523" on="1"/>
        <pt x="338" y="473" on="0"/>
        <pt x="364" y="436" on="1"/>
        <pt x="392" y="395" on="1"/>
        <pt x="384" y="382" on="0"/>
        <pt x="350" y="357" on="0"/>
        <pt x="334" y="354" on="1"/>
        <pt x="305" y="394" on="1"/>
        <pt x="280" y="424" on="0"/>
        <pt x="247" y="498" on="1"/>
        <pt x="219" y="430" on="0"/>
        <pt x="191" y="394" on="1"/>
        <pt x="160" y="354" on="1"/>
        <pt x="146" y="357" on="0"/>
        <pt x="111" y="382" on="0"/>
        <pt x="103" y="396" on="1"/>
        <pt x="132" y="436" on="1"/>
        <pt x="151" y="462" on="0"/>
        <pt x="214" y="523" on="1"/>
        <pt x="139" y="529" on="0"/>
        <pt x="97" y="545" on="1"/>
      </contour>
    </TTGlyph>
    <TTGlyph name="at" xMin="57" yMin="-180" xMax="885" yMax="673">
      <contour>
        <pt x="645" y="413" on="1"/>
        <pt x="644" y="154" on="1"/>
        <pt x="644" y="109" on="0"/>
        <pt x="668" y="73" on="0"/>
        <pt x="695" y="73" on="1"/>
        <pt x="719" y="73" on="0"/>
        <pt x="761" y="99" on="0"/>
        <pt x="792" y="153" on="0"/>
        <pt x="811" y="234" on="0"/>
        <pt x="811" y="290" on="1"/>
        <pt x="811" y="362" on="0"/>
        <pt x="764" y="482" on="0"/>
        <pt x="677" y="568" on="0"/>
        <pt x="554" y="616" on="0"/>
        <pt x="478" y="616" on="1"/>
        <pt x="403" y="616" on="0"/>
        <pt x="276" y="557" on="0"/>
        <pt x="184" y="454" on="0"/>
        <pt x="132" y="312" on="0"/>
        <pt x="132" y="229" on="1"/>
        <pt x="132" y="146" on="0"/>
        <pt x="177" y="16" on="0"/>
        <pt x="258" y="-74" on="0"/>
        <pt x="373" y="-121" on="0"/>
        <pt x="442" y="-121" on="1"/>
        <pt x="562" y="-121" on="0"/>
        <pt x="648" y="-85" on="1"/>
        <pt x="670" y="-103" on="0"/>
        <pt x="670" y="-139" on="1"/>
        <pt x="556" y="-180" on="0"/>
        <pt x="438" y="-180" on="1"/>
        <pt x="354" y="-180" on="0"/>
        <pt x="214" y="-125" on="0"/>
        <pt x="113" y="-20" on="0"/>
        <pt x="57" y="131" on="0"/>
        <pt x="57" y="227" on="1"/>
        <pt x="57" y="323" on="0"/>
        <pt x="121" y="486" on="0"/>
        <pt x="233" y="605" on="0"/>
        <pt x="388" y="673" on="0"/>
        <pt x="479" y="673" on="1"/>
        <pt x="570" y="673" on="0"/>
        <pt x="720" y="616" on="0"/>
        <pt x="826" y="514" on="0"/>
        <pt x="885" y="372" on="0"/>
        <pt x="885" y="287" on="1"/>
        <pt x="885" y="225" on="0"/>
        <pt x="854" y="124" on="0"/>
        <pt x="800" y="53" on="0"/>
        <pt x="728" y="14" on="0"/>
        <pt x="688" y="14" on="1"/>
        <pt x="606" y="14" on="0"/>
        <pt x="581" y="80" on="1"/>
        <pt x="554" y="49" on="0"/>
        <pt x="479" y="9" on="0"/>
        <pt x="439" y="9" on="1"/>
        <pt x="367" y="9" on="0"/>
        <pt x="281" y="126" on="0"/>
        <pt x="281" y="229" on="1"/>
        <pt x="281" y="279" on="0"/>
        <pt x="308" y="370" on="0"/>
        <pt x="359" y="438" on="0"/>
        <pt x="433" y="478" on="0"/>
        <pt x="480" y="478" on="1"/>
        <pt x="572" y="478" on="0"/>
      </contour>
      <contour>
        <pt x="453" y="71" on="1"/>
        <pt x="468" y="71" on="0"/>
        <pt x="502" y="83" on="0"/>
        <pt x="534" y="104" on="0"/>
        <pt x="562" y="133" on="0"/>
        <pt x="572" y="149" on="1"/>
        <pt x="572" y="385" on="1"/>
        <pt x="536" y="421" on="0"/>
        <pt x="479" y="421" on="1"/>
        <pt x="450" y="421" on="0"/>
        <pt x="404" y="390" on="0"/>
        <pt x="373" y="338" on="0"/>
        <pt x="356" y="270" on="0"/>
        <pt x="356" y="233" on="1"/>
        <pt x="356" y="157" on="0"/>
        <pt x="404" y="71" on="0"/>
      </contour>
    </TTGlyph>
    <TTGlyph name="atilde" xMin="51" yMin="-12" xMax="448" yMax="677">
      <component glyphName="a" x="0" y="0" flags="0x204"/>
      <component glyphName="tilde" x="42" y="0" flags="0x4"/>
    </TTGlyph>
    <TTGlyph name="atilde.smcp" xMin="18" yMin="-6" xMax="509" yMax="729">
      <component glyphName="a.smcp" x="0" y="0" flags="0x204"/>
      <component glyphName="tilde" x="65" y="52" flags="0x4"/>
    </TTGlyph>
    <TTGlyph name="b" xMin="88" yMin="-7" xMax="473" yMax="735">
      <contour>
        <pt x="88" y="25" on="1"/>
        <pt x="88" y="729" on="1"/>
        <pt x="94" y="735" on="1"/>
        <pt x="121" y="735" on="1"/>
        <pt x="145" y="735" on="0"/>
        <pt x="161" y="712" on="0"/>
        <pt x="161" y="685" on="1"/>
        <pt x="161" y="438" on="1"/>
        <pt x="223" y="499" on="0"/>
        <pt x="304" y="499" on="1"/>
        <pt x="385" y="499" on="0"/>
        <pt x="473" y="364" on="0"/>
        <pt x="473" y="243" on="1"/>
        <pt x="473" y="183" on="0"/>
        <pt x="440" y="90" on="0"/>
        <pt x="382" y="26" on="0"/>
        <pt x="305" y="-7" on="0"/>
        <pt x="262" y="-7" on="1"/>
        <pt x="176" y="-7" on="0"/>
      </contour>
      <contour>
        <pt x="161" y="364" on="1"/>
        <pt x="161" y="67" on="1"/>
        <pt x="206" y="50" on="0"/>
        <pt x="262" y="50" on="1"/>
        <pt x="320" y="50" on="0"/>
        <pt x="398" y="152" on="0"/>
        <pt x="398" y="248" on="1"/>
        <pt x="398" y="296" on="0"/>
        <pt x="382" y="366" on="0"/>
        <pt x="353" y="412" on="0"/>
        <pt x="317" y="434" on="0"/>
        <pt x="296" y="434" on="1"/>
        <pt x="254" y="434" on="0"/>
        <pt x="185" y="395" on="0"/>
      </contour>
    </TTGlyph>
    <TTGlyph name="b.smcp" xMin="91" yMin="-3" xMax="489" yMax="546">
      <contour>
        <pt x="96" y="0" on="1"/>
        <pt x="91" y="5" on="1"/>
        <pt x="91" y="537" on="1"/>
        <pt x="96" y="543" on="1"/>
        <pt x="268" y="546" on="1"/>
        <pt x="459" y="546" on="0"/>
        <pt x="459" y="403" on="1"/>
        <pt x="459" y="364" on="0"/>
        <pt x="412" y="303" on="0"/>
        <pt x="373" y="290" on="1"/>
        <pt x="397" y="284" on="0"/>
        <pt x="439" y="258" on="0"/>
        <pt x="471" y="222" on="0"/>
        <pt x="489" y="177" on="0"/>
        <pt x="489" y="152" on="1"/>
        <pt x="489" y="83" on="0"/>
        <pt x="388" y="-3" on="0"/>
        <pt x="279" y="-3" on="1"/>
      </contour>
      <contour>
        <pt x="166" y="57" on="1"/>
        <pt x="284" y="58" on="1"/>
        <pt x="355" y="59" on="0"/>
        <pt x="411" y="115" on="0"/>
        <pt x="411" y="155" on="1"/>
        <pt x="411" y="174" on="0"/>
        <pt x="395" y="211" on="0"/>
        <pt x="364" y="240" on="0"/>
        <pt x="311" y="256" on="0"/>
        <pt x="275" y="256" on="1"/>
        <pt x="166" y="256" on="1"/>
      </contour>
      <contour>
        <pt x="166" y="486" on="1"/>
        <pt x="166" y="317" on="1"/>
        <pt x="267" y="317" on="1"/>
        <pt x="382" y="317" on="0"/>
        <pt x="382" y="402" on="1"/>
        <pt x="382" y="438" on="0"/>
        <pt x="343" y="472" on="0"/>
        <pt x="281" y="484" on="0"/>
        <pt x="204" y="484" on="0"/>
      </contour>
    </TTGlyph>
    <TTGlyph name="backslash" xMin="13" yMin="-106" xMax="396" yMax="758">
      <contour>
        <pt x="330" y="-106" on="1"/>
        <pt x="13" y="733" on="1"/>
        <pt x="42" y="756" on="0"/>
        <pt x="79" y="758" on="1"/>
        <pt x="396" y="-81" on="1"/>
        <pt x="366" y="-104" on="0"/>
      </contour>
    </TTGlyph>
    <TTGlyph name="bar" xMin="88" yMin="-143" xMax="159" yMax="778">
      <contour>
        <pt x="88" y="-140" on="1"/>
        <pt x="88" y="775" on="1"/>
        <pt x="103" y="778" on="0"/>
        <pt x="142" y="778" on="0"/>
        <pt x="159" y="775" on="1"/>
        <pt x="159" y="-140" on="1"/>
        <pt x="142" y="-143" on="0"/>
        <pt x="103" y="-143" on="0"/>
      </contour>
    </TTGlyph>
    <TTGlyph name="braceleft" xMin="37" yMin="-162" xMax="316" yMax="809">
      <contour>
        <pt x="41" y="350" on="1"/>
        <pt x="76" y="364" on="0"/>
        <pt x="121" y="426" on="0"/>
        <pt x="121" y="472" on="1"/>
        <pt x="121" y="647" on="1"/>
        <pt x="121" y="713" on="0"/>
        <pt x="193" y="792" on="0"/>
        <pt x="253" y="802" on="1"/>
        <pt x="296" y="809" on="1"/>
        <pt x="304" y="800" on="0"/>
        <pt x="312" y="768" on="0"/>
        <pt x="308" y="755" on="1"/>
        <pt x="265" y="741" on="1"/>
        <pt x="198" y="722" on="0"/>
        <pt x="198" y="646" on="1"/>
        <pt x="198" y="474" on="1"/>
        <pt x="198" y="427" on="0"/>
        <pt x="154" y="346" on="0"/>
        <pt x="118" y="328" on="1"/>
        <pt x="118" y="320" on="1"/>
        <pt x="154" y="302" on="0"/>
        <pt x="198" y="221" on="0"/>
        <pt x="198" y="175" on="1"/>
        <pt x="198" y="1" on="1"/>
        <pt x="198" y="-73" on="0"/>
        <pt x="265" y="-94" on="1"/>
        <pt x="308" y="-107" on="1"/>
        <pt x="316" y="-138" on="0"/>
        <pt x="296" y="-162" on="1"/>
        <pt x="253" y="-155" on="1"/>
        <pt x="193" y="-145" on="0"/>
        <pt x="121" y="-65" on="0"/>
        <pt x="121" y="0" on="1"/>
        <pt x="121" y="177" on="1"/>
        <pt x="121" y="221" on="0"/>
        <pt x="76" y="285" on="0"/>
        <pt x="41" y="299" on="1"/>
        <pt x="37" y="308" on="0"/>
        <pt x="37" y="341" on="0"/>
      </contour>
    </TTGlyph>
    <TTGlyph name="braceright" xMin="2" yMin="-162" xMax="280" yMax="809">
      <contour>
        <pt x="276" y="350" on="1"/>
        <pt x="280" y="341" on="0"/>
        <pt x="280" y="308" on="0"/>
        <pt x="276" y="299" on="1"/>
        <pt x="241" y="285" on="0"/>
        <pt x="196" y="221" on="0"/>
        <pt x="196" y="177" on="1"/>
        <pt x="196" y="0" on="1"/>
        <pt x="196" y="-65" on="0"/>
        <pt x="124" y="-145" on="0"/>
        <pt x="64" y="-155" on="1"/>
        <pt x="22" y="-162" on="1"/>
        <pt x="2" y="-140" on="0"/>
        <pt x="9" y="-107" on="1"/>
        <pt x="53" y="-94" on="1"/>
        <pt x="120" y="-73" on="0"/>
        <pt x="120" y="1" on="1"/>
        <pt x="120" y="175" on="1"/>
        <pt x="120" y="221" on="0"/>
        <pt x="164" y="302" on="0"/>
        <pt x="200" y="320" on="1"/>
        <pt x="200" y="328" on="1"/>
        <pt x="164" y="346" on="0"/>
        <pt x="120" y="427" on="0"/>
        <pt x="120" y="474" on="1"/>
        <pt x="120" y="646" on="1"/>
        <pt x="120" y="722" on="0"/>
        <pt x="53" y="741" on="1"/>
        <pt x="9" y="755" on="1"/>
        <pt x="2" y="789" on="0"/>
        <pt x="22" y="809" on="1"/>
        <pt x="64" y="802" on="1"/>
        <pt x="124" y="792" on="0"/>
        <pt x="196" y="713" on="0"/>
        <pt x="196" y="647" on="1"/>
        <pt x="196" y="472" on="1"/>
        <pt x="196" y="426" on="0"/>
        <pt x="241" y="364" on="0"/>
      </contour>
    </TTGlyph>
    <TTGlyph name="bracketleft" xMin="100" yMin="-141" xMax="285" yMax="808">
      <contour>
        <pt x="283" y="-134" on="1"/>
        <pt x="106" y="-141" on="1"/>
        <pt x="100" y="-135" on="1"/>
        <pt x="100" y="802" on="1"/>
        <pt x="106" y="808" on="1"/>
        <pt x="283" y="801" on="1"/>
        <pt x="285" y="793" on="0"/>
        <pt x="285" y="762" on="0"/>
        <pt x="279" y="744" on="1"/>
        <pt x="176" y="741" on="1"/>
        <pt x="176" y="-74" on="1"/>
        <pt x="279" y="-77" on="1"/>
        <pt x="285" y="-97" on="0"/>
        <pt x="285" y="-126" on="0"/>
      </contour>
    </TTGlyph>
    <TTGlyph name="bracketright" xMin="30" yMin="-141" xMax="216" yMax="808">
      <contour>
        <pt x="209" y="-141" on="1"/>
        <pt x="32" y="-134" on="1"/>
        <pt x="30" y="-126" on="0"/>
        <pt x="30" y="-97" on="0"/>
        <pt x="36" y="-77" on="1"/>
        <pt x="139" y="-74" on="1"/>
        <pt x="139" y="741" on="1"/>
        <pt x="36" y="744" on="1"/>
        <pt x="30" y="762" on="0"/>
        <pt x="30" y="793" on="0"/>
        <pt x="32" y="801" on="1"/>
        <pt x="209" y="808" on="1"/>
        <pt x="216" y="802" on="1"/>
        <pt x="216" y="-135" on="1"/>
      </contour>
    </TTGlyph>
    <TTGlyph name="brokenbar" xMin="86" yMin="-143" xMax="156" yMax="778">
      <contour>
        <pt x="86" y="-140" on="1"/>
        <pt x="86" y="247" on="1"/>
        <pt x="100" y="250" on="0"/>
        <pt x="140" y="250" on="0"/>
        <pt x="156" y="247" on="1"/>
        <pt x="156" y="-140" on="1"/>
        <pt x="140" y="-143" on="0"/>
        <pt x="100" y="-143" on="0"/>
      </contour>
      <contour>
        <pt x="86" y="388" on="1"/>
        <pt x="86" y="775" on="1"/>
        <pt x="99" y="778" on="0"/>
        <pt x="140" y="778" on="0"/>
        <pt x="156" y="775" on="1"/>
        <pt x="156" y="388" on="1"/>
        <pt x="140" y="385" on="0"/>
        <pt x="100" y="385" on="0"/>
      </contour>
    </TTGlyph>
    <TTGlyph name="bullet" xMin="118" yMin="174" xMax="321" yMax="370">
      <contour>
        <pt x="131" y="192" on="1"/>
        <pt x="118" y="218" on="0"/>
        <pt x="118" y="327" on="0"/>
        <pt x="131" y="350" on="1"/>
        <pt x="169" y="370" on="0"/>
        <pt x="219" y="370" on="1"/>
        <pt x="240" y="370" on="0"/>
        <pt x="295" y="357" on="0"/>
        <pt x="307" y="350" on="1"/>
        <pt x="321" y="328" on="0"/>
        <pt x="321" y="217" on="0"/>
        <pt x="307" y="192" on="1"/>
        <pt x="297" y="185" on="0"/>
        <pt x="241" y="174" on="0"/>
        <pt x="219" y="174" on="1"/>
        <pt x="165" y="174" on="0"/>
      </contour>
    </TTGlyph>
    <TTGlyph name="c" xMin="52" yMin="-12" xMax="426" yMax="503">
      <contour>
        <pt x="355" y="317" on="1"/>
        <pt x="355" y="328" on="1"/>
        <pt x="355" y="350" on="0"/>
        <pt x="343" y="392" on="0"/>
        <pt x="318" y="424" on="0"/>
        <pt x="279" y="443" on="0"/>
        <pt x="252" y="443" on="1"/>
        <pt x="195" y="443" on="0"/>
        <pt x="129" y="339" on="0"/>
        <pt x="129" y="243" on="1"/>
        <pt x="129" y="147" on="0"/>
        <pt x="194" y="52" on="0"/>
        <pt x="250" y="52" on="1"/>
        <pt x="309" y="52" on="0"/>
        <pt x="385" y="107" on="1"/>
        <pt x="412" y="91" on="0"/>
        <pt x="420" y="60" on="1"/>
        <pt x="343" y="-12" on="0"/>
        <pt x="247" y="-12" on="1"/>
        <pt x="199" y="-12" on="0"/>
        <pt x="127" y="26" on="0"/>
        <pt x="77" y="91" on="0"/>
        <pt x="52" y="180" on="0"/>
        <pt x="52" y="231" on="1"/>
        <pt x="52" y="300" on="0"/>
        <pt x="83" y="403" on="0"/>
        <pt x="138" y="470" on="0"/>
        <pt x="212" y="503" on="0"/>
        <pt x="254" y="503" on="1"/>
        <pt x="297" y="503" on="0"/>
        <pt x="361" y="476" on="0"/>
        <pt x="404" y="434" on="0"/>
        <pt x="426" y="384" on="0"/>
        <pt x="426" y="362" on="1"/>
        <pt x="426" y="314" on="0"/>
        <pt x="387" y="314" on="1"/>
        <pt x="373" y="314" on="0"/>
      </contour>
    </TTGlyph>
    <TTGlyph name="c.smcp" xMin="45" yMin="-12" xMax="493" yMax="555">
      <contour>
        <pt x="420" y="348" on="1"/>
        <pt x="419" y="378" on="0"/>
        <pt x="403" y="431" on="0"/>
        <pt x="370" y="470" on="0"/>
        <pt x="318" y="492" on="0"/>
        <pt x="281" y="492" on="1"/>
        <pt x="208" y="492" on="0"/>
        <pt x="125" y="380" on="0"/>
        <pt x="125" y="273" on="1"/>
        <pt x="125" y="167" on="0"/>
        <pt x="210" y="54" on="0"/>
        <pt x="286" y="54" on="1"/>
        <pt x="363" y="54" on="0"/>
        <pt x="447" y="117" on="1"/>
        <pt x="478" y="98" on="0"/>
        <pt x="487" y="67" on="1"/>
        <pt x="399" y="-12" on="0"/>
        <pt x="278" y="-12" on="1"/>
        <pt x="217" y="-12" on="0"/>
        <pt x="129" y="32" on="0"/>
        <pt x="72" y="110" on="0"/>
        <pt x="45" y="217" on="0"/>
        <pt x="45" y="281" on="1"/>
        <pt x="45" y="346" on="0"/>
        <pt x="82" y="448" on="0"/>
        <pt x="146" y="518" on="0"/>
        <pt x="232" y="555" on="0"/>
        <pt x="282" y="555" on="1"/>
        <pt x="333" y="555" on="0"/>
        <pt x="412" y="526" on="0"/>
        <pt x="465" y="479" on="0"/>
        <pt x="493" y="419" on="0"/>
        <pt x="493" y="389" on="1"/>
        <pt x="493" y="343" on="0"/>
        <pt x="452" y="343" on="1"/>
        <pt x="440" y="343" on="0"/>
      </contour>
    </TTGlyph>
    <TTGlyph name="cacute" xMin="52" yMin="-12" xMax="426" yMax="722">
      <component glyphName="c" x="0" y="0" flags="0x204"/>
      <component glyphName="acute" x="52" y="0" flags="0x4"/>
    </TTGlyph>
    <TTGlyph name="cacute.smcp" xMin="45" yMin="-12" xMax="493" yMax="774">
      <component glyphName="c.smcp" x="0" y="0" flags="0x204"/>
      <component glyphName="acute" x="86" y="52" flags="0x4"/>
    </TTGlyph>
    <TTGlyph name="caron" xMin="66" yMin="543" xMax="338" yMax="718">
      <contour>
        <pt x="106" y="713" on="1"/>
        <pt x="201" y="620" on="1"/>
        <pt x="302" y="718" on="1"/>
        <pt x="326" y="710" on="0"/>
        <pt x="338" y="684" on="1"/>
        <pt x="231" y="552" on="1"/>
        <pt x="206" y="543" on="0"/>
        <pt x="167" y="551" on="1"/>
        <pt x="66" y="678" on="1"/>
        <pt x="82" y="707" on="0"/>
      </contour>
    </TTGlyph>
    <TTGlyph name="caron.alt" xMin="206" yMin="554" xMax="296" yMax="775">
      <contour>
        <pt x="206" y="566" on="1"/>
        <pt x="219" y="769" on="1"/>
        <pt x="266" y="775" on="0"/>
        <pt x="296" y="757" on="1"/>
        <pt x="252" y="563" on="1"/>
        <pt x="229" y="554" on="0"/>
      </contour>
    </TTGlyph>
    <TTGlyph name="caron.cap" xMin="53" yMin="735" xMax="346" yMax="883">
      <contour>
        <pt x="89" y="877" on="1"/>
        <pt x="199" y="802" on="1"/>
        <pt x="311" y="883" on="1"/>
        <pt x="322" y="879" on="0"/>
        <pt x="343" y="858" on="0"/>
        <pt x="346" y="847" on="1"/>
        <pt x="234" y="739" on="1"/>
        <pt x="192" y="735" on="0"/>
        <pt x="164" y="739" on="1"/>
        <pt x="53" y="843" on="1"/>
        <pt x="62" y="869" on="0"/>
      </contour>
    </TTGlyph>
    <TTGlyph name="ccaron" xMin="52" yMin="-12" xMax="426" yMax="718">
      <component glyphName="c" x="0" y="0" flags="0x204"/>
      <component glyphName="caron" x="52" y="0" flags="0x4"/>
    </TTGlyph>
    <TTGlyph name="ccaron.smcp" xMin="45" yMin="-12" xMax="493" yMax="770">
      <component glyphName="c.smcp" x="0" y="0" flags="0x204"/>
      <component glyphName="caron" x="86" y="52" flags="0x4"/>
    </TTGlyph>
    <TTGlyph name="ccedilla" xMin="52" yMin="-219" xMax="426" yMax="503">
      <contour>
        <pt x="199" y="-72" on="1"/>
        <pt x="208" y="-39" on="0"/>
        <pt x="220" y="-10" on="1"/>
        <pt x="176" y="-5" on="0"/>
        <pt x="113" y="38" on="0"/>
        <pt x="72" y="106" on="0"/>
        <pt x="52" y="192" on="0"/>
        <pt x="52" y="241" on="1"/>
        <pt x="52" y="305" on="0"/>
        <pt x="83" y="403" on="0"/>
        <pt x="138" y="469" on="0"/>
        <pt x="212" y="503" on="0"/>
        <pt x="254" y="503" on="1"/>
        <pt x="297" y="503" on="0"/>
        <pt x="361" y="476" on="0"/>
        <pt x="404" y="434" on="0"/>
        <pt x="426" y="384" on="0"/>
        <pt x="426" y="362" on="1"/>
        <pt x="426" y="314" on="0"/>
        <pt x="387" y="314" on="1"/>
        <pt x="373" y="314" on="0"/>
        <pt x="355" y="317" on="1"/>
        <pt x="355" y="328" on="1"/>
        <pt x="355" y="350" on="0"/>
        <pt x="343" y="392" on="0"/>
        <pt x="318" y="424" on="0"/>
        <pt x="279" y="443" on="0"/>
        <pt x="252" y="443" on="1"/>
        <pt x="195" y="443" on="0"/>
        <pt x="129" y="339" on="0"/>
        <pt x="129" y="243" on="1"/>
        <pt x="129" y="147" on="0"/>
        <pt x="194" y="52" on="0"/>
        <pt x="250" y="52" on="1"/>
        <pt x="309" y="52" on="0"/>
        <pt x="385" y="107" on="1"/>
        <pt x="412" y="91" on="0"/>
        <pt x="420" y="60" on="1"/>
        <pt x="358" y="1" on="0"/>
        <pt x="277" y="-10" on="1"/>
        <pt x="273" y="-17" on="0"/>
        <pt x="267" y="-32" on="0"/>
        <pt x="264" y="-40" on="1"/>
        <pt x="303" y="-43" on="0"/>
        <pt x="352" y="-89" on="0"/>
        <pt x="352" y="-128" on="1"/>
        <pt x="352" y="-168" on="0"/>
        <pt x="289" y="-219" on="0"/>
        <pt x="243" y="-219" on="1"/>
        <pt x="196" y="-219" on="0"/>
        <pt x="168" y="-200" on="1"/>
        <pt x="170" y="-176" on="0"/>
        <pt x="187" y="-156" on="1"/>
        <pt x="209" y="-170" on="0"/>
        <pt x="238" y="-170" on="1"/>
        <pt x="287" y="-170" on="0"/>
        <pt x="287" y="-126" on="1"/>
        <pt x="287" y="-83" on="0"/>
        <pt x="239" y="-83" on="1"/>
        <pt x="228" y="-83" on="0"/>
        <pt x="215" y="-88" on="1"/>
        <pt x="204" y="-84" on="0"/>
      </contour>
    </TTGlyph>
    <TTGlyph name="ccedilla.smcp" xMin="45" yMin="-219" xMax="493" yMax="555">
      <contour>
        <pt x="232" y="-72" on="1"/>
        <pt x="242" y="-36" on="0"/>
        <pt x="253" y="-11" on="1"/>
        <pt x="200" y="-7" on="0"/>
        <pt x="122" y="40" on="0"/>
        <pt x="70" y="115" on="0"/>
        <pt x="45" y="214" on="0"/>
        <pt x="45" y="270" on="1"/>
        <pt x="45" y="341" on="0"/>
        <pt x="79" y="448" on="0"/>
        <pt x="145" y="519" on="0"/>
        <pt x="232" y="555" on="0"/>
        <pt x="282" y="555" on="1"/>
        <pt x="333" y="555" on="0"/>
        <pt x="413" y="529" on="0"/>
        <pt x="465" y="479" on="0"/>
        <pt x="493" y="419" on="0"/>
        <pt x="493" y="389" on="1"/>
        <pt x="493" y="343" on="0"/>
        <pt x="452" y="343" on="1"/>
        <pt x="440" y="343" on="0"/>
        <pt x="420" y="348" on="1"/>
        <pt x="419" y="378" on="0"/>
        <pt x="403" y="431" on="0"/>
        <pt x="370" y="470" on="0"/>
        <pt x="318" y="492" on="0"/>
        <pt x="281" y="492" on="1"/>
        <pt x="208" y="492" on="0"/>
        <pt x="125" y="380" on="0"/>
        <pt x="125" y="273" on="1"/>
        <pt x="125" y="167" on="0"/>
        <pt x="210" y="54" on="0"/>
        <pt x="286" y="54" on="1"/>
        <pt x="363" y="54" on="0"/>
        <pt x="447" y="117" on="1"/>
        <pt x="478" y="98" on="0"/>
        <pt x="487" y="67" on="1"/>
        <pt x="413" y="1" on="0"/>
        <pt x="309" y="-10" on="1"/>
        <pt x="305" y="-17" on="0"/>
        <pt x="299" y="-32" on="0"/>
        <pt x="296" y="-40" on="1"/>
        <pt x="335" y="-43" on="0"/>
        <pt x="385" y="-89" on="0"/>
        <pt x="385" y="-128" on="1"/>
        <pt x="385" y="-148" on="0"/>
        <pt x="368" y="-181" on="0"/>
        <pt x="338" y="-205" on="0"/>
        <pt x="298" y="-219" on="0"/>
        <pt x="275" y="-219" on="1"/>
        <pt x="229" y="-219" on="0"/>
        <pt x="201" y="-200" on="1"/>
        <pt x="202" y="-179" on="0"/>
        <pt x="219" y="-156" on="1"/>
        <pt x="242" y="-170" on="0"/>
        <pt x="269" y="-170" on="1"/>
        <pt x="296" y="-170" on="0"/>
        <pt x="320" y="-145" on="0"/>
        <pt x="320" y="-126" on="1"/>
        <pt x="320" y="-103" on="0"/>
        <pt x="289" y="-83" on="0"/>
        <pt x="272" y="-83" on="1"/>
        <pt x="259" y="-83" on="0"/>
        <pt x="247" y="-88" on="1"/>
        <pt x="237" y="-84" on="0"/>
      </contour>
    </TTGlyph>
    <TTGlyph name="cedilla" xMin="120" yMin="-219" xMax="304" yMax="0">
      <contour>
        <pt x="151" y="-72" on="1"/>
        <pt x="161" y="-34" on="0"/>
        <pt x="177" y="0" on="1"/>
        <pt x="233" y="0" on="1"/>
        <pt x="228" y="-11" on="0"/>
        <pt x="219" y="-31" on="0"/>
        <pt x="216" y="-40" on="1"/>
        <pt x="254" y="-43" on="0"/>
        <pt x="304" y="-89" on="0"/>
        <pt x="304" y="-128" on="1"/>
        <pt x="304" y="-168" on="0"/>
        <pt x="241" y="-219" on="0"/>
        <pt x="195" y="-219" on="1"/>
        <pt x="148" y="-219" on="0"/>
        <pt x="120" y="-200" on="1"/>
        <pt x="121" y="-179" on="0"/>
        <pt x="138" y="-156" on="1"/>
        <pt x="161" y="-170" on="0"/>
        <pt x="188" y="-170" on="1"/>
        <pt x="215" y="-170" on="0"/>
        <pt x="239" y="-145" on="0"/>
        <pt x="239" y="-126" on="1"/>
        <pt x="239" y="-103" on="0"/>
        <pt x="208" y="-83" on="0"/>
        <pt x="191" y="-83" on="1"/>
        <pt x="178" y="-83" on="0"/>
        <pt x="166" y="-88" on="1"/>
        <pt x="156" y="-84" on="0"/>
      </contour>
    </TTGlyph>
    <TTGlyph name="cent" xMin="51" yMin="-32" xMax="426" yMax="683">
      <contour>
        <pt x="216" y="-30" on="1"/>
        <pt x="216" y="70" on="1"/>
        <pt x="173" y="76" on="0"/>
        <pt x="112" y="120" on="0"/>
        <pt x="71" y="189" on="0"/>
        <pt x="51" y="279" on="0"/>
        <pt x="51" y="331" on="1"/>
        <pt x="51" y="384" on="0"/>
        <pt x="76" y="470" on="0"/>
        <pt x="120" y="535" on="0"/>
        <pt x="182" y="575" on="0"/>
        <pt x="219" y="581" on="1"/>
        <pt x="219" y="680" on="1"/>
        <pt x="231" y="683" on="0"/>
        <pt x="251" y="683" on="1"/>
        <pt x="271" y="683" on="0"/>
        <pt x="286" y="680" on="1"/>
        <pt x="286" y="582" on="1"/>
        <pt x="321" y="577" on="0"/>
        <pt x="374" y="548" on="0"/>
        <pt x="408" y="508" on="0"/>
        <pt x="426" y="462" on="0"/>
        <pt x="426" y="440" on="1"/>
        <pt x="426" y="395" on="0"/>
        <pt x="386" y="395" on="1"/>
        <pt x="371" y="395" on="0"/>
        <pt x="355" y="398" on="1"/>
        <pt x="355" y="409" on="1"/>
        <pt x="355" y="433" on="0"/>
        <pt x="343" y="474" on="0"/>
        <pt x="317" y="506" on="0"/>
        <pt x="278" y="524" on="0"/>
        <pt x="251" y="524" on="1"/>
        <pt x="194" y="524" on="0"/>
        <pt x="131" y="420" on="0"/>
        <pt x="131" y="323" on="1"/>
        <pt x="131" y="133" on="0"/>
        <pt x="257" y="133" on="1"/>
        <pt x="320" y="133" on="0"/>
        <pt x="383" y="190" on="1"/>
        <pt x="395" y="184" on="0"/>
        <pt x="418" y="159" on="0"/>
        <pt x="422" y="147" on="1"/>
        <pt x="367" y="83" on="0"/>
        <pt x="283" y="70" on="1"/>
        <pt x="283" y="-30" on="1"/>
        <pt x="274" y="-32" on="0"/>
        <pt x="256" y="-32" on="0"/>
        <pt x="248" y="-32" on="1"/>
        <pt x="240" y="-32" on="0"/>
        <pt x="224" y="-32" on="0"/>
      </contour>
    </TTGlyph>
    <TTGlyph name="cent.smcp" xMin="47" yMin="-31" xMax="381" yMax="576">
      <contour>
        <pt x="191" y="-28" on="1"/>
        <pt x="191" y="51" on="1"/>
        <pt x="153" y="57" on="0"/>
        <pt x="99" y="96" on="0"/>
        <pt x="64" y="155" on="0"/>
        <pt x="47" y="232" on="0"/>
        <pt x="47" y="277" on="1"/>
        <pt x="47" y="368" on="0"/>
        <pt x="130" y="480" on="0"/>
        <pt x="194" y="492" on="1"/>
        <pt x="194" y="573" on="1"/>
        <pt x="206" y="576" on="0"/>
        <pt x="225" y="576" on="1"/>
        <pt x="243" y="576" on="0"/>
        <pt x="257" y="573" on="1"/>
        <pt x="257" y="493" on="1"/>
        <pt x="317" y="485" on="0"/>
        <pt x="381" y="415" on="0"/>
        <pt x="381" y="373" on="1"/>
        <pt x="381" y="331" on="0"/>
        <pt x="342" y="331" on="1"/>
        <pt x="337" y="331" on="0"/>
        <pt x="321" y="333" on="0"/>
        <pt x="311" y="335" on="1"/>
        <pt x="311" y="345" on="1"/>
        <pt x="311" y="382" on="0"/>
        <pt x="271" y="437" on="0"/>
        <pt x="225" y="437" on="1"/>
        <pt x="178" y="437" on="0"/>
        <pt x="124" y="350" on="0"/>
        <pt x="124" y="271" on="1"/>
        <pt x="124" y="193" on="0"/>
        <pt x="179" y="112" on="0"/>
        <pt x="232" y="112" on="1"/>
        <pt x="285" y="112" on="0"/>
        <pt x="341" y="154" on="1"/>
        <pt x="367" y="141" on="0"/>
        <pt x="378" y="112" on="1"/>
        <pt x="327" y="61" on="0"/>
        <pt x="255" y="51" on="1"/>
        <pt x="255" y="-28" on="1"/>
        <pt x="240" y="-31" on="0"/>
        <pt x="222" y="-31" on="1"/>
        <pt x="203" y="-31" on="0"/>
      </contour>
    </TTGlyph>
    <TTGlyph name="circumflex" xMin="62" yMin="538" xMax="334" yMax="712">
      <contour>
        <pt x="294" y="543" on="1"/>
        <pt x="199" y="637" on="1"/>
        <pt x="98" y="538" on="1"/>
        <pt x="74" y="548" on="0"/>
        <pt x="62" y="573" on="1"/>
        <pt x="168" y="705" on="1"/>
        <pt x="193" y="712" on="0"/>
        <pt x="233" y="706" on="1"/>
        <pt x="334" y="579" on="1"/>
        <pt x="321" y="553" on="0"/>
      </contour>
    </TTGlyph>
    <TTGlyph name="circumflex.cap" xMin="52" yMin="732" xMax="345" yMax="882">
      <contour>
        <pt x="308" y="738" on="1"/>
        <pt x="199" y="813" on="1"/>
        <pt x="86" y="732" on="1"/>
        <pt x="58" y="744" on="0"/>
        <pt x="52" y="768" on="1"/>
        <pt x="163" y="876" on="1"/>
        <pt x="198" y="882" on="0"/>
        <pt x="234" y="876" on="1"/>
        <pt x="345" y="773" on="1"/>
        <pt x="336" y="746" on="0"/>
      </contour>
    </TTGlyph>
    <TTGlyph name="colon" xMin="67" yMin="-7" xMax="187" yMax="442">
      <contour>
        <pt x="75" y="3" on="1"/>
        <pt x="67" y="17" on="0"/>
        <pt x="67" y="47" on="1"/>
        <pt x="67" y="68" on="0"/>
        <pt x="76" y="91" on="0"/>
        <pt x="93" y="101" on="0"/>
        <pt x="115" y="102" on="0"/>
        <pt x="128" y="102" on="1"/>
        <pt x="141" y="102" on="0"/>
        <pt x="162" y="101" on="0"/>
        <pt x="178" y="90" on="0"/>
        <pt x="187" y="68" on="0"/>
        <pt x="187" y="47" on="1"/>
        <pt x="187" y="28" on="0"/>
        <pt x="181" y="6" on="0"/>
        <pt x="167" y="-4" on="0"/>
        <pt x="145" y="-7" on="0"/>
        <pt x="129" y="-7" on="1"/>
        <pt x="94" y="-7" on="0"/>
      </contour>
      <contour>
        <pt x="75" y="343" on="1"/>
        <pt x="67" y="357" on="0"/>
        <pt x="67" y="387" on="1"/>
        <pt x="67" y="408" on="0"/>
        <pt x="76" y="431" on="0"/>
        <pt x="93" y="441" on="0"/>
        <pt x="115" y="442" on="0"/>
        <pt x="128" y="442" on="1"/>
        <pt x="141" y="442" on="0"/>
        <pt x="162" y="441" on="0"/>
        <pt x="178" y="430" on="0"/>
        <pt x="187" y="408" on="0"/>
        <pt x="187" y="387" on="1"/>
        <pt x="187" y="368" on="0"/>
        <pt x="181" y="346" on="0"/>
        <pt x="167" y="336" on="0"/>
        <pt x="145" y="333" on="0"/>
        <pt x="129" y="333" on="1"/>
        <pt x="94" y="333" on="0"/>
      </contour>
    </TTGlyph>
    <TTGlyph name="comma" xMin="40" yMin="-151" xMax="192" yMax="102">
      <contour>
        <pt x="181" y="91" on="1"/>
        <pt x="192" y="71" on="0"/>
        <pt x="192" y="32" on="1"/>
        <pt x="192" y="-29" on="0"/>
        <pt x="125" y="-127" on="0"/>
        <pt x="61" y="-151" on="1"/>
        <pt x="49" y="-144" on="0"/>
        <pt x="40" y="-124" on="0"/>
        <pt x="40" y="-110" on="1"/>
        <pt x="116" y="-72" on="0"/>
        <pt x="117" y="-9" on="1"/>
        <pt x="101" y="-6" on="0"/>
        <pt x="83" y="1" on="0"/>
        <pt x="73" y="13" on="0"/>
        <pt x="70" y="33" on="0"/>
        <pt x="70" y="48" on="1"/>
        <pt x="70" y="69" on="0"/>
        <pt x="80" y="91" on="0"/>
        <pt x="97" y="101" on="0"/>
        <pt x="120" y="102" on="0"/>
        <pt x="133" y="102" on="1"/>
        <pt x="165" y="102" on="0"/>
      </contour>
    </TTGlyph>
    <TTGlyph name="commaaccent" xMin="119" yMin="-248" xMax="253" yMax="-45">
      <contour>
        <pt x="245" y="-58" on="1"/>
        <pt x="253" y="-76" on="0"/>
        <pt x="253" y="-149" on="0"/>
        <pt x="195" y="-225" on="0"/>
        <pt x="145" y="-248" on="1"/>
        <pt x="124" y="-240" on="0"/>
        <pt x="119" y="-214" on="1"/>
        <pt x="175" y="-174" on="0"/>
        <pt x="175" y="-120" on="1"/>
        <pt x="175" y="-92" on="0"/>
        <pt x="162" y="-68" on="1"/>
        <pt x="199" y="-45" on="0"/>
      </contour>
    </TTGlyph>
    <TTGlyph name="commaaccent.cap" xMin="119" yMin="-248" xMax="253" yMax="-45">
      <contour>
        <pt x="245" y="-58" on="1"/>
        <pt x="253" y="-76" on="0"/>
        <pt x="253" y="-149" on="0"/>
        <pt x="195" y="-225" on="0"/>
        <pt x="145" y="-248" on="1"/>
        <pt x="124" y="-240" on="0"/>
        <pt x="119" y="-214" on="1"/>
        <pt x="175" y="-174" on="0"/>
        <pt x="175" y="-120" on="1"/>
        <pt x="175" y="-92" on="0"/>
        <pt x="162" y="-68" on="1"/>
        <pt x="199" y="-45" on="0"/>
      </contour>
    </TTGlyph>
    <TTGlyph name="copyright" xMin="45" yMin="-18" xMax="765" yMax="701">
      <contour>
        <pt x="148" y="85" on="1"/>
        <pt x="45" y="188" on="0"/>
        <pt x="45" y="341" on="1"/>
        <pt x="45" y="416" on="0"/>
        <pt x="100" y="548" on="0"/>
        <pt x="197" y="645" on="0"/>
        <pt x="328" y="701" on="0"/>
        <pt x="404" y="701" on="1"/>
        <pt x="479" y="701" on="0"/>
        <pt x="611" y="645" on="0"/>
        <pt x="709" y="547" on="0"/>
        <pt x="765" y="416" on="0"/>
        <pt x="765" y="341" on="1"/>
        <pt x="765" y="266" on="0"/>
        <pt x="709" y="135" on="0"/>
        <pt x="611" y="38" on="0"/>
        <pt x="480" y="-18" on="0"/>
        <pt x="404" y="-18" on="1"/>
        <pt x="251" y="-18" on="0"/>
      </contour>
      <contour>
        <pt x="198" y="555" on="1"/>
        <pt x="115" y="466" on="0"/>
        <pt x="115" y="341" on="1"/>
        <pt x="115" y="279" on="0"/>
        <pt x="159" y="169" on="0"/>
        <pt x="237" y="87" on="0"/>
        <pt x="342" y="39" on="0"/>
        <pt x="404" y="39" on="1"/>
        <pt x="466" y="39" on="0"/>
        <pt x="573" y="87" on="0"/>
        <pt x="651" y="170" on="0"/>
        <pt x="695" y="279" on="0"/>
        <pt x="695" y="341" on="1"/>
        <pt x="695" y="402" on="0"/>
        <pt x="650" y="513" on="0"/>
        <pt x="572" y="595" on="0"/>
        <pt x="466" y="644" on="0"/>
        <pt x="404" y="644" on="1"/>
        <pt x="281" y="644" on="0"/>
      </contour>
      <contour>
        <pt x="491" y="389" on="1"/>
        <pt x="491" y="398" on="1"/>
        <pt x="491" y="433" on="0"/>
        <pt x="449" y="488" on="0"/>
        <pt x="404" y="488" on="1"/>
        <pt x="358" y="488" on="0"/>
        <pt x="303" y="414" on="0"/>
        <pt x="303" y="342" on="1"/>
        <pt x="303" y="271" on="0"/>
        <pt x="359" y="197" on="0"/>
        <pt x="414" y="197" on="1"/>
        <pt x="469" y="197" on="0"/>
        <pt x="519" y="242" on="1"/>
        <pt x="541" y="231" on="0"/>
        <pt x="552" y="203" on="1"/>
        <pt x="525" y="175" on="0"/>
        <pt x="444" y="140" on="0"/>
        <pt x="402" y="140" on="1"/>
        <pt x="323" y="140" on="0"/>
        <pt x="231" y="250" on="0"/>
        <pt x="231" y="344" on="1"/>
        <pt x="231" y="392" on="0"/>
        <pt x="260" y="466" on="0"/>
        <pt x="308" y="517" on="0"/>
        <pt x="372" y="544" on="0"/>
        <pt x="407" y="544" on="1"/>
        <pt x="443" y="544" on="0"/>
        <pt x="498" y="522" on="0"/>
        <pt x="536" y="487" on="0"/>
        <pt x="556" y="445" on="0"/>
        <pt x="556" y="425" on="1"/>
        <pt x="556" y="384" on="0"/>
        <pt x="521" y="384" on="1"/>
        <pt x="506" y="384" on="0"/>
      </contour>
    </TTGlyph>
    <TTGlyph name="currency" xMin="37" yMin="90" xMax="529" yMax="581">
      <contour>
        <pt x="109" y="459" on="1"/>
        <pt x="37" y="536" on="1"/>
        <pt x="54" y="565" on="0"/>
        <pt x="81" y="580" on="1"/>
        <pt x="158" y="508" on="1"/>
        <pt x="213" y="546" on="0"/>
        <pt x="281" y="546" on="1"/>
        <pt x="351" y="546" on="0"/>
        <pt x="406" y="509" on="1"/>
        <pt x="484" y="581" on="1"/>
        <pt x="515" y="564" on="0"/>
        <pt x="528" y="537" on="1"/>
        <pt x="456" y="460" on="1"/>
        <pt x="476" y="431" on="0"/>
        <pt x="495" y="366" on="0"/>
        <pt x="495" y="334" on="1"/>
        <pt x="495" y="266" on="0"/>
        <pt x="457" y="211" on="1"/>
        <pt x="529" y="134" on="1"/>
        <pt x="516" y="109" on="0"/>
        <pt x="485" y="90" on="1"/>
        <pt x="408" y="162" on="1"/>
        <pt x="352" y="124" on="0"/>
        <pt x="283" y="124" on="1"/>
        <pt x="214" y="124" on="0"/>
        <pt x="158" y="162" on="1"/>
        <pt x="81" y="90" on="1"/>
        <pt x="67" y="98" on="0"/>
        <pt x="45" y="120" on="0"/>
        <pt x="37" y="134" on="1"/>
        <pt x="109" y="211" on="1"/>
        <pt x="89" y="238" on="0"/>
        <pt x="71" y="302" on="0"/>
        <pt x="71" y="335" on="1"/>
        <pt x="71" y="368" on="0"/>
        <pt x="89" y="431" on="0"/>
      </contour>
      <contour>
        <pt x="283" y="488" on="1"/>
        <pt x="253" y="488" on="0"/>
        <pt x="204" y="464" on="0"/>
        <pt x="169" y="423" on="0"/>
        <pt x="149" y="367" on="0"/>
        <pt x="149" y="335" on="1"/>
        <pt x="149" y="304" on="0"/>
        <pt x="168" y="249" on="0"/>
        <pt x="203" y="207" on="0"/>
        <pt x="252" y="183" on="0"/>
        <pt x="283" y="183" on="1"/>
        <pt x="313" y="183" on="0"/>
        <pt x="363" y="207" on="0"/>
        <pt x="398" y="249" on="0"/>
        <pt x="417" y="304" on="0"/>
        <pt x="417" y="335" on="1"/>
        <pt x="417" y="367" on="0"/>
        <pt x="397" y="423" on="0"/>
        <pt x="362" y="464" on="0"/>
        <pt x="313" y="488" on="0"/>
      </contour>
    </TTGlyph>
    <TTGlyph name="currency.smcp" xMin="23" yMin="62" xMax="434" yMax="474">
      <contour>
        <pt x="81" y="368" on="1"/>
        <pt x="23" y="430" on="1"/>
        <pt x="40" y="459" on="0"/>
        <pt x="66" y="472" on="1"/>
        <pt x="128" y="414" on="1"/>
        <pt x="171" y="442" on="0"/>
        <pt x="228" y="442" on="1"/>
        <pt x="283" y="442" on="0"/>
        <pt x="327" y="415" on="1"/>
        <pt x="391" y="474" on="1"/>
        <pt x="419" y="458" on="0"/>
        <pt x="434" y="432" on="1"/>
        <pt x="376" y="367" on="1"/>
        <pt x="405" y="323" on="0"/>
        <pt x="405" y="268" on="1"/>
        <pt x="405" y="213" on="0"/>
        <pt x="375" y="168" on="1"/>
        <pt x="434" y="105" on="1"/>
        <pt x="423" y="82" on="0"/>
        <pt x="391" y="62" on="1"/>
        <pt x="328" y="121" on="1"/>
        <pt x="287" y="94" on="0"/>
        <pt x="230" y="94" on="1"/>
        <pt x="172" y="94" on="0"/>
        <pt x="129" y="121" on="1"/>
        <pt x="66" y="63" on="1"/>
        <pt x="43" y="76" on="0"/>
        <pt x="23" y="105" on="1"/>
        <pt x="81" y="168" on="1"/>
        <pt x="66" y="189" on="0"/>
        <pt x="52" y="241" on="0"/>
        <pt x="52" y="268" on="1"/>
        <pt x="52" y="295" on="0"/>
        <pt x="66" y="346" on="0"/>
      </contour>
      <contour>
        <pt x="155" y="352" on="1"/>
        <pt x="128" y="317" on="0"/>
        <pt x="128" y="268" on="1"/>
        <pt x="128" y="219" on="0"/>
        <pt x="180" y="151" on="0"/>
        <pt x="228" y="151" on="1"/>
        <pt x="252" y="151" on="0"/>
        <pt x="290" y="170" on="0"/>
        <pt x="316" y="201" on="0"/>
        <pt x="330" y="243" on="0"/>
        <pt x="330" y="267" on="1"/>
        <pt x="330" y="291" on="0"/>
        <pt x="316" y="334" on="0"/>
        <pt x="289" y="367" on="0"/>
        <pt x="252" y="386" on="0"/>
        <pt x="228" y="386" on="1"/>
        <pt x="182" y="386" on="0"/>
      </contour>
    </TTGlyph>
    <TTGlyph name="d" xMin="51" yMin="-12" xMax="463" yMax="735">
      <contour>
        <pt x="238" y="499" on="1"/>
        <pt x="298" y="499" on="0"/>
        <pt x="363" y="458" on="1"/>
        <pt x="363" y="729" on="1"/>
        <pt x="369" y="735" on="1"/>
        <pt x="396" y="735" on="1"/>
        <pt x="419" y="735" on="0"/>
        <pt x="435" y="712" on="0"/>
        <pt x="435" y="685" on="1"/>
        <pt x="435" y="138" on="1"/>
        <pt x="435" y="59" on="0"/>
        <pt x="463" y="31" on="1"/>
        <pt x="453" y="4" on="0"/>
        <pt x="430" y="-7" on="1"/>
        <pt x="384" y="9" on="0"/>
        <pt x="369" y="60" on="1"/>
        <pt x="307" y="-12" on="0"/>
        <pt x="223" y="-12" on="1"/>
        <pt x="136" y="-12" on="0"/>
        <pt x="51" y="124" on="0"/>
        <pt x="51" y="245" on="1"/>
        <pt x="51" y="306" on="0"/>
        <pt x="83" y="401" on="0"/>
        <pt x="135" y="466" on="0"/>
        <pt x="202" y="499" on="0"/>
      </contour>
      <contour>
        <pt x="233" y="52" on="1"/>
        <pt x="267" y="52" on="0"/>
        <pt x="338" y="93" on="0"/>
        <pt x="363" y="129" on="1"/>
        <pt x="363" y="390" on="1"/>
        <pt x="297" y="435" on="0"/>
        <pt x="247" y="435" on="1"/>
        <pt x="196" y="435" on="0"/>
        <pt x="126" y="338" on="0"/>
        <pt x="126" y="241" on="1"/>
        <pt x="126" y="144" on="0"/>
        <pt x="187" y="52" on="0"/>
      </contour>
    </TTGlyph>
    <TTGlyph name="d.smcp" xMin="91" yMin="-3" xMax="523" yMax="546">
      <contour>
        <pt x="274" y="-3" on="1"/>
        <pt x="208" y="-3" on="0"/>
        <pt x="96" y="0" on="1"/>
        <pt x="91" y="5" on="1"/>
        <pt x="91" y="537" on="1"/>
        <pt x="96" y="543" on="1"/>
        <pt x="210" y="546" on="0"/>
        <pt x="262" y="546" on="1"/>
        <pt x="344" y="546" on="0"/>
        <pt x="444" y="502" on="0"/>
        <pt x="502" y="427" on="0"/>
        <pt x="523" y="327" on="0"/>
        <pt x="523" y="270" on="1"/>
        <pt x="523" y="215" on="0"/>
        <pt x="503" y="116" on="0"/>
        <pt x="448" y="41" on="0"/>
        <pt x="351" y="-3" on="0"/>
      </contour>
      <contour>
        <pt x="167" y="57" on="1"/>
        <pt x="273" y="58" on="1"/>
        <pt x="323" y="58" on="0"/>
        <pt x="388" y="91" on="0"/>
        <pt x="428" y="148" on="0"/>
        <pt x="443" y="225" on="0"/>
        <pt x="443" y="270" on="1"/>
        <pt x="443" y="381" on="0"/>
        <pt x="359" y="482" on="0"/>
        <pt x="273" y="483" on="1"/>
        <pt x="167" y="484" on="1"/>
      </contour>
    </TTGlyph>
    <TTGlyph name="dcaron" xMin="51" yMin="-12" xMax="588" yMax="775">
      <component glyphName="d" x="0" y="0" flags="0x4"/>
      <component glyphName="caron.alt" x="292" y="0" flags="0x4"/>
    </TTGlyph>
    <TTGlyph name="dcaron.smcp" xMin="91" yMin="-3" xMax="523" yMax="770">
      <component glyphName="d.smcp" x="0" y="0" flags="0x204"/>
      <component glyphName="caron" x="71" y="52" flags="0x4"/>
    </TTGlyph>
    <TTGlyph name="degree" xMin="20" yMin="392" xMax="294" yMax="670">
      <contour>
        <pt x="59" y="432" on="1"/>
        <pt x="20" y="472" on="0"/>
        <pt x="20" y="531" on="1"/>
        <pt x="20" y="560" on="0"/>
        <pt x="41" y="611" on="0"/>
        <pt x="78" y="648" on="0"/>
        <pt x="128" y="670" on="0"/>
        <pt x="157" y="670" on="1"/>
        <pt x="186" y="670" on="0"/>
        <pt x="236" y="649" on="0"/>
        <pt x="274" y="610" on="0"/>
        <pt x="294" y="559" on="0"/>
        <pt x="294" y="531" on="1"/>
        <pt x="294" y="502" on="0"/>
        <pt x="273" y="451" on="0"/>
        <pt x="236" y="414" on="0"/>
        <pt x="186" y="392" on="0"/>
        <pt x="157" y="392" on="1"/>
        <pt x="99" y="392" on="0"/>
      </contour>
      <contour>
        <pt x="156" y="614" on="1"/>
        <pt x="123" y="614" on="0"/>
        <pt x="82" y="567" on="0"/>
        <pt x="82" y="530" on="1"/>
        <pt x="82" y="494" on="0"/>
        <pt x="123" y="448" on="0"/>
        <pt x="156" y="448" on="1"/>
        <pt x="190" y="448" on="0"/>
        <pt x="231" y="495" on="0"/>
        <pt x="231" y="531" on="1"/>
        <pt x="231" y="567" on="0"/>
        <pt x="190" y="614" on="0"/>
      </contour>
    </TTGlyph>
    <TTGlyph name="dieresis" xMin="64" yMin="563" xMax="334" yMax="649">
      <contour>
        <pt x="248" y="640" on="1"/>
        <pt x="263" y="649" on="0"/>
        <pt x="288" y="649" on="1"/>
        <pt x="319" y="649" on="0"/>
        <pt x="334" y="624" on="0"/>
        <pt x="334" y="605" on="1"/>
        <pt x="334" y="585" on="0"/>
        <pt x="318" y="563" on="0"/>
        <pt x="288" y="563" on="1"/>
        <pt x="271" y="563" on="0"/>
        <pt x="252" y="570" on="0"/>
        <pt x="243" y="582" on="0"/>
        <pt x="241" y="597" on="0"/>
        <pt x="241" y="606" on="1"/>
        <pt x="241" y="623" on="0"/>
      </contour>
      <contour>
        <pt x="71" y="640" on="1"/>
        <pt x="78" y="645" on="0"/>
        <pt x="99" y="649" on="0"/>
        <pt x="110" y="649" on="1"/>
        <pt x="133" y="649" on="0"/>
        <pt x="150" y="640" on="1"/>
        <pt x="153" y="631" on="0"/>
        <pt x="157" y="613" on="0"/>
        <pt x="157" y="605" on="1"/>
        <pt x="157" y="584" on="0"/>
        <pt x="140" y="563" on="0"/>
        <pt x="110" y="563" on="1"/>
        <pt x="93" y="563" on="0"/>
        <pt x="75" y="570" on="0"/>
        <pt x="66" y="582" on="0"/>
        <pt x="64" y="598" on="0"/>
        <pt x="64" y="606" on="1"/>
        <pt x="64" y="623" on="0"/>
      </contour>
    </TTGlyph>
    <TTGlyph name="dieresis.cap" xMin="52" yMin="737" xMax="346" yMax="826">
      <contour>
        <pt x="257" y="818" on="1"/>
        <pt x="263" y="822" on="0"/>
        <pt x="285" y="826" on="0"/>
        <pt x="297" y="826" on="1"/>
        <pt x="322" y="826" on="0"/>
        <pt x="340" y="818" on="1"/>
        <pt x="346" y="798" on="0"/>
        <pt x="346" y="781" on="1"/>
        <pt x="346" y="772" on="0"/>
        <pt x="345" y="756" on="0"/>
        <pt x="337" y="744" on="0"/>
        <pt x="316" y="737" on="0"/>
        <pt x="297" y="737" on="1"/>
        <pt x="278" y="737" on="0"/>
        <pt x="259" y="745" on="0"/>
        <pt x="250" y="757" on="0"/>
        <pt x="249" y="773" on="0"/>
        <pt x="249" y="781" on="1"/>
        <pt x="249" y="802" on="0"/>
      </contour>
      <contour>
        <pt x="58" y="818" on="1"/>
        <pt x="66" y="822" on="0"/>
        <pt x="89" y="826" on="0"/>
        <pt x="101" y="826" on="1"/>
        <pt x="118" y="826" on="0"/>
        <pt x="137" y="819" on="0"/>
        <pt x="146" y="807" on="0"/>
        <pt x="148" y="790" on="0"/>
        <pt x="148" y="781" on="1"/>
        <pt x="148" y="773" on="0"/>
        <pt x="148" y="757" on="0"/>
        <pt x="139" y="745" on="0"/>
        <pt x="119" y="737" on="0"/>
        <pt x="100" y="737" on="1"/>
        <pt x="80" y="737" on="0"/>
        <pt x="61" y="745" on="0"/>
        <pt x="52" y="757" on="0"/>
        <pt x="52" y="773" on="0"/>
        <pt x="52" y="781" on="1"/>
        <pt x="52" y="797" on="0"/>
      </contour>
    </TTGlyph>
    <TTGlyph name="divide" xMin="55" yMin="64" xMax="475" yMax="515">
      <contour>
        <pt x="221" y="431" on="1"/>
        <pt x="213" y="447" on="0"/>
        <pt x="213" y="488" on="0"/>
        <pt x="221" y="504" on="1"/>
        <pt x="235" y="515" on="0"/>
        <pt x="296" y="515" on="0"/>
        <pt x="309" y="504" on="1"/>
        <pt x="316" y="490" on="0"/>
        <pt x="316" y="445" on="0"/>
        <pt x="309" y="431" on="1"/>
        <pt x="296" y="420" on="0"/>
        <pt x="235" y="420" on="0"/>
      </contour>
      <contour>
        <pt x="221" y="75" on="1"/>
        <pt x="213" y="91" on="0"/>
        <pt x="213" y="132" on="0"/>
        <pt x="221" y="148" on="1"/>
        <pt x="235" y="159" on="0"/>
        <pt x="296" y="159" on="0"/>
        <pt x="309" y="148" on="1"/>
        <pt x="316" y="134" on="0"/>
        <pt x="316" y="89" on="0"/>
        <pt x="309" y="75" on="1"/>
        <pt x="298" y="64" on="0"/>
        <pt x="235" y="64" on="0"/>
      </contour>
      <contour>
        <pt x="471" y="257" on="1"/>
        <pt x="59" y="257" on="1"/>
        <pt x="55" y="269" on="0"/>
        <pt x="55" y="311" on="0"/>
        <pt x="59" y="326" on="1"/>
        <pt x="471" y="326" on="1"/>
        <pt x="475" y="311" on="0"/>
        <pt x="475" y="269" on="0"/>
      </contour>
    </TTGlyph>
    <TTGlyph name="dollar" xMin="39" yMin="-40" xMax="447" yMax="690">
      <contour>
        <pt x="39" y="101" on="1"/>
        <pt x="40" y="137" on="0"/>
        <pt x="71" y="161" on="1"/>
        <pt x="168" y="104" on="0"/>
        <pt x="254" y="104" on="1"/>
        <pt x="305" y="104" on="0"/>
        <pt x="370" y="146" on="0"/>
        <pt x="370" y="185" on="1"/>
        <pt x="370" y="217" on="0"/>
        <pt x="327" y="266" on="0"/>
        <pt x="282" y="282" on="1"/>
        <pt x="179" y="319" on="1"/>
        <pt x="62" y="361" on="0"/>
        <pt x="62" y="456" on="1"/>
        <pt x="62" y="513" on="0"/>
        <pt x="137" y="593" on="0"/>
        <pt x="206" y="603" on="1"/>
        <pt x="206" y="687" on="1"/>
        <pt x="211" y="689" on="0"/>
        <pt x="229" y="690" on="0"/>
        <pt x="238" y="690" on="1"/>
        <pt x="260" y="690" on="0"/>
        <pt x="272" y="687" on="1"/>
        <pt x="272" y="605" on="1"/>
        <pt x="349" y="600" on="0"/>
        <pt x="427" y="563" on="1"/>
        <pt x="427" y="525" on="0"/>
        <pt x="399" y="503" on="1"/>
        <pt x="320" y="541" on="0"/>
        <pt x="245" y="541" on="1"/>
        <pt x="196" y="541" on="0"/>
        <pt x="137" y="499" on="0"/>
        <pt x="137" y="466" on="1"/>
        <pt x="137" y="433" on="0"/>
        <pt x="175" y="400" on="0"/>
        <pt x="218" y="385" on="1"/>
        <pt x="318" y="349" on="1"/>
        <pt x="375" y="329" on="0"/>
        <pt x="447" y="250" on="0"/>
        <pt x="447" y="189" on="1"/>
        <pt x="447" y="159" on="0"/>
        <pt x="423" y="106" on="0"/>
        <pt x="377" y="65" on="0"/>
        <pt x="310" y="40" on="0"/>
        <pt x="268" y="39" on="1"/>
        <pt x="268" y="-38" on="1"/>
        <pt x="260" y="-40" on="0"/>
        <pt x="243" y="-40" on="0"/>
        <pt x="234" y="-40" on="1"/>
        <pt x="226" y="-40" on="0"/>
        <pt x="209" y="-40" on="0"/>
        <pt x="202" y="-38" on="1"/>
        <pt x="202" y="42" on="1"/>
        <pt x="107" y="54" on="0"/>
      </contour>
    </TTGlyph>
    <TTGlyph name="dollar.smcp" xMin="35" yMin="-33" xMax="393" yMax="579">
      <contour>
        <pt x="35" y="80" on="1"/>
        <pt x="36" y="95" on="0"/>
        <pt x="53" y="131" on="0"/>
        <pt x="64" y="139" on="1"/>
        <pt x="144" y="95" on="0"/>
        <pt x="223" y="95" on="1"/>
        <pt x="316" y="95" on="0"/>
        <pt x="316" y="154" on="1"/>
        <pt x="316" y="180" on="0"/>
        <pt x="280" y="215" on="0"/>
        <pt x="244" y="228" on="1"/>
        <pt x="157" y="259" on="1"/>
        <pt x="104" y="278" on="0"/>
        <pt x="52" y="339" on="0"/>
        <pt x="52" y="380" on="1"/>
        <pt x="52" y="429" on="0"/>
        <pt x="120" y="499" on="0"/>
        <pt x="180" y="509" on="1"/>
        <pt x="180" y="576" on="1"/>
        <pt x="185" y="578" on="0"/>
        <pt x="202" y="579" on="0"/>
        <pt x="210" y="579" on="1"/>
        <pt x="229" y="579" on="0"/>
        <pt x="241" y="576" on="1"/>
        <pt x="241" y="511" on="1"/>
        <pt x="276" y="509" on="0"/>
        <pt x="343" y="492" on="0"/>
        <pt x="377" y="476" on="1"/>
        <pt x="377" y="435" on="0"/>
        <pt x="348" y="415" on="1"/>
        <pt x="308" y="433" on="0"/>
        <pt x="242" y="449" on="0"/>
        <pt x="216" y="449" on="1"/>
        <pt x="172" y="449" on="0"/>
        <pt x="129" y="413" on="0"/>
        <pt x="129" y="389" on="1"/>
        <pt x="129" y="362" on="0"/>
        <pt x="162" y="337" on="0"/>
        <pt x="198" y="324" on="1"/>
        <pt x="273" y="297" on="1"/>
        <pt x="393" y="253" on="0"/>
        <pt x="393" y="161" on="1"/>
        <pt x="393" y="104" on="0"/>
        <pt x="310" y="36" on="0"/>
        <pt x="238" y="31" on="1"/>
        <pt x="238" y="-31" on="1"/>
        <pt x="230" y="-33" on="0"/>
        <pt x="215" y="-33" on="0"/>
        <pt x="207" y="-33" on="1"/>
        <pt x="199" y="-33" on="0"/>
        <pt x="184" y="-33" on="0"/>
        <pt x="177" y="-31" on="1"/>
        <pt x="177" y="32" on="1"/>
        <pt x="97" y="41" on="0"/>
      </contour>
    </TTGlyph>
    <TTGlyph name="dotaccent" xMin="147" yMin="577" xMax="251" yMax="672">
      <contour>
        <pt x="154" y="662" on="1"/>
        <pt x="170" y="672" on="0"/>
        <pt x="200" y="672" on="1"/>
        <pt x="229" y="672" on="0"/>
        <pt x="251" y="654" on="0"/>
        <pt x="251" y="625" on="1"/>
        <pt x="251" y="596" on="0"/>
        <pt x="227" y="577" on="0"/>
        <pt x="200" y="577" on="1"/>
        <pt x="176" y="577" on="0"/>
        <pt x="147" y="592" on="0"/>
        <pt x="147" y="625" on="1"/>
        <pt x="147" y="648" on="0"/>
      </contour>
    </TTGlyph>
    <TTGlyph name="dotaccent.alt" xMin="149" yMin="298" xMax="250" yMax="400">
      <contour>
        <pt x="155" y="390" on="1"/>
        <pt x="180" y="400" on="0"/>
        <pt x="200" y="400" on="1"/>
        <pt x="215" y="400" on="0"/>
        <pt x="237" y="393" on="0"/>
        <pt x="245" y="389" on="0"/>
        <pt x="250" y="367" on="0"/>
        <pt x="250" y="349" on="1"/>
        <pt x="248" y="311" on="0"/>
        <pt x="235" y="301" on="0"/>
        <pt x="201" y="298" on="1"/>
        <pt x="189" y="298" on="0"/>
        <pt x="170" y="302" on="0"/>
        <pt x="155" y="306" on="0"/>
        <pt x="149" y="329" on="0"/>
        <pt x="149" y="349" on="1"/>
        <pt x="149" y="378" on="0"/>
      </contour>
    </TTGlyph>
    <TTGlyph name="dotaccent.cap" xMin="147" yMin="744" xMax="251" yMax="839">
      <contour>
        <pt x="154" y="754" on="1"/>
        <pt x="150" y="762" on="0"/>
        <pt x="147" y="781" on="0"/>
        <pt x="147" y="791" on="1"/>
        <pt x="147" y="820" on="0"/>
        <pt x="170" y="839" on="0"/>
        <pt x="200" y="839" on="1"/>
        <pt x="231" y="839" on="0"/>
        <pt x="251" y="818" on="0"/>
        <pt x="251" y="791" on="1"/>
        <pt x="251" y="768" on="0"/>
        <pt x="235" y="744" on="0"/>
        <pt x="201" y="744" on="1"/>
        <pt x="170" y="744" on="0"/>
      </contour>
    </TTGlyph>
    <TTGlyph name="dotlessi" xMin="42" yMin="-3" xMax="170" yMax="494">
      <contour>
        <pt x="170" y="422" on="1"/>
        <pt x="170" y="0" on="1"/>
        <pt x="155" y="-3" on="0"/>
        <pt x="133" y="-3" on="1"/>
        <pt x="111" y="-3" on="0"/>
        <pt x="96" y="0" on="1"/>
        <pt x="96" y="386" on="1"/>
        <pt x="96" y="414" on="0"/>
        <pt x="78" y="434" on="0"/>
        <pt x="55" y="434" on="1"/>
        <pt x="46" y="434" on="1"/>
        <pt x="42" y="445" on="0"/>
        <pt x="42" y="461" on="1"/>
        <pt x="42" y="477" on="0"/>
        <pt x="46" y="489" on="1"/>
        <pt x="65" y="491" on="0"/>
        <pt x="89" y="494" on="0"/>
        <pt x="96" y="494" on="1"/>
        <pt x="104" y="494" on="1"/>
        <pt x="135" y="494" on="0"/>
        <pt x="170" y="455" on="0"/>
      </contour>
    </TTGlyph>
    <TTGlyph name="e" xMin="52" yMin="-12" xMax="445" yMax="503">
      <contour>
        <pt x="440" y="223" on="1"/>
        <pt x="130" y="223" on="1"/>
        <pt x="135" y="53" on="0"/>
        <pt x="259" y="53" on="1"/>
        <pt x="327" y="53" on="0"/>
        <pt x="404" y="95" on="1"/>
        <pt x="426" y="75" on="0"/>
        <pt x="431" y="44" on="1"/>
        <pt x="349" y="-12" on="0"/>
        <pt x="247" y="-12" on="1"/>
        <pt x="195" y="-12" on="0"/>
        <pt x="121" y="27" on="0"/>
        <pt x="74" y="96" on="0"/>
        <pt x="52" y="190" on="0"/>
        <pt x="52" y="246" on="1"/>
        <pt x="52" y="303" on="0"/>
        <pt x="79" y="397" on="0"/>
        <pt x="131" y="465" on="0"/>
        <pt x="204" y="503" on="0"/>
        <pt x="251" y="503" on="1"/>
        <pt x="297" y="503" on="0"/>
        <pt x="370" y="470" on="0"/>
        <pt x="419" y="413" on="0"/>
        <pt x="445" y="334" on="0"/>
        <pt x="445" y="289" on="1"/>
        <pt x="445" y="271" on="0"/>
        <pt x="442" y="238" on="0"/>
      </contour>
      <contour>
        <pt x="130" y="280" on="1"/>
        <pt x="370" y="280" on="1"/>
        <pt x="370" y="293" on="1"/>
        <pt x="370" y="362" on="0"/>
        <pt x="312" y="446" on="0"/>
        <pt x="254" y="446" on="1"/>
        <pt x="197" y="446" on="0"/>
        <pt x="134" y="356" on="0"/>
      </contour>
    </TTGlyph>
    <TTGlyph name="e.smcp" xMin="91" yMin="0" xMax="455" yMax="542">
      <contour>
        <pt x="166" y="99" on="1"/>
        <pt x="165" y="63" on="1"/>
        <pt x="180" y="64" on="0"/>
        <pt x="220" y="64" on="1"/>
        <pt x="455" y="64" on="1"/>
        <pt x="455" y="45" on="0"/>
        <pt x="453" y="35" on="1"/>
        <pt x="447" y="0" on="0"/>
        <pt x="405" y="0" on="1"/>
        <pt x="135" y="0" on="1"/>
        <pt x="115" y="0" on="0"/>
        <pt x="91" y="25" on="0"/>
        <pt x="91" y="47" on="1"/>
        <pt x="91" y="537" on="1"/>
        <pt x="96" y="542" on="1"/>
        <pt x="440" y="542" on="1"/>
        <pt x="442" y="532" on="0"/>
        <pt x="442" y="493" on="0"/>
        <pt x="437" y="479" on="1"/>
        <pt x="165" y="479" on="1"/>
        <pt x="166" y="429" on="1"/>
        <pt x="166" y="307" on="1"/>
        <pt x="219" y="308" on="1"/>
        <pt x="392" y="308" on="1"/>
        <pt x="396" y="297" on="0"/>
        <pt x="396" y="255" on="0"/>
        <pt x="392" y="244" on="1"/>
        <pt x="279" y="244" on="0"/>
        <pt x="166" y="244" on="1"/>
      </contour>
    </TTGlyph>
    <TTGlyph name="eacute" xMin="52" yMin="-12" xMax="445" yMax="722">
      <component glyphName="e" x="0" y="0" flags="0x204"/>
      <component glyphName="acute" x="55" y="0" flags="0x4"/>
    </TTGlyph>
    <TTGlyph name="eacute.smcp" xMin="91" yMin="0" xMax="455" yMax="774">
      <component glyphName="e.smcp" x="0" y="0" flags="0x204"/>
      <component glyphName="acute" x="71" y="52" flags="0x4"/>
    </TTGlyph>
    <TTGlyph name="ecaron" xMin="52" yMin="-12" xMax="445" yMax="718">
      <component glyphName="e" x="0" y="0" flags="0x204"/>
      <component glyphName="caron" x="56" y="0" flags="0x4"/>
    </TTGlyph>
    <TTGlyph name="ecaron.smcp" xMin="91" yMin="0" xMax="455" yMax="770">
      <component glyphName="e.smcp" x="0" y="0" flags="0x204"/>
      <component glyphName="caron" x="71" y="52" flags="0x4"/>
    </TTGlyph>
    <TTGlyph name="ecircumflex" xMin="52" yMin="-12" xMax="445" yMax="712">
      <component glyphName="e" x="0" y="0" flags="0x204"/>
      <component glyphName="circumflex" x="56" y="0" flags="0x4"/>
    </TTGlyph>
    <TTGlyph name="ecircumflex.smcp" xMin="91" yMin="0" xMax="455" yMax="764">
      <component glyphName="e.smcp" x="0" y="0" flags="0x204"/>
      <component glyphName="circumflex" x="71" y="52" flags="0x4"/>
    </TTGlyph>
    <TTGlyph name="edieresis" xMin="52" yMin="-12" xMax="445" yMax="649">
      <component glyphName="e" x="0" y="0" flags="0x204"/>
      <component glyphName="dieresis" x="56" y="0" flags="0x4"/>
    </TTGlyph>
    <TTGlyph name="edieresis.smcp" xMin="91" yMin="0" xMax="455" yMax="701">
      <component glyphName="e.smcp" x="0" y="0" flags="0x204"/>
      <component glyphName="dieresis" x="71" y="52" flags="0x4"/>
    </TTGlyph>
    <TTGlyph name="egrave" xMin="52" yMin="-12" xMax="445" yMax="722">
      <component glyphName="e" x="0" y="0" flags="0x204"/>
      <component glyphName="grave" x="60" y="0" flags="0x4"/>
    </TTGlyph>
    <TTGlyph name="egrave.smcp" xMin="91" yMin="0" xMax="455" yMax="774">
      <component glyphName="e.smcp" x="0" y="0" flags="0x204"/>
      <component glyphName="grave" x="75" y="52" flags="0x4"/>
    </TTGlyph>
    <TTGlyph name="eight" xMin="54" yMin="-12" xMax="475" yMax="660">
      <contour>
        <pt x="54" y="162" on="1"/>
        <pt x="54" y="219" on="0"/>
        <pt x="122" y="313" on="0"/>
        <pt x="176" y="339" on="1"/>
        <pt x="72" y="392" on="0"/>
        <pt x="72" y="492" on="1"/>
        <pt x="72" y="529" on="0"/>
        <pt x="102" y="591" on="0"/>
        <pt x="154" y="635" on="0"/>
        <pt x="224" y="660" on="0"/>
        <pt x="265" y="660" on="1"/>
        <pt x="305" y="660" on="0"/>
        <pt x="376" y="636" on="0"/>
        <pt x="427" y="592" on="0"/>
        <pt x="457" y="533" on="0"/>
        <pt x="457" y="497" on="1"/>
        <pt x="457" y="446" on="0"/>
        <pt x="401" y="369" on="0"/>
        <pt x="356" y="346" on="1"/>
        <pt x="475" y="287" on="0"/>
        <pt x="475" y="170" on="1"/>
        <pt x="475" y="128" on="0"/>
        <pt x="442" y="61" on="0"/>
        <pt x="383" y="13" on="0"/>
        <pt x="304" y="-12" on="0"/>
        <pt x="259" y="-12" on="1"/>
        <pt x="213" y="-12" on="0"/>
        <pt x="137" y="12" on="0"/>
        <pt x="83" y="57" on="0"/>
        <pt x="54" y="121" on="0"/>
      </contour>
      <contour>
        <pt x="238" y="316" on="1"/>
        <pt x="237" y="316" on="1"/>
        <pt x="188" y="295" on="0"/>
        <pt x="132" y="215" on="0"/>
        <pt x="132" y="161" on="1"/>
        <pt x="132" y="135" on="0"/>
        <pt x="152" y="93" on="0"/>
        <pt x="187" y="63" on="0"/>
        <pt x="235" y="46" on="0"/>
        <pt x="262" y="46" on="1"/>
        <pt x="290" y="46" on="0"/>
        <pt x="339" y="63" on="0"/>
        <pt x="375" y="96" on="0"/>
        <pt x="396" y="141" on="0"/>
        <pt x="396" y="170" on="1"/>
        <pt x="396" y="199" on="0"/>
        <pt x="374" y="245" on="0"/>
        <pt x="335" y="280" on="0"/>
        <pt x="282" y="305" on="0"/>
        <pt x="251" y="313" on="1"/>
      </contour>
      <contour>
        <pt x="283" y="372" on="1"/>
        <pt x="295" y="368" on="1"/>
        <pt x="335" y="388" on="0"/>
        <pt x="380" y="454" on="0"/>
        <pt x="380" y="499" on="1"/>
        <pt x="380" y="521" on="0"/>
        <pt x="362" y="559" on="0"/>
        <pt x="331" y="586" on="0"/>
        <pt x="288" y="602" on="0"/>
        <pt x="264" y="602" on="1"/>
        <pt x="216" y="602" on="0"/>
        <pt x="150" y="542" on="0"/>
        <pt x="150" y="494" on="1"/>
        <pt x="150" y="405" on="0"/>
      </contour>
    </TTGlyph>
    <TTGlyph name="eight.smcp" xMin="50" yMin="-12" xMax="432" yMax="555">
      <contour>
        <pt x="50" y="129" on="1"/>
        <pt x="50" y="178" on="0"/>
        <pt x="114" y="261" on="0"/>
        <pt x="165" y="280" on="1"/>
        <pt x="66" y="328" on="0"/>
        <pt x="66" y="411" on="1"/>
        <pt x="66" y="443" on="0"/>
        <pt x="93" y="496" on="0"/>
        <pt x="140" y="534" on="0"/>
        <pt x="204" y="555" on="0"/>
        <pt x="241" y="555" on="1"/>
        <pt x="278" y="555" on="0"/>
        <pt x="341" y="535" on="0"/>
        <pt x="387" y="499" on="0"/>
        <pt x="414" y="449" on="0"/>
        <pt x="414" y="419" on="1"/>
        <pt x="414" y="330" on="0"/>
        <pt x="324" y="290" on="1"/>
        <pt x="432" y="234" on="0"/>
        <pt x="432" y="142" on="1"/>
        <pt x="432" y="106" on="0"/>
        <pt x="402" y="49" on="0"/>
        <pt x="349" y="9" on="0"/>
        <pt x="278" y="-12" on="0"/>
        <pt x="236" y="-12" on="1"/>
        <pt x="152" y="-12" on="0"/>
        <pt x="50" y="63" on="0"/>
      </contour>
      <contour>
        <pt x="354" y="138" on="1"/>
        <pt x="354" y="212" on="0"/>
        <pt x="233" y="254" on="1"/>
        <pt x="184" y="237" on="0"/>
        <pt x="126" y="174" on="0"/>
        <pt x="126" y="132" on="1"/>
        <pt x="126" y="90" on="0"/>
        <pt x="188" y="44" on="0"/>
        <pt x="239" y="44" on="1"/>
        <pt x="291" y="44" on="0"/>
        <pt x="354" y="92" on="0"/>
      </contour>
      <contour>
        <pt x="256" y="320" on="1"/>
        <pt x="263" y="317" on="1"/>
        <pt x="299" y="332" on="0"/>
        <pt x="339" y="386" on="0"/>
        <pt x="339" y="420" on="1"/>
        <pt x="339" y="455" on="0"/>
        <pt x="286" y="499" on="0"/>
        <pt x="241" y="499" on="1"/>
        <pt x="196" y="499" on="0"/>
        <pt x="141" y="452" on="0"/>
        <pt x="141" y="417" on="1"/>
        <pt x="141" y="382" on="0"/>
        <pt x="196" y="341" on="0"/>
      </contour>
    </TTGlyph>
    <TTGlyph name="emdash" xMin="79" yMin="232" xMax="710" yMax="297">
      <contour>
        <pt x="707" y="232" on="1"/>
        <pt x="82" y="232" on="1"/>
        <pt x="79" y="245" on="0"/>
        <pt x="79" y="280" on="0"/>
        <pt x="82" y="297" on="1"/>
        <pt x="707" y="297" on="1"/>
        <pt x="710" y="280" on="0"/>
        <pt x="710" y="246" on="0"/>
      </contour>
    </TTGlyph>
    <TTGlyph name="endash" xMin="64" yMin="232" xMax="454" yMax="297">
      <contour>
        <pt x="450" y="232" on="1"/>
        <pt x="67" y="232" on="1"/>
        <pt x="64" y="245" on="0"/>
        <pt x="64" y="280" on="0"/>
        <pt x="67" y="297" on="1"/>
        <pt x="450" y="297" on="1"/>
        <pt x="454" y="282" on="0"/>
        <pt x="454" y="244" on="0"/>
      </contour>
    </TTGlyph>
    <TTGlyph name="eogonek" xMin="52" yMin="-217" xMax="445" yMax="503">
      <contour>
        <pt x="440" y="223" on="1"/>
        <pt x="130" y="223" on="1"/>
        <pt x="135" y="53" on="0"/>
        <pt x="259" y="53" on="1"/>
        <pt x="327" y="53" on="0"/>
        <pt x="404" y="95" on="1"/>
        <pt x="426" y="75" on="0"/>
        <pt x="431" y="44" on="1"/>
        <pt x="415" y="33" on="0"/>
        <pt x="378" y="14" on="0"/>
        <pt x="356" y="6" on="1"/>
        <pt x="283" y="-52" on="0"/>
        <pt x="283" y="-112" on="1"/>
        <pt x="283" y="-135" on="0"/>
        <pt x="312" y="-164" on="0"/>
        <pt x="338" y="-164" on="1"/>
        <pt x="365" y="-164" on="0"/>
        <pt x="399" y="-145" on="1"/>
        <pt x="418" y="-160" on="0"/>
        <pt x="418" y="-185" on="1"/>
        <pt x="378" y="-217" on="0"/>
        <pt x="326" y="-217" on="1"/>
        <pt x="274" y="-217" on="0"/>
        <pt x="218" y="-169" on="0"/>
        <pt x="218" y="-126" on="1"/>
        <pt x="218" y="-67" on="0"/>
        <pt x="277" y="-11" on="1"/>
        <pt x="272" y="-12" on="0"/>
        <pt x="258" y="-12" on="0"/>
        <pt x="249" y="-12" on="1"/>
        <pt x="196" y="-12" on="0"/>
        <pt x="121" y="26" on="0"/>
        <pt x="74" y="95" on="0"/>
        <pt x="52" y="190" on="0"/>
        <pt x="52" y="246" on="1"/>
        <pt x="52" y="303" on="0"/>
        <pt x="79" y="397" on="0"/>
        <pt x="128" y="465" on="0"/>
        <pt x="204" y="503" on="0"/>
        <pt x="251" y="503" on="1"/>
        <pt x="297" y="503" on="0"/>
        <pt x="370" y="470" on="0"/>
        <pt x="419" y="413" on="0"/>
        <pt x="445" y="334" on="0"/>
        <pt x="445" y="289" on="1"/>
        <pt x="445" y="271" on="0"/>
        <pt x="442" y="238" on="0"/>
      </contour>
      <contour>
        <pt x="130" y="280" on="1"/>
        <pt x="370" y="280" on="1"/>
        <pt x="370" y="293" on="1"/>
        <pt x="370" y="362" on="0"/>
        <pt x="312" y="446" on="0"/>
        <pt x="254" y="446" on="1"/>
        <pt x="197" y="446" on="0"/>
        <pt x="134" y="356" on="0"/>
      </contour>
    </TTGlyph>
    <TTGlyph name="eogonek.smcp" xMin="91" yMin="-217" xMax="459" yMax="542">
      <contour>
        <pt x="166" y="99" on="1"/>
        <pt x="165" y="63" on="1"/>
        <pt x="195" y="65" on="0"/>
        <pt x="220" y="65" on="1"/>
        <pt x="455" y="65" on="1"/>
        <pt x="455" y="45" on="0"/>
        <pt x="453" y="35" on="1"/>
        <pt x="449" y="11" on="0"/>
        <pt x="427" y="3" on="1"/>
        <pt x="426" y="3" on="0"/>
        <pt x="426" y="2" on="0"/>
        <pt x="425" y="2" on="1"/>
        <pt x="381" y="-17" on="0"/>
        <pt x="325" y="-81" on="0"/>
        <pt x="325" y="-136" on="0"/>
        <pt x="354" y="-163" on="0"/>
        <pt x="407" y="-163" on="0"/>
        <pt x="441" y="-145" on="1"/>
        <pt x="459" y="-159" on="0"/>
        <pt x="459" y="-185" on="1"/>
        <pt x="420" y="-217" on="0"/>
        <pt x="316" y="-217" on="0"/>
        <pt x="259" y="-169" on="0"/>
        <pt x="259" y="-130" on="1"/>
        <pt x="259" y="-52" on="0"/>
        <pt x="337" y="0" on="1"/>
        <pt x="135" y="0" on="1"/>
        <pt x="115" y="0" on="0"/>
        <pt x="91" y="25" on="0"/>
        <pt x="91" y="47" on="1"/>
        <pt x="91" y="537" on="1"/>
        <pt x="96" y="542" on="1"/>
        <pt x="440" y="542" on="1"/>
        <pt x="442" y="532" on="0"/>
        <pt x="442" y="493" on="0"/>
        <pt x="437" y="479" on="1"/>
        <pt x="165" y="479" on="1"/>
        <pt x="166" y="429" on="1"/>
        <pt x="166" y="307" on="1"/>
        <pt x="219" y="308" on="1"/>
        <pt x="392" y="308" on="1"/>
        <pt x="396" y="297" on="0"/>
        <pt x="396" y="255" on="0"/>
        <pt x="392" y="244" on="1"/>
        <pt x="279" y="244" on="0"/>
        <pt x="166" y="244" on="1"/>
      </contour>
    </TTGlyph>
    <TTGlyph name="equal" xMin="55" yMin="171" xMax="475" yMax="413">
      <contour>
        <pt x="471" y="171" on="1"/>
        <pt x="59" y="171" on="1"/>
        <pt x="55" y="184" on="0"/>
        <pt x="55" y="227" on="0"/>
        <pt x="59" y="240" on="1"/>
        <pt x="471" y="240" on="1"/>
        <pt x="475" y="227" on="0"/>
        <pt x="475" y="184" on="0"/>
      </contour>
      <contour>
        <pt x="471" y="343" on="1"/>
        <pt x="59" y="343" on="1"/>
        <pt x="55" y="356" on="0"/>
        <pt x="55" y="398" on="0"/>
        <pt x="59" y="413" on="1"/>
        <pt x="471" y="413" on="1"/>
        <pt x="475" y="398" on="0"/>
        <pt x="475" y="356" on="0"/>
      </contour>
    </TTGlyph>
    <TTGlyph name="eth" xMin="50" yMin="-12" xMax="465" yMax="744">
      <contour>
        <pt x="127" y="572" on="1"/>
        <pt x="221" y="637" on="1"/>
        <pt x="181" y="671" on="0"/>
        <pt x="130" y="695" on="1"/>
        <pt x="137" y="731" on="0"/>
        <pt x="161" y="744" on="1"/>
        <pt x="228" y="713" on="0"/>
        <pt x="276" y="675" on="1"/>
        <pt x="364" y="736" on="1"/>
        <pt x="374" y="729" on="0"/>
        <pt x="394" y="702" on="0"/>
        <pt x="395" y="691" on="1"/>
        <pt x="317" y="637" on="1"/>
        <pt x="465" y="486" on="0"/>
        <pt x="465" y="242" on="1"/>
        <pt x="465" y="186" on="0"/>
        <pt x="438" y="93" on="0"/>
        <pt x="385" y="26" on="0"/>
        <pt x="308" y="-12" on="0"/>
        <pt x="257" y="-12" on="1"/>
        <pt x="207" y="-12" on="0"/>
        <pt x="130" y="26" on="0"/>
        <pt x="77" y="93" on="0"/>
        <pt x="50" y="184" on="0"/>
        <pt x="50" y="238" on="1"/>
        <pt x="50" y="291" on="0"/>
        <pt x="78" y="382" on="0"/>
        <pt x="130" y="449" on="0"/>
        <pt x="207" y="487" on="0"/>
        <pt x="256" y="487" on="1"/>
        <pt x="301" y="487" on="0"/>
        <pt x="349" y="464" on="1"/>
        <pt x="323" y="534" on="0"/>
        <pt x="262" y="599" on="1"/>
        <pt x="158" y="527" on="1"/>
        <pt x="148" y="533" on="0"/>
        <pt x="128" y="561" on="0"/>
      </contour>
      <contour>
        <pt x="371" y="390" on="1"/>
        <pt x="321" y="428" on="0"/>
        <pt x="255" y="428" on="1"/>
        <pt x="222" y="428" on="0"/>
        <pt x="173" y="399" on="0"/>
        <pt x="142" y="349" on="0"/>
        <pt x="127" y="279" on="0"/>
        <pt x="127" y="239" on="1"/>
        <pt x="127" y="199" on="0"/>
        <pt x="141" y="129" on="0"/>
        <pt x="173" y="76" on="0"/>
        <pt x="223" y="46" on="0"/>
        <pt x="258" y="46" on="1"/>
        <pt x="296" y="46" on="0"/>
        <pt x="346" y="80" on="0"/>
        <pt x="376" y="137" on="0"/>
        <pt x="389" y="210" on="0"/>
        <pt x="389" y="249" on="1"/>
        <pt x="389" y="282" on="0"/>
        <pt x="380" y="354" on="0"/>
      </contour>
    </TTGlyph>
    <TTGlyph name="eth.smcp" xMin="30" yMin="-3" xMax="528" yMax="546">
      <contour>
        <pt x="279" y="-3" on="1"/>
        <pt x="213" y="-3" on="0"/>
        <pt x="101" y="0" on="1"/>
        <pt x="96" y="5" on="1"/>
        <pt x="96" y="240" on="1"/>
        <pt x="33" y="240" on="1"/>
        <pt x="30" y="253" on="0"/>
        <pt x="30" y="271" on="1"/>
        <pt x="30" y="287" on="0"/>
        <pt x="33" y="305" on="1"/>
        <pt x="96" y="305" on="1"/>
        <pt x="96" y="537" on="1"/>
        <pt x="101" y="543" on="1"/>
        <pt x="215" y="546" on="0"/>
        <pt x="267" y="546" on="1"/>
        <pt x="348" y="546" on="0"/>
        <pt x="449" y="501" on="0"/>
        <pt x="506" y="427" on="0"/>
        <pt x="528" y="327" on="0"/>
        <pt x="528" y="270" on="1"/>
        <pt x="528" y="215" on="0"/>
        <pt x="508" y="116" on="0"/>
        <pt x="453" y="41" on="0"/>
        <pt x="356" y="-3" on="0"/>
      </contour>
      <contour>
        <pt x="172" y="57" on="1"/>
        <pt x="278" y="58" on="1"/>
        <pt x="449" y="59" on="0"/>
        <pt x="449" y="270" on="1"/>
        <pt x="449" y="381" on="0"/>
        <pt x="363" y="482" on="0"/>
        <pt x="278" y="483" on="1"/>
        <pt x="172" y="484" on="1"/>
        <pt x="172" y="305" on="1"/>
        <pt x="313" y="305" on="1"/>
        <pt x="316" y="287" on="0"/>
        <pt x="316" y="271" on="1"/>
        <pt x="316" y="253" on="0"/>
        <pt x="313" y="240" on="1"/>
        <pt x="172" y="240" on="1"/>
      </contour>
    </TTGlyph>
    <TTGlyph name="exclam" xMin="84" yMin="-7" xMax="192" yMax="689">
      <contour>
        <pt x="108" y="186" on="1"/>
        <pt x="101" y="667" on="1"/>
        <pt x="130" y="689" on="0"/>
        <pt x="181" y="689" on="1"/>
        <pt x="186" y="684" on="1"/>
        <pt x="167" y="186" on="1"/>
        <pt x="161" y="184" on="0"/>
        <pt x="146" y="182" on="0"/>
        <pt x="138" y="182" on="1"/>
        <pt x="119" y="182" on="0"/>
      </contour>
      <contour>
        <pt x="91" y="83" on="1"/>
        <pt x="111" y="94" on="0"/>
        <pt x="139" y="94" on="1"/>
        <pt x="150" y="94" on="0"/>
        <pt x="170" y="92" on="0"/>
        <pt x="184" y="83" on="0"/>
        <pt x="192" y="62" on="0"/>
        <pt x="192" y="43" on="1"/>
        <pt x="192" y="24" on="0"/>
        <pt x="184" y="3" on="0"/>
        <pt x="170" y="-6" on="0"/>
        <pt x="150" y="-7" on="0"/>
        <pt x="138" y="-7" on="1"/>
        <pt x="126" y="-7" on="0"/>
        <pt x="106" y="-6" on="0"/>
        <pt x="92" y="3" on="0"/>
        <pt x="84" y="24" on="0"/>
        <pt x="84" y="43" on="1"/>
        <pt x="84" y="72" on="0"/>
      </contour>
    </TTGlyph>
    <TTGlyph name="exclamdown" xMin="84" yMin="-199" xMax="193" yMax="498">
      <contour>
        <pt x="169" y="304" on="1"/>
        <pt x="176" y="-177" on="1"/>
        <pt x="145" y="-199" on="0"/>
        <pt x="96" y="-199" on="1"/>
        <pt x="90" y="-193" on="1"/>
        <pt x="109" y="304" on="1"/>
        <pt x="115" y="306" on="0"/>
        <pt x="131" y="308" on="0"/>
        <pt x="139" y="308" on="1"/>
        <pt x="147" y="308" on="0"/>
        <pt x="163" y="306" on="0"/>
      </contour>
      <contour>
        <pt x="186" y="407" on="1"/>
        <pt x="177" y="402" on="0"/>
        <pt x="152" y="397" on="0"/>
        <pt x="138" y="397" on="1"/>
        <pt x="126" y="397" on="0"/>
        <pt x="106" y="398" on="0"/>
        <pt x="92" y="407" on="0"/>
        <pt x="84" y="428" on="0"/>
        <pt x="84" y="447" on="1"/>
        <pt x="84" y="483" on="0"/>
        <pt x="112" y="498" on="0"/>
        <pt x="138" y="498" on="1"/>
        <pt x="167" y="498" on="0"/>
        <pt x="193" y="483" on="0"/>
        <pt x="193" y="447" on="1"/>
        <pt x="193" y="418" on="0"/>
      </contour>
    </TTGlyph>
    <TTGlyph name="f" xMin="19" yMin="-3" xMax="355" yMax="739">
      <contour>
        <pt x="108" y="0" on="1"/>
        <pt x="108" y="435" on="1"/>
        <pt x="22" y="434" on="1"/>
        <pt x="19" y="449" on="0"/>
        <pt x="19" y="462" on="1"/>
        <pt x="19" y="476" on="0"/>
        <pt x="22" y="491" on="1"/>
        <pt x="105" y="489" on="1"/>
        <pt x="101" y="534" on="0"/>
        <pt x="98" y="585" on="0"/>
        <pt x="98" y="593" on="1"/>
        <pt x="98" y="625" on="0"/>
        <pt x="117" y="678" on="0"/>
        <pt x="153" y="717" on="0"/>
        <pt x="204" y="739" on="0"/>
        <pt x="236" y="739" on="1"/>
        <pt x="299" y="739" on="0"/>
        <pt x="355" y="718" on="1"/>
        <pt x="355" y="686" on="0"/>
        <pt x="337" y="667" on="1"/>
        <pt x="308" y="675" on="0"/>
        <pt x="264" y="683" on="0"/>
        <pt x="247" y="683" on="1"/>
        <pt x="208" y="683" on="0"/>
        <pt x="167" y="632" on="0"/>
        <pt x="167" y="585" on="1"/>
        <pt x="167" y="547" on="0"/>
        <pt x="176" y="489" on="1"/>
        <pt x="322" y="491" on="1"/>
        <pt x="325" y="476" on="0"/>
        <pt x="325" y="462" on="1"/>
        <pt x="325" y="449" on="0"/>
        <pt x="322" y="434" on="1"/>
        <pt x="180" y="435" on="1"/>
        <pt x="180" y="0" on="1"/>
        <pt x="165" y="-3" on="0"/>
        <pt x="144" y="-3" on="1"/>
        <pt x="123" y="-3" on="0"/>
      </contour>
    </TTGlyph>
    <TTGlyph name="f.smcp" xMin="91" yMin="-3" xMax="438" yMax="542">
      <contour>
        <pt x="167" y="303" on="1"/>
        <pt x="214" y="304" on="1"/>
        <pt x="388" y="304" on="1"/>
        <pt x="391" y="289" on="0"/>
        <pt x="391" y="257" on="0"/>
        <pt x="388" y="242" on="1"/>
        <pt x="214" y="242" on="1"/>
        <pt x="184" y="242" on="0"/>
        <pt x="167" y="243" on="1"/>
        <pt x="167" y="0" on="1"/>
        <pt x="150" y="-3" on="0"/>
        <pt x="106" y="-3" on="0"/>
        <pt x="91" y="0" on="1"/>
        <pt x="91" y="538" on="1"/>
        <pt x="96" y="542" on="1"/>
        <pt x="433" y="542" on="1"/>
        <pt x="438" y="529" on="0"/>
        <pt x="438" y="495" on="0"/>
        <pt x="419" y="478" on="0"/>
        <pt x="395" y="478" on="1"/>
        <pt x="261" y="478" on="1"/>
        <pt x="192" y="478" on="0"/>
        <pt x="166" y="479" on="1"/>
        <pt x="167" y="379" on="1"/>
      </contour>
    </TTGlyph>
    <TTGlyph name="five" xMin="66" yMin="-12" xMax="466" yMax="648">
      <contour>
        <pt x="432" y="648" on="1"/>
        <pt x="437" y="630" on="0"/>
        <pt x="437" y="617" on="1"/>
        <pt x="437" y="581" on="0"/>
        <pt x="403" y="581" on="1"/>
        <pt x="224" y="581" on="1"/>
        <pt x="205" y="581" on="0"/>
        <pt x="177" y="581" on="0"/>
        <pt x="169" y="582" on="1"/>
        <pt x="169" y="518" on="1"/>
        <pt x="162" y="401" on="1"/>
        <pt x="214" y="429" on="0"/>
        <pt x="269" y="429" on="1"/>
        <pt x="357" y="429" on="0"/>
        <pt x="466" y="320" on="0"/>
        <pt x="466" y="214" on="1"/>
        <pt x="466" y="162" on="0"/>
        <pt x="433" y="78" on="0"/>
        <pt x="371" y="20" on="0"/>
        <pt x="288" y="-12" on="0"/>
        <pt x="240" y="-12" on="1"/>
        <pt x="142" y="-12" on="0"/>
        <pt x="66" y="48" on="1"/>
        <pt x="71" y="80" on="0"/>
        <pt x="100" y="100" on="1"/>
        <pt x="137" y="74" on="0"/>
        <pt x="209" y="50" on="0"/>
        <pt x="241" y="50" on="1"/>
        <pt x="304" y="50" on="0"/>
        <pt x="386" y="137" on="0"/>
        <pt x="386" y="217" on="1"/>
        <pt x="386" y="259" on="0"/>
        <pt x="365" y="316" on="0"/>
        <pt x="326" y="351" on="0"/>
        <pt x="274" y="367" on="0"/>
        <pt x="244" y="367" on="1"/>
        <pt x="181" y="367" on="0"/>
        <pt x="123" y="316" on="1"/>
        <pt x="101" y="319" on="0"/>
        <pt x="88" y="341" on="1"/>
        <pt x="101" y="642" on="1"/>
        <pt x="107" y="648" on="1"/>
      </contour>
    </TTGlyph>
    <TTGlyph name="five.smcp" xMin="60" yMin="-12" xMax="424" yMax="542">
      <contour>
        <pt x="60" y="39" on="1"/>
        <pt x="67" y="73" on="0"/>
        <pt x="93" y="88" on="1"/>
        <pt x="152" y="50" on="0"/>
        <pt x="213" y="50" on="1"/>
        <pt x="274" y="50" on="0"/>
        <pt x="346" y="116" on="0"/>
        <pt x="346" y="177" on="1"/>
        <pt x="346" y="207" on="0"/>
        <pt x="328" y="252" on="0"/>
        <pt x="297" y="283" on="0"/>
        <pt x="256" y="299" on="0"/>
        <pt x="233" y="299" on="1"/>
        <pt x="182" y="299" on="0"/>
        <pt x="115" y="257" on="1"/>
        <pt x="95" y="262" on="0"/>
        <pt x="80" y="280" on="1"/>
        <pt x="92" y="537" on="1"/>
        <pt x="98" y="542" on="1"/>
        <pt x="394" y="542" on="1"/>
        <pt x="399" y="527" on="0"/>
        <pt x="399" y="513" on="1"/>
        <pt x="399" y="479" on="0"/>
        <pt x="362" y="479" on="1"/>
        <pt x="160" y="479" on="1"/>
        <pt x="156" y="379" on="1"/>
        <pt x="156" y="362" on="0"/>
        <pt x="153" y="335" on="1"/>
        <pt x="202" y="358" on="0"/>
        <pt x="250" y="358" on="1"/>
        <pt x="288" y="358" on="0"/>
        <pt x="352" y="333" on="0"/>
        <pt x="398" y="287" on="0"/>
        <pt x="424" y="219" on="0"/>
        <pt x="424" y="176" on="1"/>
        <pt x="424" y="133" on="0"/>
        <pt x="392" y="64" on="0"/>
        <pt x="337" y="15" on="0"/>
        <pt x="261" y="-12" on="0"/>
        <pt x="217" y="-12" on="1"/>
        <pt x="127" y="-12" on="0"/>
      </contour>
    </TTGlyph>
    <TTGlyph name="four" xMin="48" yMin="-3" xMax="485" yMax="657">
      <contour>
        <pt x="376" y="152" on="1"/>
        <pt x="377" y="109" on="1"/>
        <pt x="377" y="0" on="1"/>
        <pt x="360" y="-3" on="0"/>
        <pt x="318" y="-3" on="0"/>
        <pt x="303" y="0" on="1"/>
        <pt x="303" y="109" on="1"/>
        <pt x="304" y="152" on="1"/>
        <pt x="262" y="151" on="1"/>
        <pt x="66" y="151" on="1"/>
        <pt x="48" y="183" on="0"/>
        <pt x="48" y="205" on="0"/>
        <pt x="69" y="256" on="1"/>
        <pt x="243" y="653" on="1"/>
        <pt x="258" y="657" on="0"/>
        <pt x="301" y="649" on="0"/>
        <pt x="314" y="641" on="1"/>
        <pt x="172" y="317" on="1"/>
        <pt x="134" y="234" on="0"/>
        <pt x="124" y="215" on="1"/>
        <pt x="126" y="212" on="1"/>
        <pt x="183" y="215" on="0"/>
        <pt x="231" y="215" on="1"/>
        <pt x="304" y="215" on="1"/>
        <pt x="303" y="254" on="1"/>
        <pt x="303" y="358" on="1"/>
        <pt x="303" y="412" on="0"/>
        <pt x="350" y="412" on="1"/>
        <pt x="373" y="412" on="1"/>
        <pt x="377" y="409" on="1"/>
        <pt x="377" y="257" on="1"/>
        <pt x="376" y="215" on="1"/>
        <pt x="416" y="216" on="1"/>
        <pt x="483" y="216" on="1"/>
        <pt x="485" y="204" on="0"/>
        <pt x="485" y="166" on="0"/>
        <pt x="480" y="151" on="1"/>
        <pt x="416" y="151" on="1"/>
      </contour>
    </TTGlyph>
    <TTGlyph name="four.smcp" xMin="46" yMin="-3" xMax="442" yMax="555">
      <contour>
        <pt x="345" y="123" on="1"/>
        <pt x="346" y="81" on="1"/>
        <pt x="346" y="0" on="1"/>
        <pt x="330" y="-3" on="0"/>
        <pt x="290" y="-3" on="0"/>
        <pt x="275" y="0" on="1"/>
        <pt x="275" y="81" on="1"/>
        <pt x="276" y="123" on="1"/>
        <pt x="235" y="122" on="1"/>
        <pt x="63" y="122" on="1"/>
        <pt x="46" y="150" on="0"/>
        <pt x="46" y="178" on="0"/>
        <pt x="64" y="218" on="1"/>
        <pt x="220" y="548" on="1"/>
        <pt x="259" y="555" on="0"/>
        <pt x="291" y="533" on="1"/>
        <pt x="168" y="281" on="1"/>
        <pt x="141" y="222" on="0"/>
        <pt x="120" y="184" on="1"/>
        <pt x="122" y="182" on="1"/>
        <pt x="172" y="185" on="0"/>
        <pt x="218" y="185" on="1"/>
        <pt x="276" y="185" on="1"/>
        <pt x="275" y="225" on="1"/>
        <pt x="275" y="295" on="1"/>
        <pt x="275" y="320" on="0"/>
        <pt x="301" y="349" on="0"/>
        <pt x="321" y="349" on="1"/>
        <pt x="343" y="349" on="1"/>
        <pt x="346" y="345" on="1"/>
        <pt x="346" y="229" on="1"/>
        <pt x="345" y="185" on="1"/>
        <pt x="382" y="186" on="1"/>
        <pt x="440" y="186" on="1"/>
        <pt x="442" y="175" on="0"/>
        <pt x="442" y="137" on="0"/>
        <pt x="437" y="122" on="1"/>
        <pt x="382" y="122" on="1"/>
      </contour>
    </TTGlyph>
    <TTGlyph name="fraction" xMin="-130" yMin="-5" xMax="321" yMax="688">
      <contour>
        <pt x="-130" y="0" on="1"/>
        <pt x="247" y="683" on="1"/>
        <pt x="259" y="688" on="0"/>
        <pt x="309" y="688" on="0"/>
        <pt x="321" y="683" on="1"/>
        <pt x="-55" y="0" on="1"/>
        <pt x="-68" y="-5" on="0"/>
        <pt x="-118" y="-5" on="0"/>
      </contour>
    </TTGlyph>
    <TTGlyph name="g" xMin="51" yMin="-220" xMax="464" yMax="503">
      <contour>
        <pt x="378" y="449" on="1"/>
        <pt x="392" y="484" on="0"/>
        <pt x="431" y="498" on="1"/>
        <pt x="455" y="484" on="0"/>
        <pt x="464" y="459" on="1"/>
        <pt x="436" y="432" on="0"/>
        <pt x="436" y="352" on="1"/>
        <pt x="436" y="38" on="1"/>
        <pt x="436" y="-32" on="0"/>
        <pt x="411" y="-130" on="0"/>
        <pt x="363" y="-192" on="0"/>
        <pt x="292" y="-220" on="0"/>
        <pt x="245" y="-220" on="1"/>
        <pt x="151" y="-220" on="0"/>
        <pt x="73" y="-186" on="1"/>
        <pt x="74" y="-151" on="0"/>
        <pt x="94" y="-128" on="1"/>
        <pt x="161" y="-160" on="0"/>
        <pt x="231" y="-160" on="1"/>
        <pt x="271" y="-160" on="0"/>
        <pt x="323" y="-138" on="0"/>
        <pt x="354" y="-96" on="0"/>
        <pt x="366" y="-37" on="0"/>
        <pt x="366" y="0" on="1"/>
        <pt x="366" y="58" on="1"/>
        <pt x="301" y="-8" on="0"/>
        <pt x="220" y="-8" on="1"/>
        <pt x="139" y="-8" on="0"/>
        <pt x="51" y="127" on="0"/>
        <pt x="51" y="248" on="1"/>
        <pt x="51" y="309" on="0"/>
        <pt x="82" y="404" on="0"/>
        <pt x="134" y="469" on="0"/>
        <pt x="202" y="503" on="0"/>
        <pt x="240" y="503" on="1"/>
        <pt x="316" y="503" on="0"/>
      </contour>
      <contour>
        <pt x="366" y="130" on="1"/>
        <pt x="366" y="389" on="1"/>
        <pt x="337" y="414" on="0"/>
        <pt x="277" y="439" on="0"/>
        <pt x="250" y="439" on="1"/>
        <pt x="194" y="439" on="0"/>
        <pt x="126" y="342" on="0"/>
        <pt x="126" y="245" on="1"/>
        <pt x="126" y="149" on="0"/>
        <pt x="185" y="56" on="0"/>
        <pt x="227" y="56" on="1"/>
        <pt x="269" y="56" on="0"/>
        <pt x="341" y="97" on="0"/>
      </contour>
    </TTGlyph>
    <TTGlyph name="g.smcp" xMin="47" yMin="-12" xMax="491" yMax="555">
      <contour>
        <pt x="295" y="279" on="1"/>
        <pt x="328" y="280" on="0"/>
        <pt x="380" y="281" on="0"/>
        <pt x="400" y="281" on="1"/>
        <pt x="428" y="281" on="0"/>
        <pt x="464" y="277" on="0"/>
        <pt x="484" y="267" on="0"/>
        <pt x="491" y="248" on="0"/>
        <pt x="491" y="233" on="1"/>
        <pt x="491" y="24" on="1"/>
        <pt x="389" y="-12" on="0"/>
        <pt x="283" y="-12" on="1"/>
        <pt x="218" y="-12" on="0"/>
        <pt x="128" y="33" on="0"/>
        <pt x="72" y="110" on="0"/>
        <pt x="47" y="212" on="0"/>
        <pt x="47" y="269" on="1"/>
        <pt x="47" y="344" on="0"/>
        <pt x="86" y="453" on="0"/>
        <pt x="155" y="522" on="0"/>
        <pt x="249" y="555" on="0"/>
        <pt x="303" y="555" on="1"/>
        <pt x="410" y="555" on="0"/>
        <pt x="489" y="496" on="1"/>
        <pt x="482" y="460" on="0"/>
        <pt x="450" y="440" on="1"/>
        <pt x="382" y="489" on="0"/>
        <pt x="300" y="489" on="1"/>
        <pt x="219" y="489" on="0"/>
        <pt x="127" y="384" on="0"/>
        <pt x="127" y="268" on="1"/>
        <pt x="127" y="51" on="0"/>
        <pt x="298" y="51" on="1"/>
        <pt x="358" y="51" on="0"/>
        <pt x="417" y="68" on="1"/>
        <pt x="417" y="166" on="1"/>
        <pt x="417" y="186" on="0"/>
        <pt x="420" y="215" on="1"/>
        <pt x="326" y="215" on="1"/>
        <pt x="290" y="215" on="0"/>
        <pt x="290" y="249" on="1"/>
        <pt x="290" y="264" on="0"/>
      </contour>
    </TTGlyph>
    <TTGlyph name="germandbls" xMin="21" yMin="-12" xMax="572" yMax="698">
      <contour>
        <pt x="110" y="0" on="1"/>
        <pt x="110" y="407" on="1"/>
        <pt x="24" y="406" on="1"/>
        <pt x="21" y="421" on="0"/>
        <pt x="21" y="438" on="1"/>
        <pt x="21" y="455" on="0"/>
        <pt x="24" y="470" on="1"/>
        <pt x="110" y="468" on="1"/>
        <pt x="110" y="510" on="1"/>
        <pt x="110" y="555" on="0"/>
        <pt x="140" y="625" on="0"/>
        <pt x="194" y="673" on="0"/>
        <pt x="270" y="698" on="0"/>
        <pt x="317" y="698" on="1"/>
        <pt x="363" y="698" on="0"/>
        <pt x="439" y="670" on="0"/>
        <pt x="492" y="619" on="0"/>
        <pt x="521" y="548" on="0"/>
        <pt x="521" y="504" on="1"/>
        <pt x="521" y="468" on="0"/>
        <pt x="506" y="426" on="1"/>
        <pt x="504" y="426" on="1"/>
        <pt x="506" y="425" on="1"/>
        <pt x="461" y="414" on="0"/>
        <pt x="415" y="369" on="0"/>
        <pt x="415" y="345" on="1"/>
        <pt x="415" y="331" on="0"/>
        <pt x="435" y="296" on="0"/>
        <pt x="460" y="276" on="1"/>
        <pt x="497" y="246" on="1"/>
        <pt x="535" y="215" on="0"/>
        <pt x="572" y="150" on="0"/>
        <pt x="572" y="122" on="1"/>
        <pt x="572" y="93" on="0"/>
        <pt x="547" y="44" on="0"/>
        <pt x="502" y="8" on="0"/>
        <pt x="440" y="-12" on="0"/>
        <pt x="404" y="-12" on="1"/>
        <pt x="332" y="-12" on="0"/>
        <pt x="276" y="17" on="1"/>
        <pt x="277" y="30" on="0"/>
        <pt x="294" y="63" on="0"/>
        <pt x="306" y="72" on="1"/>
        <pt x="329" y="59" on="0"/>
        <pt x="374" y="48" on="0"/>
        <pt x="395" y="48" on="1"/>
        <pt x="437" y="48" on="0"/>
        <pt x="493" y="85" on="0"/>
        <pt x="493" y="115" on="1"/>
        <pt x="492" y="132" on="0"/>
        <pt x="472" y="173" on="0"/>
        <pt x="447" y="194" on="1"/>
        <pt x="406" y="228" on="1"/>
        <pt x="338" y="284" on="0"/>
        <pt x="338" y="338" on="1"/>
        <pt x="338" y="377" on="0"/>
        <pt x="393" y="440" on="0"/>
        <pt x="441" y="457" on="1"/>
        <pt x="447" y="478" on="0"/>
        <pt x="447" y="498" on="1"/>
        <pt x="447" y="561" on="0"/>
        <pt x="380" y="641" on="0"/>
        <pt x="314" y="641" on="1"/>
        <pt x="250" y="641" on="0"/>
        <pt x="185" y="568" on="0"/>
        <pt x="185" y="502" on="1"/>
        <pt x="185" y="0" on="1"/>
        <pt x="168" y="-3" on="0"/>
        <pt x="147" y="-3" on="1"/>
        <pt x="125" y="-3" on="0"/>
      </contour>
    </TTGlyph>
    <TTGlyph name="germandbls.cap" xMin="21" yMin="-12" xMax="572" yMax="698">
      <contour>
        <pt x="110" y="0" on="1"/>
        <pt x="110" y="407" on="1"/>
        <pt x="24" y="406" on="1"/>
        <pt x="21" y="421" on="0"/>
        <pt x="21" y="438" on="1"/>
        <pt x="21" y="455" on="0"/>
        <pt x="24" y="470" on="1"/>
        <pt x="110" y="468" on="1"/>
        <pt x="110" y="510" on="1"/>
        <pt x="110" y="555" on="0"/>
        <pt x="140" y="625" on="0"/>
        <pt x="194" y="673" on="0"/>
        <pt x="270" y="698" on="0"/>
        <pt x="317" y="698" on="1"/>
        <pt x="363" y="698" on="0"/>
        <pt x="439" y="670" on="0"/>
        <pt x="492" y="619" on="0"/>
        <pt x="521" y="548" on="0"/>
        <pt x="521" y="504" on="1"/>
        <pt x="521" y="468" on="0"/>
        <pt x="506" y="426" on="1"/>
        <pt x="504" y="426" on="1"/>
        <pt x="506" y="425" on="1"/>
        <pt x="461" y="414" on="0"/>
        <pt x="415" y="369" on="0"/>
        <pt x="415" y="345" on="1"/>
        <pt x="415" y="331" on="0"/>
        <pt x="435" y="296" on="0"/>
        <pt x="460" y="276" on="1"/>
        <pt x="497" y="246" on="1"/>
        <pt x="535" y="215" on="0"/>
        <pt x="572" y="150" on="0"/>
        <pt x="572" y="122" on="1"/>
        <pt x="572" y="93" on="0"/>
        <pt x="547" y="44" on="0"/>
        <pt x="502" y="8" on="0"/>
        <pt x="440" y="-12" on="0"/>
        <pt x="404" y="-12" on="1"/>
        <pt x="332" y="-12" on="0"/>
        <pt x="276" y="17" on="1"/>
        <pt x="277" y="30" on="0"/>
        <pt x="294" y="63" on="0"/>
        <pt x="306" y="72" on="1"/>
        <pt x="329" y="59" on="0"/>
        <pt x="374" y="48" on="0"/>
        <pt x="395" y="48" on="1"/>
        <pt x="437" y="48" on="0"/>
        <pt x="493" y="85" on="0"/>
        <pt x="493" y="115" on="1"/>
        <pt x="492" y="132" on="0"/>
        <pt x="472" y="173" on="0"/>
        <pt x="447" y="194" on="1"/>
        <pt x="406" y="228" on="1"/>
        <pt x="338" y="284" on="0"/>
        <pt x="338" y="338" on="1"/>
        <pt x="338" y="377" on="0"/>
        <pt x="393" y="440" on="0"/>
        <pt x="441" y="457" on="1"/>
        <pt x="447" y="478" on="0"/>
        <pt x="447" y="498" on="1"/>
        <pt x="447" y="561" on="0"/>
        <pt x="380" y="641" on="0"/>
        <pt x="314" y="641" on="1"/>
        <pt x="250" y="641" on="0"/>
        <pt x="185" y="568" on="0"/>
        <pt x="185" y="502" on="1"/>
        <pt x="185" y="0" on="1"/>
        <pt x="168" y="-3" on="0"/>
        <pt x="147" y="-3" on="1"/>
        <pt x="125" y="-3" on="0"/>
      </contour>
    </TTGlyph>
    <TTGlyph name="germandbls.cap_smcp" xMin="13" yMin="-10" xMax="520" yMax="555">
      <contour>
        <pt x="93" y="0" on="1"/>
        <pt x="93" y="268" on="1"/>
        <pt x="16" y="267" on="1"/>
        <pt x="13" y="282" on="0"/>
        <pt x="13" y="299" on="1"/>
        <pt x="13" y="315" on="0"/>
        <pt x="16" y="330" on="1"/>
        <pt x="93" y="329" on="1"/>
        <pt x="93" y="388" on="1"/>
        <pt x="93" y="430" on="0"/>
        <pt x="121" y="492" on="0"/>
        <pt x="172" y="534" on="0"/>
        <pt x="243" y="555" on="0"/>
        <pt x="286" y="555" on="1"/>
        <pt x="328" y="555" on="0"/>
        <pt x="398" y="531" on="0"/>
        <pt x="449" y="488" on="0"/>
        <pt x="477" y="428" on="0"/>
        <pt x="477" y="392" on="1"/>
        <pt x="477" y="357" on="0"/>
        <pt x="468" y="332" on="1"/>
        <pt x="434" y="324" on="0"/>
        <pt x="388" y="292" on="0"/>
        <pt x="388" y="271" on="1"/>
        <pt x="388" y="260" on="0"/>
        <pt x="404" y="234" on="0"/>
        <pt x="424" y="220" on="1"/>
        <pt x="457" y="197" on="1"/>
        <pt x="520" y="152" on="0"/>
        <pt x="520" y="100" on="1"/>
        <pt x="520" y="48" on="0"/>
        <pt x="440" y="-10" on="0"/>
        <pt x="375" y="-10" on="1"/>
        <pt x="312" y="-10" on="0"/>
        <pt x="260" y="13" on="1"/>
        <pt x="262" y="48" on="0"/>
        <pt x="285" y="68" on="1"/>
        <pt x="307" y="57" on="0"/>
        <pt x="348" y="48" on="0"/>
        <pt x="366" y="48" on="1"/>
        <pt x="400" y="48" on="0"/>
        <pt x="440" y="74" on="0"/>
        <pt x="440" y="96" on="1"/>
        <pt x="440" y="107" on="0"/>
        <pt x="424" y="135" on="0"/>
        <pt x="404" y="149" on="1"/>
        <pt x="368" y="174" on="1"/>
        <pt x="308" y="216" on="0"/>
        <pt x="308" y="264" on="1"/>
        <pt x="308" y="299" on="0"/>
        <pt x="359" y="355" on="0"/>
        <pt x="401" y="370" on="1"/>
        <pt x="402" y="376" on="0"/>
        <pt x="403" y="385" on="0"/>
        <pt x="403" y="388" on="1"/>
        <pt x="403" y="436" on="0"/>
        <pt x="342" y="497" on="0"/>
        <pt x="287" y="497" on="1"/>
        <pt x="169" y="497" on="0"/>
        <pt x="169" y="377" on="1"/>
        <pt x="169" y="0" on="1"/>
        <pt x="151" y="-3" on="0"/>
        <pt x="130" y="-3" on="1"/>
        <pt x="109" y="-3" on="0"/>
      </contour>
    </TTGlyph>
    <TTGlyph name="germandbls.smcp" xMin="33" yMin="-12" xMax="939" yMax="555">
      <component glyphName="s.smcp" x="0" y="0" flags="0x4"/>
      <component glyphName="s.smcp" x="487" y="0" flags="0x4"/>
    </TTGlyph>
    <TTGlyph name="grave" xMin="70" yMin="536" xMax="268" yMax="722">
      <contour>
        <pt x="131" y="722" on="1"/>
        <pt x="268" y="568" on="1"/>
        <pt x="257" y="542" on="0"/>
        <pt x="233" y="536" on="1"/>
        <pt x="70" y="666" on="1"/>
        <pt x="88" y="709" on="0"/>
      </contour>
    </TTGlyph>
    <TTGlyph name="grave.cap" xMin="73" yMin="729" xMax="302" yMax="882">
      <contour>
        <pt x="111" y="882" on="1"/>
        <pt x="302" y="771" on="1"/>
        <pt x="296" y="741" on="0"/>
        <pt x="278" y="729" on="1"/>
        <pt x="73" y="815" on="1"/>
        <pt x="80" y="863" on="0"/>
      </contour>
    </TTGlyph>
    <TTGlyph name="greater" xMin="62" yMin="53" xMax="484" yMax="528">
      <contour>
        <pt x="475" y="259" on="1"/>
        <pt x="97" y="53" on="1"/>
        <pt x="66" y="76" on="0"/>
        <pt x="62" y="113" on="1"/>
        <pt x="330" y="254" on="1"/>
        <pt x="340" y="259" on="0"/>
        <pt x="395" y="286" on="0"/>
        <pt x="397" y="287" on="1"/>
        <pt x="397" y="294" on="1"/>
        <pt x="395" y="295" on="0"/>
        <pt x="340" y="322" on="0"/>
        <pt x="330" y="327" on="1"/>
        <pt x="62" y="468" on="1"/>
        <pt x="66" y="506" on="0"/>
        <pt x="98" y="528" on="1"/>
        <pt x="475" y="322" on="1"/>
        <pt x="484" y="285" on="0"/>
      </contour>
    </TTGlyph>
    <TTGlyph name="guillemotleft" xMin="34" yMin="43" xMax="487" yMax="463">
      <contour>
        <pt x="481" y="422" on="1"/>
        <pt x="334" y="256" on="1"/>
        <pt x="487" y="84" on="1"/>
        <pt x="475" y="55" on="0"/>
        <pt x="444" y="43" on="1"/>
        <pt x="248" y="229" on="1"/>
        <pt x="239" y="255" on="0"/>
        <pt x="248" y="281" on="1"/>
        <pt x="438" y="463" on="1"/>
        <pt x="469" y="451" on="0"/>
      </contour>
      <contour>
        <pt x="276" y="422" on="1"/>
        <pt x="129" y="256" on="1"/>
        <pt x="282" y="84" on="1"/>
        <pt x="270" y="55" on="0"/>
        <pt x="239" y="43" on="1"/>
        <pt x="43" y="229" on="1"/>
        <pt x="34" y="255" on="0"/>
        <pt x="43" y="281" on="1"/>
        <pt x="233" y="463" on="1"/>
        <pt x="264" y="451" on="0"/>
      </contour>
    </TTGlyph>
    <TTGlyph name="guillemotright" xMin="39" yMin="43" xMax="488" yMax="463">
      <contour>
        <pt x="45" y="84" on="1"/>
        <pt x="193" y="250" on="1"/>
        <pt x="39" y="422" on="1"/>
        <pt x="53" y="451" on="0"/>
        <pt x="83" y="463" on="1"/>
        <pt x="278" y="277" on="1"/>
        <pt x="282" y="267" on="0"/>
        <pt x="282" y="235" on="0"/>
        <pt x="278" y="225" on="1"/>
        <pt x="89" y="43" on="1"/>
        <pt x="59" y="55" on="0"/>
      </contour>
      <contour>
        <pt x="250" y="84" on="1"/>
        <pt x="398" y="250" on="1"/>
        <pt x="244" y="422" on="1"/>
        <pt x="258" y="451" on="0"/>
        <pt x="288" y="463" on="1"/>
        <pt x="483" y="277" on="1"/>
        <pt x="488" y="267" on="0"/>
        <pt x="488" y="236" on="0"/>
        <pt x="483" y="225" on="1"/>
        <pt x="294" y="43" on="1"/>
        <pt x="264" y="55" on="0"/>
      </contour>
    </TTGlyph>
    <TTGlyph name="guilsinglleft" xMin="34" yMin="43" xMax="282" yMax="463">
      <contour>
        <pt x="276" y="422" on="1"/>
        <pt x="129" y="256" on="1"/>
        <pt x="282" y="84" on="1"/>
        <pt x="270" y="55" on="0"/>
        <pt x="239" y="43" on="1"/>
        <pt x="43" y="229" on="1"/>
        <pt x="34" y="255" on="0"/>
        <pt x="43" y="281" on="1"/>
        <pt x="233" y="463" on="1"/>
        <pt x="264" y="451" on="0"/>
      </contour>
    </TTGlyph>
    <TTGlyph name="guilsinglright" xMin="39" yMin="43" xMax="282" yMax="463">
      <contour>
        <pt x="45" y="84" on="1"/>
        <pt x="193" y="250" on="1"/>
        <pt x="39" y="422" on="1"/>
        <pt x="53" y="451" on="0"/>
        <pt x="83" y="463" on="1"/>
        <pt x="278" y="277" on="1"/>
        <pt x="282" y="267" on="0"/>
        <pt x="282" y="235" on="0"/>
        <pt x="278" y="225" on="1"/>
        <pt x="89" y="43" on="1"/>
        <pt x="59" y="55" on="0"/>
      </contour>
    </TTGlyph>
    <TTGlyph name="h" xMin="88" yMin="-6" xMax="473" yMax="735">
      <contour>
        <pt x="461" y="342" on="1"/>
        <pt x="461" y="95" on="1"/>
        <pt x="461" y="38" on="0"/>
        <pt x="473" y="10" on="1"/>
        <pt x="456" y="-6" on="0"/>
        <pt x="426" y="-6" on="1"/>
        <pt x="388" y="-6" on="0"/>
        <pt x="388" y="43" on="1"/>
        <pt x="388" y="319" on="1"/>
        <pt x="388" y="380" on="0"/>
        <pt x="356" y="431" on="0"/>
        <pt x="316" y="431" on="1"/>
        <pt x="276" y="431" on="0"/>
        <pt x="190" y="388" on="0"/>
        <pt x="161" y="354" on="1"/>
        <pt x="161" y="0" on="1"/>
        <pt x="146" y="-3" on="0"/>
        <pt x="124" y="-3" on="1"/>
        <pt x="103" y="-3" on="0"/>
        <pt x="88" y="0" on="1"/>
        <pt x="88" y="729" on="1"/>
        <pt x="94" y="735" on="1"/>
        <pt x="121" y="735" on="1"/>
        <pt x="145" y="735" on="0"/>
        <pt x="161" y="712" on="0"/>
        <pt x="161" y="685" on="1"/>
        <pt x="161" y="427" on="1"/>
        <pt x="195" y="459" on="0"/>
        <pt x="287" y="499" on="0"/>
        <pt x="333" y="499" on="1"/>
        <pt x="400" y="499" on="0"/>
        <pt x="461" y="412" on="0"/>
      </contour>
    </TTGlyph>
    <TTGlyph name="h.smcp" xMin="91" yMin="-3" xMax="515" yMax="546">
      <contour>
        <pt x="440" y="314" on="1"/>
        <pt x="439" y="373" on="1"/>
        <pt x="439" y="542" on="1"/>
        <pt x="452" y="546" on="0"/>
        <pt x="500" y="546" on="0"/>
        <pt x="515" y="542" on="1"/>
        <pt x="515" y="0" on="1"/>
        <pt x="498" y="-3" on="0"/>
        <pt x="454" y="-3" on="0"/>
        <pt x="439" y="0" on="1"/>
        <pt x="439" y="191" on="1"/>
        <pt x="440" y="251" on="1"/>
        <pt x="386" y="250" on="1"/>
        <pt x="219" y="250" on="1"/>
        <pt x="166" y="251" on="1"/>
        <pt x="167" y="191" on="1"/>
        <pt x="167" y="0" on="1"/>
        <pt x="150" y="-3" on="0"/>
        <pt x="106" y="-3" on="0"/>
        <pt x="91" y="0" on="1"/>
        <pt x="91" y="542" on="1"/>
        <pt x="104" y="546" on="0"/>
        <pt x="152" y="546" on="0"/>
        <pt x="167" y="542" on="1"/>
        <pt x="167" y="373" on="1"/>
        <pt x="166" y="314" on="1"/>
        <pt x="219" y="315" on="1"/>
        <pt x="386" y="315" on="1"/>
      </contour>
    </TTGlyph>
    <TTGlyph name="hbar" xMin="20" yMin="-6" xMax="476" yMax="735">
      <contour>
        <pt x="164" y="685" on="1"/>
        <pt x="164" y="628" on="1"/>
        <pt x="332" y="630" on="1"/>
        <pt x="335" y="615" on="0"/>
        <pt x="335" y="602" on="1"/>
        <pt x="335" y="589" on="0"/>
        <pt x="332" y="574" on="1"/>
        <pt x="164" y="576" on="1"/>
        <pt x="164" y="427" on="1"/>
        <pt x="198" y="459" on="0"/>
        <pt x="290" y="499" on="0"/>
        <pt x="336" y="499" on="1"/>
        <pt x="403" y="499" on="0"/>
        <pt x="464" y="412" on="0"/>
        <pt x="464" y="342" on="1"/>
        <pt x="464" y="95" on="1"/>
        <pt x="464" y="38" on="0"/>
        <pt x="476" y="10" on="1"/>
        <pt x="459" y="-6" on="0"/>
        <pt x="429" y="-6" on="1"/>
        <pt x="391" y="-6" on="0"/>
        <pt x="391" y="43" on="1"/>
        <pt x="391" y="319" on="1"/>
        <pt x="391" y="380" on="0"/>
        <pt x="359" y="431" on="0"/>
        <pt x="319" y="431" on="1"/>
        <pt x="279" y="431" on="0"/>
        <pt x="193" y="388" on="0"/>
        <pt x="164" y="354" on="1"/>
        <pt x="164" y="0" on="1"/>
        <pt x="149" y="-3" on="0"/>
        <pt x="127" y="-3" on="1"/>
        <pt x="106" y="-3" on="0"/>
        <pt x="91" y="0" on="1"/>
        <pt x="91" y="575" on="1"/>
        <pt x="23" y="574" on="1"/>
        <pt x="20" y="589" on="0"/>
        <pt x="20" y="602" on="1"/>
        <pt x="20" y="615" on="0"/>
        <pt x="23" y="630" on="1"/>
        <pt x="91" y="629" on="1"/>
        <pt x="91" y="729" on="1"/>
        <pt x="97" y="735" on="1"/>
        <pt x="124" y="735" on="1"/>
        <pt x="148" y="735" on="0"/>
        <pt x="164" y="712" on="0"/>
      </contour>
    </TTGlyph>
    <TTGlyph name="hbar.smcp" xMin="28" yMin="-3" xMax="586" yMax="546">
      <contour>
        <pt x="170" y="251" on="1"/>
        <pt x="171" y="191" on="1"/>
        <pt x="171" y="0" on="1"/>
        <pt x="154" y="-3" on="0"/>
        <pt x="110" y="-3" on="0"/>
        <pt x="95" y="0" on="1"/>
        <pt x="95" y="392" on="1"/>
        <pt x="31" y="392" on="1"/>
        <pt x="28" y="406" on="0"/>
        <pt x="28" y="437" on="0"/>
        <pt x="31" y="452" on="1"/>
        <pt x="95" y="452" on="1"/>
        <pt x="95" y="542" on="1"/>
        <pt x="108" y="546" on="0"/>
        <pt x="156" y="546" on="0"/>
        <pt x="171" y="542" on="1"/>
        <pt x="171" y="452" on="1"/>
        <pt x="443" y="452" on="1"/>
        <pt x="443" y="542" on="1"/>
        <pt x="456" y="546" on="0"/>
        <pt x="504" y="546" on="0"/>
        <pt x="519" y="542" on="1"/>
        <pt x="519" y="452" on="1"/>
        <pt x="582" y="452" on="1"/>
        <pt x="586" y="432" on="0"/>
        <pt x="586" y="410" on="0"/>
        <pt x="582" y="392" on="1"/>
        <pt x="519" y="392" on="1"/>
        <pt x="519" y="0" on="1"/>
        <pt x="502" y="-3" on="0"/>
        <pt x="458" y="-3" on="0"/>
        <pt x="443" y="0" on="1"/>
        <pt x="443" y="191" on="1"/>
        <pt x="443" y="191" on="0"/>
        <pt x="444" y="251" on="1"/>
        <pt x="390" y="250" on="1"/>
        <pt x="223" y="250" on="1"/>
      </contour>
      <contour>
        <pt x="170" y="314" on="1"/>
        <pt x="223" y="315" on="1"/>
        <pt x="390" y="315" on="1"/>
        <pt x="444" y="314" on="1"/>
        <pt x="443" y="373" on="1"/>
        <pt x="443" y="392" on="1"/>
        <pt x="171" y="392" on="1"/>
        <pt x="171" y="373" on="1"/>
      </contour>
    </TTGlyph>
    <TTGlyph name="hyphen" xMin="49" yMin="231" xMax="286" yMax="300">
      <contour>
        <pt x="283" y="231" on="1"/>
        <pt x="53" y="231" on="1"/>
        <pt x="49" y="243" on="0"/>
        <pt x="49" y="285" on="0"/>
        <pt x="53" y="300" on="1"/>
        <pt x="283" y="300" on="1"/>
        <pt x="286" y="284" on="0"/>
        <pt x="286" y="244" on="0"/>
      </contour>
    </TTGlyph>
</ttFont>
